<?xml version="1.0" encoding="UTF-8"?>
<svg id="Layer_1" data-name="Layer 1" xmlns="http://www.w3.org/2000/svg" viewBox="0 0 325.12 609.32">
  <defs>
    <style>
      .cls-1 {
        fill: none;
        stroke: #000;
        stroke-miterlimit: 10;
        stroke-width: 5px;
      }
    </style>
  </defs>
  <path class="cls-1" d="M162.56,2.59c10.6,0,17.14-.62,25.23,1.41,4.44,1.12,7.56,1.32,11.09,2.07,3.51.75,6.61,2.25,9.92,2.99,2.25.5,4.13,1.02,5.64,1.56,31.87,11.45,57.54,30.21,77.03,56.29,11.33,15.16,20,32.86,25.99,53.1,1.28,4.3,2.12,8.02,2.52,11.15.58,4.44,2.3,9.56,2.43,14.96.27,11.33.28,22.55.02,33.67-.1,3.99-.8,6.7-1.94,11.93-.75,3.43-.9,7.85-2.01,11.33-2.14,6.67-5.21,16.11-8.34,23.19-10.07,22.81-24.03,41.98-41.89,57.51-8.37,7.28-18.73,14.4-31.09,21.37-2.31,1.3-3.93,1.5-6.2,2.23-.6.2-1.25-.13-1.45-.73,0-.02-.01-.03-.01-.05l-3.75-13.4c-.28-1.02-.06-2.11.6-2.93,1.02-1.27,1.97-2.11,2.84-2.54,9.94-4.87,18.84-11.6,26.68-18.19,6.31-5.31,12.51-11.91,18.58-19.79,6.17-8.01,10.84-15.14,14.01-21.41.73-1.44,1.25-2.62,1.58-3.53.58-1.63,1.79-2.97,2.31-4.6.74-2.29,1.73-4.69,2.96-7.19.44-.88.77-1.82,1-2.78.59-2.52,1.43-4.99,2.52-7.42.2-.44.33-.92.39-1.4.57-4.67,2.46-8.72,3.1-13.48,1.33-10.05,2.04-19.02,2.13-26.89.02-1.89-.23-5.57-.75-11.05-.22-2.25-.59-5.92-1.11-11.03-.38-3.67-1.14-5.51-2.33-9.13-.22-.66-.38-1.33-.47-2.02-.35-2.65-.99-5.07-1.92-7.25-1.39-3.26-1.56-5.75-2.98-8.75-.36-.76-1.78-4.01-4.26-9.75-1.34-3.09-2.97-6.23-4.89-9.42-2.76-4.59-4.93-8.02-6.5-10.29-14.91-21.57-34.34-37.81-58.31-48.72-6.33-2.89-11.48-4.4-17.62-6.81-3.08-1.21-6.72-1.38-9.63-2.27-3.05-.94-5.51-1.5-7.36-1.67-7.49-.7-15.79-1.91-23.76-1.91s-16.27,1.21-23.76,1.91c-1.85.17-4.31.73-7.36,1.67-2.91.89-6.55,1.06-9.63,2.27-6.14,2.41-11.29,3.92-17.62,6.81-23.97,10.91-43.4,27.15-58.31,48.72-1.57,2.27-3.74,5.7-6.5,10.29-1.92,3.19-3.55,6.33-4.89,9.42-2.48,5.74-3.9,8.99-4.26,9.75-1.42,3-1.59,5.49-2.98,8.75-.93,2.18-1.57,4.6-1.92,7.25-.09.69-.25,1.36-.47,2.02-1.19,3.62-1.95,5.46-2.33,9.13-.52,5.11-.89,8.78-1.11,11.03-.52,5.48-.77,9.16-.75,11.05.09,7.87.8,16.84,2.13,26.89.64,4.76,2.53,8.81,3.1,13.48.06.48.19.96.39,1.4,1.09,2.43,1.93,4.9,2.52,7.42.23.96.57,1.9,1.01,2.78,1.23,2.5,2.22,4.9,2.96,7.19.52,1.63,1.73,2.97,2.31,4.6.33.91.85,2.09,1.58,3.53,3.17,6.27,7.84,13.4,14.01,21.41,6.07,7.88,12.27,14.48,18.58,19.79,7.84,6.59,16.74,13.32,26.68,18.19.87.43,1.82,1.27,2.84,2.54.66.82.88,1.91.6,2.93l-3.75,13.4c-.17.61-.8.96-1.41.79-.02,0-.03,0-.05-.01-2.27-.73-3.89-.93-6.2-2.23-12.36-6.97-22.72-14.09-31.09-21.37-17.86-15.53-31.82-34.7-41.89-57.51-3.13-7.08-6.21-16.52-8.35-23.19-1.11-3.48-1.26-7.9-2.01-11.33-1.14-5.23-1.84-7.94-1.94-11.93-.26-11.12-.25-22.34.02-33.67.13-5.4,1.85-10.52,2.43-14.96.4-3.13,1.24-6.85,2.52-11.15,5.99-20.24,14.66-37.94,25.99-53.1,19.49-26.08,45.16-44.84,77.03-56.29,1.51-.54,3.39-1.06,5.64-1.56,3.31-.74,6.41-2.24,9.92-2.99,3.53-.75,6.65-.95,11.09-2.07,8.09-2.03,14.63-1.41,25.23-1.41Z"/>
  <path class="cls-1" d="M111.29,246.68c-.78,2.46-1.51,5.62-2.19,9.47-.37,2.08-1.04,3.89-2.03,5.44-.54.85-1.61,1.22-2.57.89l-2.7-.93c-.42-.15-.82-.37-1.16-.66-2.9-2.43-6.03-3.81-8.55-5.96-13.53-11.55-25.35-24.58-33.04-40.57-1.59-3.3-3.64-8.14-6.17-14.51-1.96-4.97-2.44-9.14-3.76-14.51-.81-3.29-1.29-6.62-1.42-10.01-.4-10.28-.33-19.81.21-28.6.13-2.01.57-4.39,1.34-7.13,1.18-4.23,1.44-7.76,2.66-11.28.89-2.57,1.96-5.47,3.22-8.72,2.43-6.26,5.93-12.94,10.49-20.03,10.51-16.37,24.46-29.23,41.83-38.57,2.48-1.33,6.25-3.22,11.31-5.65.43-.21.89-.37,1.36-.48,2.78-.65,5.42-1.55,7.93-2.7.65-.3,1.34-.52,2.04-.67,2.56-.53,5.11-1.13,7.66-1.79,11.73-3.03,24.42-2.39,36.04-2.01,4.51.15,8.78.76,12.83,1.84,2.52.67,5.4,1.34,8.63,2.01.73.15,1.44.4,2.12.74,2.52,1.26,5.21,2.14,8.06,2.64.54.1,1.05.34,1.46.71,1.79,1.6,4.79,2.28,7.3,3.54,21.97,11.03,38.76,27.32,50.39,48.88,4.4,8.17,7.5,15.79,9.31,22.87.61,2.37,1.38,5.62,2.33,9.73,1.96,8.47,1.41,14.54,1.49,27.02.03,6.19-.47,11.73-1.5,16.63-.76,3.59-1.63,7.32-2.62,11.21-.17.68-.42,1.33-.75,1.94-1.77,3.33-2.05,5.46-3.45,8.82-1,2.43-1.5,3.64-1.51,3.65-2.05,4.95-3.45,8.06-4.18,9.31-7.44,12.66-16.93,23.91-28.47,33.76-2.81,2.4-4.42,3.69-4.84,3.88-3.61,1.63-5.5,4.43-9.61,5.58-1.13.32-2.33-.16-2.93-1.17-.95-1.61-1.59-3.46-1.9-5.53-.44-2.87-1.13-5.76-2.07-8.66-.18-.53-.07-1.12.27-1.56,2.22-2.85,6.16-4.84,9.36-7.65,8.48-7.42,14.85-14.25,19.11-20.49,2.21-3.25,5.43-9.13,9.65-17.65,1.31-2.65,2.15-4.99,2.52-7.04.56-3.06,2.1-6,2.68-9.65.99-6.2,1.91-11.18,2.05-16.68.23-9.05-.73-18.21-2.87-27.46-.76-3.3-2.14-7.36-4.14-12.17-2.03-4.89-3.89-8.79-5.56-11.69-10.39-17.98-25.1-31.47-44.13-40.46-5.87-2.77-11.79-4.83-17.76-6.18-5.07-1.15-12.17-1.99-21.3-2.54-3.13-.19-6.75.05-10.86.7-4.34.69-9.33.82-14.32,2.15-8.94,2.38-16.81,5.64-23.61,9.77-4.41,2.68-7.65,4.77-9.73,6.26-4.4,3.16-7.52,6.2-12.53,11.15-7.65,7.55-13.7,16.36-18.13,26.41-3.52,8-6.26,15.25-7.49,23.74-1.47,10.17-2.02,18.08-.6,28.58.93,6.88,1.64,11.2,2.15,12.97,2,6.97,3.61,11.68,4.84,14.12.43.85,2.04,3.72,4.84,8.59,6.15,10.71,13.97,19.88,23.77,27.75,5.16,4.15,8.07,6.49,8.72,7.02.48.38.67,1.01.48,1.59Z"/>
  <path class="cls-1" d="M162.64,92.5c4.07,0,10.58-.23,15.21.99,3.23.85,7.22,2.15,11.95,3.9,9.15,3.37,16.4,9.07,24.14,16.84,5.69,5.7,10.21,12.34,13.56,19.91.57,1.29,1.53,3.88,2.88,7.75,1.07,3.05,1.72,5.72,1.97,8.01.71,6.53.92,13.08.61,19.65-.28,6.15-1.58,12.15-3.9,18.01-4.25,10.73-10.76,20.23-19.51,28.48-1.88,1.78-3.36,0-4.12-1.93-1.97-4.97-3.09-10.06-3.38-15.25-.08-1.51.36-2.99,1.25-4.21l4.53-6.14c.07-.09.13-.2.18-.31l3.81-8.39c.21-.44.36-.9.46-1.38,1.28-6,1.93-9.11,1.96-9.32.76-5.83.57-11.87-1.02-18.12-4.34-17.08-14.66-29.22-30.97-36.41-2.23-.99-4.39-1.7-6.48-2.13-4.9-1.02-8.36-1.91-13.14-1.91-4.79,0-8.24.88-13.15,1.89-2.09.43-4.25,1.13-6.48,2.12-16.32,7.16-26.66,19.28-31.03,36.35-1.61,6.25-1.81,12.29-1.06,18.12.03.21.68,3.32,1.95,9.33.1.48.25.94.46,1.38l3.79,8.39c.05.11.11.22.18.31l4.52,6.15c.89,1.22,1.33,2.7,1.24,4.21-.29,5.19-1.43,10.28-3.4,15.25-.77,1.93-2.25,3.7-4.13,1.92-8.73-8.27-15.22-17.77-19.46-28.51-2.31-5.87-3.6-11.87-3.87-18.02-.29-6.57-.08-13.12.65-19.65.25-2.29.91-4.96,1.98-8.01,1.35-3.87,2.32-6.45,2.89-7.74,3.37-7.57,7.9-14.2,13.6-19.89,7.75-7.75,15.01-13.44,24.17-16.8,4.73-1.73,8.72-3.03,11.95-3.88,4.64-1.21,11.15-.96,15.21-.96Z"/>
  <path class="cls-1" d="M162.57,137.33c3.77,0,6.37.24,7.8.71,6.95,2.31,12.19,6.71,15.74,13.21.2.37.36.76.47,1.17,1.45,5.13,1.75,10.86.88,17.18-.35,2.61-1.35,4.91-2.98,6.91-2.71,3.31-4.87,6.04-6.48,8.2-.34.45-.38,1.05-.11,1.54,1.47,2.68,2.46,4.65,2.62,7.49.15,2.68.62,4.86,1.41,6.54,1.79,3.77,1.84,7.54,3.24,12.01,1.45,4.62,2.28,10.18,3.64,13.84,1.55,4.13,1.86,7.94,3.2,12.14,1.35,4.22,1.96,9.48,3.8,14.3.27.69.44,1.41.53,2.14.4,3.42,1.24,6.59,2.52,9.51.29.67.47,1.39.53,2.12.09,1.12,1.08,4.7,2.96,10.74.33,1.05.75,2.89,1.28,5.53.77,3.89,2.47,7.32,2.91,11.22.18,1.63.57,3.29,1.17,5,.99,2.82,1.49,4.47,1.5,4.96.09,3.48,2.2,8.6,2.97,12.05.7,3.18,1.18,5.52,2.16,8.24,1.45,4.04,2.13,9.21,3.48,13.3,1.36,4.1,1.72,8.18,3.11,11.92.37,1.01,1.56,5.68,3.55,14,2.46,10.25,6.22,21.34,8.05,30.71.83,4.22,2.62,8.53,3.32,13.36.09.6.26,1.19.51,1.75,1.22,2.72,2.05,5.88,2.49,9.49.41,3.32,2.01,6.29,2.6,9.68.49,2.77.9,4.59,1.24,5.45,2.18,5.49,2.67,11.14,4.41,16.28.88,2.6,1.4,4.53,1.56,5.79.32,2.52,1.55,5.04,2.19,7.73,1.65,6.93,3.34,13.53,5.05,19.79.63,2.31.98,3.58,1.03,3.81.83,3.81,2.01,8.18,3.56,13.1.8,2.54,1,4.38,1.39,6.64.11.63.28,1.24.49,1.83.94,2.56,1.57,4.69,1.9,6.4.95,5,2.42,7.9,3.4,13.19.27,1.5.84,3.83,1.71,7,2.41,8.83,5.13,19.18,8.16,31.05.71,2.79,1.25,4.68,1.6,5.65.34.93.58,1.67.64,1.91,1.61,8.02,4.41,15.2,5.14,23.91.11,1.24-.36,2.9-1.41,4.97-2.44,4.82-10.45,5.3-13.96,1.51-2.46-2.66-2.52-6.17-3.78-9.16-.39-.94-.77-2.22-1.12-3.83-.99-4.55-2.16-8.66-3.51-12.33-.21-.57-.35-1.17-.41-1.78-.31-3.05-1.08-6.08-2.3-9.09-.35-.87-.58-1.78-.69-2.71l-.3-2.69c-.13-1.1-.93-1.99-2.01-2.24-2.99-.68-6.19-1-9.6-.97-6.17.05-33.92.08-83.25.09-49.33,0-77.08-.03-83.24-.09-3.41-.03-6.61.29-9.6.97-1.08.25-1.88,1.14-2.01,2.24l-.3,2.69c-.11.93-.34,1.84-.69,2.71-1.22,3.01-1.99,6.04-2.3,9.09-.06.61-.2,1.21-.41,1.78-1.35,3.67-2.52,7.78-3.51,12.33-.35,1.61-.73,2.89-1.12,3.83-1.26,2.99-1.32,6.5-3.78,9.16-3.51,3.79-11.52,3.31-13.96-1.51-1.05-2.07-1.52-3.73-1.41-4.97.73-8.71,3.53-15.89,5.14-23.91.05-.24.3-.98.64-1.91.35-.97.89-2.86,1.6-5.65,3.03-11.87,5.75-22.22,8.16-31.05.87-3.17,1.44-5.5,1.71-7,.98-5.29,2.45-8.19,3.4-13.19.33-1.71.96-3.84,1.9-6.4.21-.59.38-1.2.49-1.83.39-2.26.59-4.1,1.39-6.64,1.55-4.92,2.73-9.29,3.56-13.1.05-.23.4-1.5,1.03-3.81,1.71-6.26,3.4-12.86,5.05-19.79.64-2.69,1.87-5.21,2.19-7.73.16-1.26.68-3.19,1.56-5.79,1.74-5.14,2.23-10.79,4.41-16.28.34-.86.75-2.68,1.24-5.45.59-3.39,2.19-6.36,2.6-9.68.44-3.61,1.27-6.77,2.48-9.49.25-.56.42-1.15.51-1.75.7-4.83,2.49-9.14,3.32-13.36,1.83-9.37,5.59-20.46,8.05-30.71,1.99-8.32,3.18-12.99,3.55-14,1.39-3.74,1.75-7.82,3.11-11.92,1.35-4.09,2.03-9.26,3.48-13.3.98-2.72,1.46-5.06,2.16-8.24.77-3.45,2.88-8.57,2.97-12.05,0-.49.51-2.14,1.5-4.96.6-1.71.99-3.37,1.17-5,.44-3.9,2.14-7.33,2.91-11.22.53-2.64.95-4.48,1.28-5.53,1.88-6.04,2.87-9.62,2.96-10.74.06-.73.24-1.45.53-2.12,1.28-2.92,2.12-6.09,2.52-9.51.09-.73.26-1.45.53-2.14,1.84-4.82,2.45-10.08,3.8-14.3,1.34-4.2,1.65-8.01,3.2-12.14,1.36-3.66,2.19-9.22,3.64-13.84,1.4-4.47,1.45-8.24,3.24-12.01.79-1.68,1.26-3.86,1.41-6.54.16-2.84,1.15-4.81,2.62-7.49.27-.49.23-1.09-.11-1.54-1.61-2.16-3.77-4.89-6.48-8.2-1.63-2-2.63-4.3-2.98-6.91-.87-6.32-.57-12.05.88-17.18.11-.41.27-.8.47-1.17,3.55-6.5,8.79-10.9,15.74-13.21,1.43-.47,4.03-.71,7.8-.71ZM162.59,257.59c8.26,0,12.73-.03,13.41-.09.3-.03.53-.26.57-.56.58-5.3-2.25-8.95-2.83-13.89-.26-2.15-.73-4.16-1.42-6.03-1.6-4.33-1.7-7.81-3.3-12.26-.53-1.49-1.09-3.61-1.68-6.34-.97-4.51-2.39-9.41-4.24-14.7-.09-.26-.26-.39-.51-.39s-.43.13-.52.39c-1.85,5.29-3.27,10.19-4.24,14.7-.59,2.73-1.15,4.85-1.68,6.34-1.6,4.45-1.69,7.93-3.29,12.26-.69,1.87-1.16,3.88-1.42,6.03-.58,4.94-3.41,8.59-2.83,13.89.04.3.27.53.57.56.68.06,5.15.09,13.41.09ZM174.12,280.49c.86-.99.75-2.49-.24-3.34-.43-.37-.99-.58-1.56-.58h-19.48c-1.31,0-2.37,1.05-2.38,2.36,0,.57.2,1.12.58,1.56l9.74,11.31c.85.99,2.35,1.11,3.34.26.09-.08.18-.17.26-.26l9.74-11.31ZM142.93,284.96l-2.54.71c-.31.09-.56.32-.66.63-1.03,3.16-1.31,6.43-2.28,10.05-1.17,4.35-2.97,11.26-5.38,20.74-1.19,4.63-4.44,13.28-3.35,17.01.14.47.63.73,1.09.59.17-.05.32-.15.44-.29l24.65-30.93c.79-.99.8-2.39.02-3.39l-11.65-15.01c-.08-.1-.22-.15-.34-.11ZM182.17,284.91c-.12-.04-.26,0-.34.11l-11.66,15.02c-.78,1-.77,2.4.02,3.4l24.67,30.95c.3.38.86.44,1.24.14.14-.11.24-.26.29-.44,1.09-3.73-2.16-12.39-3.35-17.02-2.41-9.49-4.21-16.41-5.38-20.76-.97-3.62-1.25-6.89-2.28-10.05-.1-.31-.35-.54-.66-.63l-2.55-.72ZM162.56,351.59c17.53,0,27.18-.05,28.95-.15,1.47-.08,2.79-.51,3.98-1.28.11-.07.14-.22.07-.33,0,0,0-.01-.01-.02-12.59-15.27-22.3-27.2-29.14-35.8-.98-1.23-2.18-2.39-3.59-3.49-.07-.05-.16-.08-.26-.08s-.19.03-.26.08c-1.42,1.1-2.62,2.26-3.6,3.49-6.83,8.6-16.54,20.53-29.13,35.8-.08.1-.06.26.04.34,0,0,.01,0,.02.01,1.19.77,2.51,1.2,3.97,1.28,1.78.1,11.43.15,28.96.15ZM195.72,373.7c.78-.54.97-1.62.42-2.4-.32-.46-.84-.73-1.4-.73h-64.4c-.95,0-1.72.78-1.71,1.73,0,.56.28,1.08.73,1.4l32.2,22.46c.59.41,1.37.41,1.96,0l32.2-22.46ZM152.45,401.89c.11-.33-.01-.7-.3-.9l-33.08-23.24c-.9-.63-2.14-.42-2.77.48-.16.23-.27.49-.33.76-.53,2.67-1.12,4.91-1.79,6.71-.97,2.57-1.53,4.76-1.68,6.56-.31,3.78-2.49,6.89-2.86,10.66-.17,1.71-.79,4.12-1.86,7.25-1.34,3.89-1.53,7.55-2.83,11.2-1.7,4.75-2.51,10.07-4.26,14.84-.23.63-.29,1.07-.2,1.34.38,1.03,1.52,1.56,2.56,1.18.16-.06.31-.14.45-.24,14.49-10.1,31.24-22.48,47.21-33.18.56-.37,1.14-1.51,1.74-3.42ZM172.68,401.89c.6,1.91,1.18,3.05,1.74,3.42,15.98,10.7,32.74,23.08,47.24,33.18.9.63,2.14.41,2.77-.49.1-.14.18-.3.24-.46.09-.27.03-.71-.2-1.34-1.75-4.77-2.57-10.09-4.27-14.84-1.3-3.65-1.49-7.31-2.83-11.2-1.08-3.13-1.7-5.54-1.87-7.25-.37-3.77-2.55-6.88-2.86-10.67-.15-1.8-.71-3.99-1.68-6.56-.67-1.8-1.27-4.04-1.8-6.71-.21-1.08-1.26-1.78-2.34-1.57-.27.05-.53.17-.76.33l-33.08,23.26c-.29.2-.41.57-.3.9ZM162.56,446.62c31.46,0,47.82-.04,49.09-.1.59,0,1.07-.47,1.07-1.06,0-.03,0-.06,0-.09l-.12-1.54c-.03-.36-.24-.68-.55-.86l-2.93-1.68s-.07-.04-.1-.06c-4.1-3.24-7.91-6.02-11.42-8.33-11.34-7.45-17.45-12.15-32.8-23.03-.47-.33-1.22-.5-2.25-.5-1.03,0-1.78.17-2.24.5-15.36,10.89-21.46,15.59-32.8,23.04-3.51,2.31-7.32,5.09-11.42,8.33-.03.02-.07.04-.1.06l-2.93,1.68c-.32.18-.52.5-.55.87l-.12,1.54c-.04.59.4,1.1.99,1.14.03,0,.06,0,.09,0,1.26.07,17.62.1,49.09.09ZM162.5,491.26c1.62,0,4.3-1.14,5.53-1.75,11.17-5.55,24.43-11.98,39.78-19.28.28-.13.54-.29.79-.48,1.87-1.47,3.73-2.63,5.58-3.5.2-.1.29-.35.19-.55-.03-.07-.08-.13-.15-.17-1.16-.73-2.38-1.09-3.65-1.06-3.23.08-19.25.11-48.06.1-28.81-.01-44.82-.06-48.05-.15-1.27-.03-2.49.33-3.65,1.06-.19.13-.25.39-.12.58.04.06.1.11.16.14,1.84.87,3.7,2.03,5.57,3.5.25.19.51.35.79.48,15.35,7.32,28.6,13.76,39.76,19.32,1.23.61,3.91,1.76,5.53,1.76ZM150.1,497.82c-2.43-2.11-3.81-3.24-4.13-3.39-15.75-7.53-28.51-13.65-38.27-18.38-3.21-1.56-6.43-3.19-9.64-4.88-1.39-.73-2.49-1.21-3.3-1.44-.36-.11-.75-.03-1.05.2-3.91,3.07-2.95,6.71-4.27,10.9-1.2,3.8-2.28,7.95-3.23,12.45-.61,2.88-2.16,5.9-2.56,9.29-.28,2.4-.92,4.71-1.91,6.92-.89,1.97-1.16,4.67-1.37,6.09-.16,1.08-.57,2.58-1.23,4.51-1.07,3.11-1.85,6.49-2.35,10.14-.28,2,1.52,2.74,3.21,2.06.11-.04.66-.21,1.67-.51.5-.15.98-.36,1.42-.63,1.86-1.11,3.55-1.99,5.06-2.62,1.87-.8,3-2.19,4.81-2.69,1.24-.35,2.52-.85,3.85-1.51,11.38-5.63,18.94-9.52,30.96-15.26,8.09-3.87,14.95-7.73,22.25-10.73.16-.07.23-.25.16-.41-.02-.04-.05-.08-.08-.11ZM175.07,497.86c-.13.11-.14.31-.03.44.03.04.07.06.11.08,7.3,2.99,14.16,6.85,22.25,10.71,12.02,5.73,19.58,9.61,30.96,15.23,1.33.66,2.61,1.16,3.85,1.51,1.81.5,2.94,1.88,4.81,2.68,1.51.63,3.2,1.51,5.07,2.62.44.27.92.48,1.42.63,1.01.3,1.56.47,1.67.51,1.69.67,3.48-.07,3.2-2.07-.5-3.64-1.28-7.02-2.35-10.13-.67-1.93-1.08-3.43-1.24-4.51-.21-1.42-.48-4.12-1.37-6.09-.99-2.21-1.63-4.51-1.92-6.91-.4-3.39-1.95-6.41-2.56-9.29-.96-4.5-2.04-8.65-3.24-12.44-1.32-4.19-.37-7.83-4.28-10.9-.3-.23-.69-.3-1.05-.19-.81.23-1.91.71-3.3,1.44-3.21,1.69-6.42,3.32-9.63,4.88-9.75,4.73-22.5,10.87-38.24,18.41-.32.15-1.7,1.28-4.13,3.39ZM162.56,541.59c22.06,0,45.31.01,69.76.03,1.67,0,3.24-.37,4.72-1.12.2-.1.28-.34.18-.54-.04-.07-.1-.13-.17-.17-1.99-1.06-3.39-2.63-5.8-3.74-2.77-1.29-6.32-3.04-10.65-5.25-9.07-4.62-18.21-9.1-27.42-13.43-2.5-1.17-11.78-5.69-27.85-13.56-.52-.26-1.44-.39-2.77-.39s-2.24.13-2.77.39c-16.07,7.87-25.35,12.39-27.85,13.56-9.21,4.33-18.35,8.81-27.42,13.44-4.33,2.21-7.88,3.96-10.65,5.25-2.41,1.11-3.81,2.68-5.8,3.74-.19.1-.27.35-.16.54.04.07.1.13.17.17,1.48.75,3.05,1.12,4.72,1.11,24.45-.02,47.7-.03,69.76-.03Z"/>
</svg>