<?xml version="1.0" encoding="UTF-8"?>
<svg id="Layer_1" data-name="Layer 1" xmlns="http://www.w3.org/2000/svg" viewBox="0 0 381.23 457.39">
  <defs>
    <style>
      .cls-1 {
        fill: none;
        stroke: #020202;
        stroke-miterlimit: 10;
        stroke-width: 5px;
      }
    </style>
  </defs>
  <path class="cls-1" d="M136.67,2.65c.03-.11.13-.17.24-.15.06.01.1.05.13.1,2.02,4.2,4.55,8.35,7.59,12.46.97,1.31,1.23,2.96.55,4.87-1.38,3.88-.3,7.16,3.23,9.84,3.6,2.73,6.32,6.08,8.17,10.06.11.25.26.47.45.68,1.62,1.79,4.57,2.71,5.08,4.95.43,1.89,1.05,3.83,1.88,5.8.55,1.32.13,2.69.53,3.88.11.31.28.59.52.82,3.36,3.15,5.44,5.79,6.24,7.92.91,2.44,1.45,6.27,1.61,11.48,0,.2.09.39.22.53l3.04,3.18c.7.73.9,1.82.49,2.76-1.34,3.05-1.77,6.28-1.29,9.7.77,5.54,1.24,10.94,1.39,16.2.1,3.21,3.6,5.34,6.35,3.24.2-.15.48-.12.63.08.05.06.08.13.09.2l.1.7c.03.16.1.3.21.41,2.57,2.57,4.28,5.75,5.14,9.54.1.43.36.8.73,1.04,2.08,1.35,4.27,2.16,6.57,2.45.17.03.34,0,.49-.06l3.48-1.41c.92-.37,1.97-.26,2.8.28l2.44,1.6c.53.35.81.97.71,1.59-.48,3.01-.01,6.03,1.41,9.08,2.24,4.79,7.29,7.47,8.16,13.14.13.86.24,2.09.33,3.68.05.95.22,1.88.51,2.78.95,3.01,1.91,6.02,2.9,9.02.25.75,1.02,1.54,2.33,2.37,1.45.93,4.49.41,6.83.32.73-.02,1.42.31,1.85.9l5.71,7.78c.61.84.94,1.85.94,2.88v8.44c0,.12.03.23.1.33l2.37,3.23c.25.35.41.76.44,1.18.15,2.21.79,4.33,1.9,6.34.31.56.38,1.22.19,1.83-.67,2.24-1.79,4.57-3.34,6.98-.81,1.25-.67,2.84.33,3.79.53.51,1.07,1.38,1.61,2.61.08.19.11.4.1.62l-.3,4.34c-.11,1.57.64,3.08,1.95,3.94l6.36,4.17c.54.36,1.22.43,1.83.19,2.33-.91,4.42-.37,6.25,1.62.15.17.28.35.39.54,1.5,2.67,2.48,4.26,2.94,4.75,5.04,5.42,8.43,10.72,9.42,17.62.98,6.79,3.4,7.88,7.79,12.09,2.15,2.05,2.69,5.87,3.51,7.69.46,1.03,1.52,2.21,3.19,3.54,4.3,3.45,5.9,11.39,6.4,16.59.07.68.6,2.13,1.59,4.36.17.38.38.74.65,1.07,1.15,1.43,2.33,3.09,3.54,5,.57.9,1.74,1.21,2.72.72.27-.14.52-.22.73-.23.35-.01.69.13.93.38l3.14,3.37c.33.35.51.82.5,1.3-.02,1.91.05,3.09.22,3.52,1.73,4.5,4.63,3.31,8.3,2.48.34-.08.69.03.93.28,2.29,2.34,4.15,4.89,5.58,7.65,1.06,2.05,2.58,3.61,3.45,4.93.19.33.35.68.5,1.04l3.6,9c.32.8.77,1.55,1.33,2.21,1.53,1.8,3.63,3.68,6.29,5.63,2.91,2.15,4.66,4.06,6.41,6.93.61.99,2.09,1.93,4.44,2.8,1.81.67,3.75,2.76,4.7,4.9,1.8,4.06,5.56,4.77,8.42,8.17.4.48.52,1.13.3,1.71v.04c-.16.4-.61.61-1.01.46-.09-.03-.17-.08-.24-.15-4.25-3.8-8.92-6.66-14.01-8.59-.36-.14-.67-.38-.9-.69-1.37-1.87-2.33-3.53-5.05-4.66-4.67-1.94-7.52-5.9-9.68-10.24-.53-1.06-1.4-1.93-2.47-2.46-5.06-2.51-8.29-3.55-10.73-9.31-.13-.31-.37-.56-.67-.69-.75-.33-1.61-.33-2.56,0-.33.11-.68-.06-.8-.38-.07-.19-.1-.47-.11-.85,0-.37-.09-.67-.26-.9-2.07-2.73-2.94-6.23-5.08-9.14-1.11-1.51-1.45-3.3-1.04-5.39.13-.67-.23-1.34-.86-1.6-2.24-.94-4.07-2.5-5.49-4.67-.48-.73-1.85-1.28-4.1-1.65-3.14-.53-6.83.68-8.5-3.14-1.57-3.62-3.78-6.38-6.63-8.29-.59-.4-1.09-.91-1.49-1.51-3.31-5.05-5.36-9.17-6.17-12.34-.04-.17-.11-.33-.22-.48l-6.23-8.5c-.06-.08-.13-.15-.2-.22l-6.77-5.82c-.16-.14-.38-.2-.6-.16-1.59.3-3.23-.45-4.92-2.24-2.66-2.81-3.48-9.15-4.21-13.19-.18-1.01-.98-1.81-2-1.98-2.93-.51-5.46-1.62-7.61-3.33-.27-.21-.51-.45-.73-.72-3.48-4.23-7.21-8.24-11.2-12.01-.35-.32-.91-1.43-1.69-3.32-.13-.3-.19-.62-.19-.94,0-2.99.08-5.37-.74-8.16-.83-2.83-1.13-5.3-.91-7.42.04-.32-.14-.63-.43-.78-2.38-1.16-5.47-3.16-9.27-5.99-2.89-2.15-3.14-5.81-5.8-7.99-.42-.35-.76-.79-.99-1.28l-2.65-5.72c-.07-.15-.15-.29-.24-.42l-5.57-7.93c-.59-.85-1.44-1.49-2.42-1.83l-3.29-1.14c-.8-.28-1.45-.89-1.77-1.67-.81-1.98-1.9-3.81-3.26-5.5-.16-.2-.27-.45-.31-.71l-1.28-8.26c-.09-.61-.61-1.05-1.22-1.05h-2.38c-.82,0-1.57-.45-1.96-1.17-5.03-9.4-9.39-16.83-8.6-27.94.03-.36-.12-.71-.39-.94l-1.35-1.15c-.57-.5-.69-1.35-.27-1.98l2.33-3.55c.27-.42.37-.94.26-1.43-.62-2.92-1.07-4.66-1.35-5.23-1.09-2.23-2.14-4.45-3.16-6.66-.48-1.05-1.43-1.81-2.56-2.06-2.03-.45-4.49-.19-6.25-2.18-.91-1.03-2.41-3.33-4.5-6.89-1.64-2.79-1.52-5.61-2.42-9-.14-.5-.22-1.03-.24-1.56-.21-5.04.39-10.08,1.79-15.12.09-.32-.07-.67-.37-.81-3.17-1.46-6.25-4.14-5.46-8.11,1.34-6.74,3-11.9,1.79-16.51-.09-.36-.13-.73-.1-1.1.12-1.69.14-4,.06-6.92-.13-4.96-6.25-5.52-6.87-10.47-.2-1.67-.37-3.7-.52-6.1-.03-.57-.19-1.12-.47-1.61-.46-.82-1.03-2.06-1.04-2.88,0-3.05-.8-5.56-2.39-7.55-.41-.52-.64-1.18-.64-1.85v-4.98c0-.18-.04-.37-.13-.53-.85-1.57-1.09-3.29-.72-5.15Z"/>
  <path class="cls-1" d="M311.23,439.39c.11.23.01.5-.22.61-.14.06-.29.06-.42-.01-3.86-2.29-7.08-4.71-9.66-7.24-3.85-3.79-5.92-5.27-10.4-9.28-.72-.64-1.65-1-2.62-1h-3.56c-.84,0-1.64-.4-2.14-1.07-3.53-4.69-7.55-8.34-12.04-10.93-.89-.51-2.24-2.12-4.03-4.81-1.05-1.57-4.63-3.29-6.44-5.31-2.84-3.17-6.18-6.03-10.01-8.57-.12-.07-.25-.13-.38-.18l-6.22-2.1c-.4-.14-.71-.47-.8-.89-1.34-5.85-7.34-8.05-12.29-9.8-.46-.16-.9-.39-1.29-.69-2.29-1.71-3.61-4.45-6.05-6.4-5.37-4.31-9.48-9.79-12.31-16.44-.98-2.31-1.83-3.83-2.54-4.56-2.07-2.13-7.26-6.19-10.06-3.56-.4.37-1.02.34-1.38-.05-.08-.08-.14-.18-.19-.29-1.4-3.39-2.73-7.08-3.99-11.07-.57-1.83-.65-3.69-.22-5.59.7-3.08-3.76-9.41-6.05-12.82-.39-.57-.93-1.02-1.56-1.29l-6.23-2.64c-.53-.23-.98-.61-1.3-1.09-3.53-5.36-7.19-10-9.51-15.28-.14-.32-.43-.54-.77-.6l-2.2-.39c-.43-.07-.82-.31-1.08-.67-1.28-1.72-3.1-3.66-5.45-5.83-2.75-2.53-4.4-5.65-7.51-7.41-1.2-.68-3.79-1.75-7.76-3.22-.81-.3-1.57-.74-2.24-1.29-3.34-2.72-5.34-4.38-5.99-4.99-3.93-3.62.95-9.48-2.66-13.8-1.25-1.49-3.52-2.95-6.83-4.38-.37-.16-.7-.39-.98-.69-1.97-2.11-2.23-5.28-1.91-8.22.05-.52-.03-1.04-.24-1.51-1.77-3.92-1.6-5.28-1.36-10.06.07-1.28-.59-2.48-1.7-3.11-2.15-1.22-3.75-2.88-4.79-4.98-.23-.45-.6-.81-1.06-1.01-2-.88-6.86-2.17-6.73-5.66.13-3.85.32-7.11.55-9.78.03-.38.23-.72.54-.95l.51-.38c.31-.22.43-.63.28-.98l-5.28-13.06c-.04-.11-.07-.22-.09-.34-.87-5.67-.84-9.82-4.03-13.23-.76-.81-1.18-1.65-1.28-2.79-.19-2.01-1.44-2.29-3.08-1.65-.43.17-.93,0-1.16-.4l-2.54-4.24c-.11-.17-.19-.36-.25-.55-1.3-4.25-3.6-8.86-6.91-13.82-.63-.95-.62-2.19.03-3.13.67-.97.7-1.93.15-3.18-1.4-3.17-1.17-7.08.43-10.3.59-1.17,1-2.12,1.25-2.84.11-.34.1-.7-.02-1.04-.73-2-1.89-3.94-3.48-5.82-1.58-1.87-4.02-.26-4.79-3.74-.12-.53-.4-1.02-.81-1.38-2.87-2.56-5.21-4.28-5.66-8.2-.1-.87-.37-1.71-.8-2.48l-2.39-4.3c-.11-.21-.19-.43-.24-.66-.23-1.25-.18-3.55.14-6.91.09-.93-.36-1.92-1.35-2.98-.3-.32-.54-.7-.72-1.1-2.49-5.81-4.06-10.47-4.71-13.99-.25-1.39.02-3.13.81-5.24.12-.32.12-.68,0-1-.49-1.17-.57-2.15-.25-2.94,1.7-4.19,1.47-8.2-1.08-12.55-1.74-2.95-2.98-5.35-3.73-7.19-.43-1.05-.63-2.45-.59-4.19.01-.45-.07-.9-.24-1.32l-.66-1.62c-.12-.3-.06-.63.15-.86,1.14-1.3,1.86-2.38,1.54-4.21-.35-2.02-.38-3.82-.07-5.39.07-.36-.05-.72-.31-.98-.5-.47-1.27-.79-2.3-.97-.16-.03-.27-.19-.24-.35,0-.03.02-.06.03-.09,1.05-1.92,1.35-3.71.88-5.38-.29-1.02-.37-1.92-.25-2.69.05-.25.3-.42.55-.37.17.03.31.16.36.32.62,2.11,1.79,3.9,3.51,5.36.61.51,1.16,1.61,1.66,3.3.14.48.15,1,.03,1.5-.96,3.68-.94,6.72.07,9.12,3.06,7.29,4.58,11.88,7.99,15.07.32.3.53.7.6,1.13.37,2.16.51,3.52.41,4.08-.31,1.63-.13,2.91.53,3.85,2.24,3.18,3.98,6.71,5.23,10.58.74,2.28,5.15,4.84,7.18,6.32,2.71,1.98,3.22,4.56,3.19,7.94-.04,6.54,2.08,9.58,5.19,15.72,1.37,2.71,1.44,5.5.21,8.37-.47,1.08.04,2.34,1.13,2.81.06.03.13.05.19.07,1.43.46,1.88.82,2.73,2.19,2.67,4.3,5.99,5.28,9.4,6.9.39.19.76.42,1.09.69l5.86,4.78c.46.38.77.92.86,1.51l1.02,6.59c.05.34.16.67.31.98,1.68,3.43,3.06,7.55,4.13,12.37.17.77,1.02,2.08,2.53,3.92.24.3.54.53.88.68,3.66,1.65,8.25,4.36,7.52,8.69-.08.47.08.96.43,1.29,2.09,1.99,2.54,4.35,3.27,7.28.1.38.3.72.59.99l2.62,2.47c.07.06.12.13.17.21,2.58,4.67,3.65,9.87,3.21,15.58-.1,1.32.64,2.51,1.79,2.9.2.07.51.43.94,1.1.2.32.21.73.02,1.06-1.48,2.5-2.26,6.65-2.34,12.45-.02,1.49.43,2.63,1.36,3.42,2.5,2.13,4.51,3.49,6.04,4.08,2.8,1.09,4.83,3.47,8.48,4.02.35.05.66.24.87.52,1.15,1.52,1.63,3.09.66,5.29-.8,1.81-1.03,3.66-.68,5.53.22,1.18,1.26,2.04,2.46,2.04h1.96c.26,0,.51.1.7.27,5.85,5.31,13.22,7.45,17.39,13.48.34.49.57,1.06.66,1.65l.84,5.44c.07.43.23.83.47,1.18,2.32,3.32,3.29,7.31,2.91,11.98-.02.22.12.42.32.48.67.21,1.19.47,1.56.78.29.24.5.57.6.93,1.19,4.24,1.78,7.77,3.84,12.68.14.32.34.61.58.85,1.89,1.87,4.63,2.5,5.84,4.69,1.41,2.55,3.27,4.73,5.59,6.53.93.72,1.57,1.75,1.81,2.9.72,3.49,1.67,6.34,2.84,8.56,1.29,2.45,2.1,4.47,2.43,6.06.81,3.93,1.05,9.02,4.52,11.08,2.8,1.67,5.65,3.26,8.54,4.79.14.07.26.17.35.3l2.76,3.77c.32.44.72.81,1.17,1.11l2.07,1.36c.21.13.39.3.55.49l5.95,6.96c.09.11.17.22.23.35,1.71,3.6,2.6,5.81,2.67,6.62.37,4.63.24,7.73,3.15,11.01,3.52,3.97,6.82,7.06,9.9,9.25.34.24.63.53.88.87l3.5,4.77c.27.37.64.66,1.07.84,2.51,1.02,3.96,1.92,4.37,2.7,1.71,3.29,4.08,5.86,7.09,7.69.24.15.51.25.79.3l4.75.83c.13.03.26.08.37.15l8,5.25c.24.16.42.41.49.69l2.42,9.92c.11.42.31.81.59,1.15,2.34,2.73,4.24,4.48,5.71,5.27,1.5.8,2.27,1.21,2.3,1.24.48.34.87.8,1.13,1.33,1.14,2.27,1.99,3.61,2.54,4,3.75,2.69,7.86,5.95,12.34,9.79.24.2.43.46.58.74l1.83,3.58Z"/>
  <path class="cls-1" d="M356.91,245.87c-.33-.12-.5-.47-.39-.8.03-.08.08-.16.14-.22,2.79-2.94.28-3.86-1.26-5.57-.05-.06-.1-.12-.13-.18l-2.21-3.74c-.24-.4-.59-.71-1.01-.89-.82-.37-2.19-1.02-4.11-1.96-3.65-1.8-5.83-6.41-7.19-10.06-.18-.48-.56-.86-1.04-1.03l-6.05-2.1c-.44-.15-.83-.39-1.17-.71l-4.73-4.48c-.64-.6-1-1.43-1-2.31,0-1.99-.06-3.73-.17-5.22-.09-1.38-2.09-3.16-2.67-4.41-.95-2.07-1.83-3.67-2.66-4.79-.36-.5-.56-1.1-.57-1.72-.04-5.42-2.68-6.2-5.27-10.1-2.13-3.21-5.03-4.99-8.56-6.73-2.41-1.19-2.99-3.47-3.39-5.92,0-.07-.03-.13-.06-.18l-3.9-6.76c-.21-.37-.54-.66-.94-.83l-7.23-3.07c-.74-.31-1.42-.74-2.03-1.26l-3.8-3.27c-.33-.28-.58-.65-.74-1.06l-3.76-9.84c-.09-.24-.14-.49-.15-.74l-.08-1.31c0-.13-.03-.25-.07-.37-1.43-3.97-1.98-8.23-1.67-12.76.06-.92-.4-1.79-1.19-2.26-4.14-2.43-4.44-4.65-6.23-8.98-.09-.21-.2-.41-.34-.6l-6-8.19c-.95-1.3-1.58-2.8-1.85-4.38-.55-3.26-.96-5.42-1.25-6.47-.82-3.02-.62-6.71-.58-9.58.01-.71-.24-1.41-.71-1.94-2.07-2.36-3.82-3.77-5.18-6.71-2.01-4.35-2.99-8.78-2.94-13.27,0-.34-.09-.68-.25-.98l-2.8-5.01c-.28-.51-.45-1.09-.49-1.68-.05-.45-.22-2.66-.51-6.61-.05-.75-.62-2.6-1.71-5.53-.15-.4-.34-.78-.59-1.13-2-2.85-6.57-10.29-3.75-13.64.28-.33.77-.36,1.1-.08.14.12.23.28.26.46.85,5.59,2.76,10.76,5.71,15.5.95,1.53,1.59,2.74,1.92,3.64,1.6,4.36,3.85,6.01,8.63,7.47.28.08.47.35.45.64-.47,8.09,4.6,11.27,7.52,16.52.17.3.39.58.65.81,2.49,2.17,4,3.61,4.54,4.31.69.9.69,2.04.02,3.41-.18.37-.26.77-.24,1.18l.43,7.46c.03.64.27,1.24.68,1.73,1.78,2.11,3.31,4.84,4.59,8.19.74,1.95.71,3.81,1.37,5.58.14.36.34.7.6.99,2.3,2.55,4.19,5.25,5.67,8.1.87,1.67,2.28,2.66,4.21,2.95,3.13.47,6.09,1.85,8.89,4.15.43.36,1.02.43,1.53.2,1.25-.59,2.76-.96,4.52-1.11,1.06-.1,2.06.51,2.46,1.5l4.44,10.98c.12.29.02.63-.23.82-.71.52-.75,1.47-.12,2.85.92,2,.75,3.88-.52,5.65-.2.28-.3.61-.29.95.05,1.22,1.09,2.82,1.41,4.09.77,3.05,1.27,4.99,1.49,5.82.91,3.38,2.71,3.53,5.69,2.59.62-.19,1.3-.05,1.8.38l3.78,3.25c.33.29.37.78.09,1.12l-1.09,1.26c-.41.48-.62,1.1-.59,1.73l.52,8.98c.03.51.16,1.02.4,1.47,2.58,5.01,4.18,8.46,4.8,10.37.34,1.02.75,3.19,1.23,6.5.08.58.95,1.7,2.62,3.35.11.11.24.2.39.26l3.95,1.51c.98.37,1.73,1.17,2.05,2.17,1.83,5.85,5.74,8.53,9.59,12.6.39.41.62.95.65,1.51l.35,6.07c.02.42.13.83.32,1.21l3.74,7.54c.09.2.23.37.41.51l6.36,5.13c.48.39.77.96.81,1.57l.03.58c.04.68.41,1.3,1,1.66,1.83,1.12,5.35,2.04,6.48,4.26,1.35,2.62,3.06,3.17,5.91,3.86.34.08.62.31.78.61.13.25.19.62.17,1.09-.09,2.33,2.67,6.84,2.03,8.15-.35.72-1.25.99-2.01.6-.08-.04-.15-.08-.22-.13-2.35-1.67-4.05-4.67-6.27-7.25-.4-.48-.88-.9-1.4-1.24l-8.12-5.33c-.15-.09-.3-.17-.46-.22l-3.24-1.13Z"/>
  <path class="cls-1" d="M205.96,454.47c.1.07.13.22.05.32-.06.08-.15.11-.24.09-1.59-.29-2.88-.62-3.85-1.01-1.49-.59-3.34-2.02-5.54-4.29-1.63-1.69-2.45-1.68-4.54-1.15-.33.08-.67-.12-.75-.45-.01-.06-.02-.12-.02-.18.05-1.42-.62-2.25-2.01-2.48-.73-.13-1.39-.53-1.83-1.13-2.07-2.82-4.69-4.66-7.84-5.51-.58-.16-1.12-.41-1.61-.75-4.84-3.34-8.95-6.22-9.43-12.63-.06-.76-.53-1.42-1.23-1.72l-1.77-.75c-.57-.24-1.03-.68-1.29-1.24-1.59-3.41-4.39-5.1-7.71-7.15-2.11-1.3-4.04-2.7-5.81-4.21-3.27-2.78-7.15-6.35-11.64-10.7-2.58-2.51-4.53-7.45-6.27-10.6-.36-.65-.81-1.25-1.33-1.77-1.57-1.57-2.78-3.25-3.62-5.04-.24-.51-.58-.96-1.01-1.32-1.89-1.61-4.91-2.37-6.53-3.8-1.76-1.55-2.94-3.23-4.63-5.83-.23-.36-.58-.63-.98-.77l-12.52-4.35c-.12-.04-.23-.11-.32-.2-.49-.49-2.56-1.94-6.19-4.37-1.17-.78-2.53-1.14-4.06-1.07-.61.02-1.14-.43-1.21-1.04-.31-2.69-.85-4.24-2.02-6.3-1.49-2.65,0-4.68.2-6.78.07-.4-.02-.82-.26-1.16l-5.15-7.3c-.12-.17-.2-.37-.23-.57-.94-5.91-1.49-10.56-1.65-13.96-.03-.52-.36-1.33-1.01-2.42-1.73-2.91-2.02-3.83-5.6-4.42-3.07-.51-5.39-1.72-6.98-3.65-3.41-4.14-5.25-6.42-5.53-6.84-1.63-2.45-1.82-10.36-1.92-13.16-.02-.52-.16-1.02-.42-1.47l-3.96-6.86c-.21-.36-.5-.66-.84-.89l-2.84-1.86c-.31-.2-.56-.48-.73-.8-.99-1.82-3.34-4.04-7.03-6.65-3.54-2.49-3.22-8.7-2.31-12.45.17-.7,0-1.44-.44-1.99-2.33-2.92-4.04-6.21-5.13-9.86-.12-.38-.36-.7-.69-.92-.65-.43-.71-.9-.19-1.39,2.21-2.13,1.91-3.81-.2-6.29-2.67-3.15-4.44-6.35-5.33-9.58-.14-.5-.46-.92-.89-1.19-1.13-.71-2.73-1.09-3.75-2-2.06-1.82-2.98-3.99-2.75-6.5.03-.35,0-.7-.1-1.04-.77-2.67-1.61-4.68-2.52-6.03-.49-.72-.8-1.55-.92-2.42-.27-2.04-.87-4.12-1.78-6.23-.3-.69-.5-1.42-.59-2.16-.61-5.05-1.12-8.04-1.51-8.97-1.89-4.54-3.88-9.94-5.99-16.2-.21-.62-.49-1.2-.84-1.74-1.13-1.75-1.74-2.87-1.85-3.37-1.13-5.31-2.35-9.94-3.64-13.9v-.05l-.34-4.98c-.01-.17.11-.31.28-.32.1,0,.2.04.26.12l3.89,5.31c.5.67.71,1.51.58,2.34-.72,4.76.34,9.41,3.19,13.94,0,0,.01.01.02.02l3.48,3.71c.27.29.46.65.54,1.05l1.06,5.29c.05.21.12.4.23.58l7.25,11.73c.15.26.44.41.74.41h.54c.34,0,.64.21.74.53l2.74,8.24c.11.3.25.59.44.85,1.85,2.53,3.88,4.63,6.09,6.3,3.53,2.67,5.81,4.55,6.84,5.62.31.32.56.68.77,1.07,1.33,2.52,3.34,4.59,6.03,6.2,2.95,1.77,2.62,14.29,2.39,17.59-.06.86.26,1.69.88,2.29l5.54,5.44c.11.11.21.24.28.38,1.32,2.47,3.11,4.75,5.37,6.86.4.37.86.65,1.37.83,1.91.66,3.05,1.3,3.43,1.92,1.85,2.97,3.87,5.6,6.07,7.91.35.37.61.81.76,1.29,1.05,3.41,1.29,6.65.73,9.7-.09.47-.04.95.16,1.39.88,2.01,2.55,3.05,2.54,5.15-.03,5.62-.04,8.63-.03,9.02.04,2.2,1.2,3.67,3.14,4.67,3.14,1.61,5.22,3.99,6.25,7.16.15.46.56.78,1.04.8l4.22.23c.68.03,1.35.16,1.99.39l8.48,2.94c.44.15.74.55.78,1.01l.34,4.47c0,.09.03.18.06.26,1.94,4.91,2.72,9.85,2.33,14.84-.04.53.22,1.04.66,1.33l3.37,2.22c.11.07.19.15.26.26,2.29,3.66,3.56,5.97,3.81,6.93,1.57,5.93,3.69,10.82,6.36,14.67,1.47,2.12,4,3.66,7.59,4.62.47.12.91.36,1.26.69,1.35,1.26,1.9,3.19,4.01,3.7,2.12.51,5.03,2.66,5.58,4.32,1.31,3.97,2.29,6.69,2.94,8.16.09.19.15.4.18.61l.53,3.48c.07.48.31.91.68,1.22l1.99,1.72c.43.36.73.85.86,1.4l1.27,5.21c.11.41.31.8.59,1.12l5.36,6.06c.23.26.51.47.81.64,2.19,1.18,3.8,2.66,4.84,4.45.25.43.7.71,1.21.73l1.73.14c.13,0,.25.04.36.09l7.7,3.27c.14.06.24.18.27.32.29,1.35,1.68,4.03,4.16,8.04.84,1.35,1.52,4.13,2.05,8.34.08.59.33,1.15.72,1.61.98,1.14,3.37,2.29,4.96,3.97,1.19,1.26,2.56,2.18,4.12,2.75.21.08.4.22.53.4l5.82,7.94c.11.15.26.27.43.34,1.55.63,4.36,2.14,8.43,4.51,2.11,1.23,2.33,3.19,4.19,4.66Z"/>
</svg>