<?xml version="1.0" encoding="UTF-8"?>
<svg id="Layer_1" data-name="Layer 1" xmlns="http://www.w3.org/2000/svg" viewBox="0 0 1232 760">
  <defs>
    <style>
      .cls-1 {
        fill: #fff;
      }

      .cls-2 {
        stroke: #000;
        stroke-miterlimit: 10;
        stroke-width: 10px;
      }

      .cls-2, .cls-3 {
        fill: none;
      }

      .cls-3 {
        stroke: gray;
        stroke-width: 2px;
      }
    </style>
  </defs>
  <path class="cls-3" d="M69.53,171.36c3.95,5.21,15.63,9.18,22.04,10.81,4.69,1.19,15.4,3.9,32.15,8.13,13.45,3.4,26.39,9.22,38.8,17.45,10.39,6.89,19.01,13.12,25.87,18.67,36.31,29.43,56.07,45.41,59.27,47.96,11.47,9.13,21.75,16.42,30.84,21.85,15.6,9.31,33.85,15.51,51.49,20.03,20.64,5.28,41.55,9.44,62.72,12.47,4.43.64,8.3.98,11.62,1.02,8.09.1,17.18,1.1,24.66,3.24,2.87.82,7.51,4.28,6.6,7.76-1.14,4.32-7.91,5.97-10.87,7.22-14.11,5.92-23.79,16.25-29.04,30.99-1.85,5.2-2.28,11.55.96,16.24,3.92,5.66,9.66,9.47,16.49,10.68,4.53.8,8.3,1.36,11.29,1.69,13.94,1.5,23.17,2.99,32.08,3.07.95,0,10.99-.26,30.13-.81.9-.02,1.79-.13,2.65-.34,4.46-1.04,7.27-1.8,10.58-1.28,1.18.19,2.2.92,2.75,1.97,2.3,4.34,4.04,7.55,5.22,9.62,3.42,6,6.72,14.84,9.01,19.97,1.19,2.66,2.4,6.12,3.63,10.39,2.74,9.51,4.61,16.84,5.62,22,.95,4.87,2.37,10.1,4.25,15.69,2.61,7.73,5.48,19.46,8.61,35.17,1.33,6.68,3.04,15.51,5.12,26.49,2.47,13.06,4.21,21.12-1.6,31.58-2.22,4.01-3.49,6.45-3.81,7.34-1.43,3.93-2.08,8.46-1.93,13.59.19,6.94,1.1,13.32,2.72,19.13,2.43,8.74,5.4,12.96,11.44,19.55,3.3,3.59,7.31,6.28,12.04,8.06,2.47.93,6.89,1.4,13.27,1.41,49.99.13,79.21.2,87.64.19.19,0,.38-.03.56-.08l6.15-1.65c.57-.15,1.11-.42,1.57-.79,4.95-3.93,8.79-7.58,11.52-10.95,9.21-11.37,12.43-24.37,9.66-39-1.43-7.58-6.87-14.2-7.63-21.07-1.05-9.38-1.66-16.4-1.84-21.07-.42-11.23,1.54-22.05,5.88-32.44,2.21-5.27,3.8-9.32,4.78-12.14,4.51-12.94,10.57-27.28,18.17-43.03,1.88-3.9,3.96-9.01,6.24-15.33,1.89-5.27,3.28-8.87,4.15-10.82,4.49-10.07,8.64-17.32,15.09-28.37.16-.29.68-1.41,1.57-3.36.16-.36.58-.53.95-.4,3.71,1.35,7.1,2.22,10.15,2.62,7.69,1.01,14,1.47,18.94,1.4,14.41-.19,23.58-.44,27.5-.74,9.45-.73,24.33-1.8,36.48-5.34.59-.17,1.15-.42,1.67-.74,3.67-2.24,6.7-5.2,9.08-8.88,1.75-2.71,2.61-6.09,2.56-10.14-.05-4.01-.63-7.51-1.76-10.52-4.31-11.5-11.75-20.3-22.34-26.41-5.65-3.26-10.55-6.33-14.69-9.2-.47-.33-.58-.98-.26-1.44.04-.06.09-.12.15-.17,3.16-2.9,9.88-3.91,16.28-5.27,3.72-.8,7.82-1.5,12.3-2.09,16.69-2.23,29.08-4.01,37.15-5.33,9.85-1.61,18.54-4.27,27.54-5.94,14.57-2.71,29.28-7,44.15-12.86,14.67-5.79,28.01-11.88,40.01-18.28,20.29-10.82,37.98-25.65,53.28-43.52,7.21-8.42,14.44-15.25,21.67-20.48,7.42-5.36,10.67-8.11,17.42-11.76,9.03-4.89,15.31-8.22,18.84-10,11.07-5.57,23.05-10.16,35.94-13.76,6.65-1.85,12.82-2.37,20.45-3.66,9.35-1.57,17.9-4.1,25.63-7.57,3.07-1.38,6.72-4.38,7.95-7.9.19-.56-.08-1.17-.62-1.4-3.22-1.33-6.68-1.99-10.38-1.96-.18,0-8.07,0-23.66,0-9.35,0-17.23.33-23.63,1-15.17,1.57-28.39,3.34-39.67,5.31-6.3,1.1-11.74,2.56-16.31,4.38-19.43,7.72-37.63,18.46-54.62,32.23-9.04,7.33-18.4,13.68-28.07,19.07-2.87,1.59-7.49,3.52-13.88,5.78-10.07,3.56-20.55,7.99-28.89,11.18-7.24,2.77-14.52,4.43-21.85,4.97-2.91.21-5.85.51-8.82.9-2.69.35-6.39.49-11.09.42-3.56-.05-9.28.42-17.17,1.42-7.28.92-14,.81-21.52,1.65-5.71.65-10.47.99-14.26,1.02-11,.11-24.18,1.18-34.74,1.49-26.87.8-52.65.93-77.35.39-8.48-.19-14.92-.92-23.79-1.85-1.36-.14-2.66-.59-3.82-1.29-8.92-5.43-18.64-9.01-29.15-10.75-10.81-1.79-20.94-3.84-31.55-4.16-14.07-.44-28.34-.17-42.81.81-5.7.39-14.55.6-20.44.67-11.49.12-20.33,2-31.15,5.95-3.06,1.12-4.84,1.8-5.35,2.03-2.89,1.33-6.97,5.83-10.43,6.29-8.41,1.12-17.82,1.77-28.23,1.95-21.43.37-40.38.2-56.86-.49-13.23-.55-24.83-.85-34.8-.89-11.43-.05-23.15-.44-35.16-1.18-8.94-.55-17.95-.57-25.75-.87-7.1-.29-12.51-1.28-18.68-1.47-3.99-.13-8.64-.62-13.95-1.49-26.5-4.35-52.33-11.48-75.42-24.79-2.85-1.64-7.44-4.82-9.36-6.73-15.85-15.68-35.46-27.36-56.19-36.32-13.04-5.64-26.4-9.18-40.07-10.61-16.63-1.75-31.76-3.03-45.37-3.85-4.77-.29-11.31-.5-19.62-.64-4.59-.07-8.77.18-12.52.76-.19.03-.31.2-.28.39,0,.06.03.11.06.15" vector-effect="non-scaling-stroke"/>
  <path class="cls-1" d="M1232,0v760H0V0h1232ZM69.53,171.36c3.95,5.21,15.63,9.18,22.04,10.81,4.69,1.19,15.4,3.9,32.15,8.13,13.45,3.4,26.39,9.22,38.8,17.45,10.39,6.89,19.01,13.12,25.87,18.67,36.31,29.43,56.07,45.41,59.27,47.96,11.47,9.13,21.75,16.42,30.84,21.85,15.6,9.31,33.85,15.51,51.49,20.03,20.64,5.28,41.55,9.44,62.72,12.47,4.43.64,8.3.98,11.62,1.02,8.09.1,17.18,1.1,24.66,3.24,2.87.82,7.51,4.28,6.6,7.76-1.14,4.32-7.91,5.97-10.87,7.22-14.11,5.92-23.79,16.25-29.04,30.99-1.85,5.2-2.28,11.55.96,16.24,3.92,5.66,9.66,9.47,16.49,10.68,4.53.8,8.3,1.36,11.29,1.69,13.94,1.5,23.17,2.99,32.08,3.07.95,0,10.99-.26,30.13-.81.9-.02,1.79-.13,2.65-.34,4.46-1.04,7.27-1.8,10.58-1.28,1.18.19,2.2.92,2.75,1.97,2.3,4.34,4.04,7.55,5.22,9.62,3.42,6,6.72,14.84,9.01,19.97,1.19,2.66,2.4,6.12,3.63,10.39,2.74,9.51,4.61,16.84,5.62,22,.95,4.87,2.37,10.1,4.25,15.69,2.61,7.73,5.48,19.46,8.61,35.17,1.33,6.68,3.04,15.51,5.12,26.49,2.47,13.06,4.21,21.12-1.6,31.58-2.22,4.01-3.49,6.45-3.81,7.34-1.43,3.93-2.08,8.46-1.93,13.59.19,6.94,1.1,13.32,2.72,19.13,2.43,8.74,5.4,12.96,11.44,19.55,3.3,3.59,7.31,6.28,12.04,8.06,2.47.93,6.89,1.4,13.27,1.41,49.99.13,79.21.2,87.64.19.19,0,.38-.03.56-.08l6.15-1.65c.57-.15,1.11-.42,1.57-.79,4.95-3.93,8.79-7.58,11.52-10.95,9.21-11.37,12.43-24.37,9.66-39-1.43-7.58-6.87-14.2-7.63-21.07-1.05-9.38-1.66-16.4-1.84-21.07-.42-11.23,1.54-22.05,5.88-32.44,2.21-5.27,3.8-9.32,4.78-12.14,4.51-12.94,10.57-27.28,18.17-43.03,1.88-3.9,3.96-9.01,6.24-15.33,1.89-5.27,3.28-8.87,4.15-10.82,4.49-10.07,8.64-17.32,15.09-28.37.16-.29.68-1.41,1.57-3.36.16-.36.58-.53.95-.4,3.71,1.35,7.1,2.22,10.15,2.62,7.69,1.01,14,1.47,18.94,1.4,14.41-.19,23.58-.44,27.5-.74,9.45-.73,24.33-1.8,36.48-5.34.59-.17,1.15-.42,1.67-.74,3.67-2.24,6.7-5.2,9.08-8.88,1.75-2.71,2.61-6.09,2.56-10.14-.05-4.01-.63-7.51-1.76-10.52-4.31-11.5-11.75-20.3-22.34-26.41-5.65-3.26-10.55-6.33-14.69-9.2-.47-.33-.58-.98-.26-1.44.04-.06.09-.12.15-.17,3.16-2.9,9.88-3.91,16.28-5.27,3.72-.8,7.82-1.5,12.3-2.09,16.69-2.23,29.08-4.01,37.15-5.33,9.85-1.61,18.54-4.27,27.54-5.94,14.57-2.71,29.28-7,44.15-12.86,14.67-5.79,28.01-11.88,40.01-18.28,20.29-10.82,37.98-25.65,53.28-43.52,7.21-8.42,14.44-15.25,21.67-20.48,7.42-5.36,10.67-8.11,17.42-11.76,9.03-4.89,15.31-8.22,18.84-10,11.07-5.57,23.05-10.16,35.94-13.76,6.65-1.85,12.82-2.37,20.45-3.66,9.35-1.57,17.9-4.1,25.63-7.57,3.07-1.38,6.72-4.38,7.95-7.9.19-.56-.08-1.17-.62-1.4-3.22-1.33-6.68-1.99-10.38-1.96-.18,0-8.07,0-23.66,0-9.35,0-17.23.33-23.63,1-15.17,1.57-28.39,3.34-39.67,5.31-6.3,1.1-11.74,2.56-16.31,4.38-19.43,7.72-37.63,18.46-54.62,32.23-9.04,7.33-18.4,13.68-28.07,19.07-2.87,1.59-7.49,3.52-13.88,5.78-10.07,3.56-20.55,7.99-28.89,11.18-7.24,2.77-14.52,4.43-21.85,4.97-2.91.21-5.85.51-8.82.9-2.69.35-6.39.49-11.09.42-3.56-.05-9.28.42-17.17,1.42-7.28.92-14,.81-21.52,1.65-5.71.65-10.47.99-14.26,1.02-11,.11-24.18,1.18-34.74,1.49-26.87.8-52.65.93-77.35.39-8.48-.19-14.92-.92-23.79-1.85-1.36-.14-2.66-.59-3.82-1.29-8.92-5.43-18.64-9.01-29.15-10.75-10.81-1.79-20.94-3.84-31.55-4.16-14.07-.44-28.34-.17-42.81.81-5.7.39-14.55.6-20.44.67-11.49.12-20.33,2-31.15,5.95-3.06,1.12-4.84,1.8-5.35,2.03-2.89,1.33-6.97,5.83-10.43,6.29-8.41,1.12-17.82,1.77-28.23,1.95-21.43.37-40.38.2-56.86-.49-13.23-.55-24.83-.85-34.8-.89-11.43-.05-23.15-.44-35.16-1.18-8.94-.55-17.95-.57-25.75-.87-7.1-.29-12.51-1.28-18.68-1.47-3.99-.13-8.64-.62-13.95-1.49-26.5-4.35-52.33-11.48-75.42-24.79-2.85-1.64-7.44-4.82-9.36-6.73-15.85-15.68-35.46-27.36-56.19-36.32-13.04-5.64-26.4-9.18-40.07-10.61-16.63-1.75-31.76-3.03-45.37-3.85-4.77-.29-11.31-.5-19.62-.64-4.59-.07-8.77.18-12.52.76-.19.03-.31.2-.28.39,0,.06.03.11.06.15Z"/>
  <path class="cls-2" d="M69.53,171.36c-.11-.15-.08-.36.07-.48.04-.03.1-.06.15-.06,3.75-.58,7.93-.83,12.52-.76,8.31.14,14.85.35,19.62.64,13.61.82,28.74,2.1,45.37,3.85,13.67,1.43,27.03,4.97,40.07,10.61,20.73,8.96,40.34,20.64,56.19,36.32,1.92,1.91,6.51,5.09,9.36,6.73,23.09,13.31,48.92,20.44,75.42,24.79,5.31.87,9.96,1.36,13.95,1.49,6.17.19,11.58,1.18,18.68,1.47,7.8.3,16.81.32,25.75.87,12.01.74,23.73,1.13,35.16,1.18,9.97.04,21.57.34,34.8.89,16.48.69,35.43.86,56.86.49,10.41-.18,19.82-.83,28.23-1.95,3.46-.46,7.54-4.96,10.43-6.29.51-.23,2.29-.91,5.35-2.03,10.82-3.95,19.66-5.83,31.15-5.95,5.89-.07,14.74-.28,20.44-.67,14.47-.98,28.74-1.25,42.81-.81,10.61.32,20.74,2.37,31.55,4.16,10.51,1.74,20.23,5.32,29.15,10.75,1.16.7,2.46,1.15,3.82,1.29,8.87.93,15.31,1.66,23.79,1.85,24.7.54,50.48.41,77.35-.39,10.56-.31,23.74-1.38,34.74-1.49,3.79-.03,8.55-.37,14.26-1.02,7.52-.84,14.24-.73,21.52-1.65,7.89-1,13.61-1.47,17.17-1.42,4.7.07,8.4-.07,11.09-.42,2.97-.39,5.91-.69,8.82-.9,7.33-.54,14.61-2.2,21.85-4.97,8.34-3.19,18.82-7.62,28.89-11.18,6.39-2.26,11.01-4.19,13.88-5.78,9.67-5.39,19.03-11.74,28.07-19.07,16.99-13.77,35.19-24.51,54.62-32.23,4.57-1.82,10.01-3.28,16.31-4.38,11.28-1.97,24.5-3.74,39.67-5.31,6.4-.67,14.28-1,23.63-1,15.59,0,23.48,0,23.66,0,3.7-.03,7.16.63,10.38,1.96.54.23.81.84.62,1.4-1.23,3.52-4.88,6.52-7.95,7.9-7.73,3.47-16.28,6-25.63,7.57-7.63,1.29-13.8,1.81-20.45,3.66-12.89,3.6-24.87,8.19-35.94,13.76-3.53,1.78-9.81,5.11-18.84,10-6.75,3.65-10,6.4-17.42,11.76-7.23,5.23-14.46,12.06-21.67,20.48-15.3,17.87-32.99,32.7-53.28,43.52-12,6.4-25.34,12.49-40.01,18.28-14.87,5.86-29.58,10.15-44.15,12.86-9,1.67-17.69,4.33-27.54,5.94-8.07,1.32-20.46,3.1-37.15,5.33-4.48.59-8.58,1.29-12.3,2.09-6.4,1.36-13.12,2.37-16.28,5.27-.42.38-.45,1.04-.06,1.46.05.06.11.11.17.15,4.14,2.87,9.04,5.94,14.69,9.2,10.59,6.11,18.03,14.91,22.34,26.41,1.13,3.01,1.71,6.51,1.76,10.52.05,4.05-.81,7.43-2.56,10.14-2.38,3.68-5.41,6.64-9.08,8.88-.52.32-1.08.57-1.67.74-12.15,3.54-27.03,4.61-36.48,5.34-3.92.3-13.09.55-27.5.74-4.94.07-11.25-.39-18.94-1.4-3.05-.4-6.44-1.27-10.15-2.62-.37-.13-.79.04-.95.4-.89,1.95-1.41,3.07-1.57,3.36-6.45,11.05-10.6,18.3-15.09,28.37-.87,1.95-2.26,5.55-4.15,10.82-2.28,6.32-4.36,11.43-6.24,15.33-7.6,15.75-13.66,30.09-18.17,43.03-.98,2.82-2.57,6.87-4.78,12.14-4.34,10.39-6.3,21.21-5.88,32.44.18,4.67.79,11.69,1.84,21.07.76,6.87,6.2,13.49,7.63,21.07,2.77,14.63-.45,27.63-9.66,39-2.73,3.37-6.57,7.02-11.52,10.95-.46.37-1,.64-1.57.79l-6.15,1.65c-.18.05-.37.08-.56.08-8.43,0-37.65-.06-87.64-.19-6.38-.01-10.8-.48-13.27-1.41-4.73-1.78-8.74-4.47-12.04-8.06-6.04-6.59-9.01-10.81-11.44-19.55-1.62-5.81-2.53-12.19-2.72-19.13-.15-5.13.5-9.66,1.93-13.59.32-.89,1.59-3.33,3.81-7.34,5.81-10.46,4.07-18.52,1.6-31.58-2.08-10.98-3.79-19.81-5.12-26.49-3.13-15.71-6-27.44-8.61-35.17-1.88-5.59-3.3-10.82-4.25-15.69-1.01-5.16-2.88-12.49-5.62-22-1.23-4.27-2.44-7.73-3.63-10.39-2.29-5.13-5.59-13.97-9.01-19.97-1.18-2.07-2.92-5.28-5.22-9.62-.55-1.05-1.57-1.78-2.75-1.97-3.31-.52-6.12.24-10.58,1.28-.86.21-1.75.32-2.65.34-19.14.55-29.18.82-30.13.81-8.91-.08-18.14-1.57-32.08-3.07-2.99-.33-6.76-.89-11.29-1.69-6.83-1.21-12.57-5.02-16.49-10.68-3.24-4.69-2.81-11.04-.96-16.24,5.25-14.74,14.93-25.07,29.04-30.99,2.96-1.25,9.73-2.9,10.87-7.22.91-3.48-3.73-6.94-6.6-7.76-7.48-2.14-16.57-3.14-24.66-3.24-3.32-.04-7.19-.38-11.62-1.02-21.17-3.03-42.08-7.19-62.72-12.47-17.64-4.52-35.89-10.72-51.49-20.03-9.09-5.43-19.37-12.72-30.84-21.85-3.2-2.55-22.96-18.53-59.27-47.96-6.86-5.55-15.48-11.78-25.87-18.67-12.41-8.23-25.35-14.05-38.8-17.45-16.75-4.23-27.46-6.94-32.15-8.13-6.41-1.63-18.09-5.6-22.04-10.81Z"/>
</svg>