<?xml version="1.0" encoding="UTF-8"?>
<svg id="Capa_1" data-name="Capa 1" xmlns="http://www.w3.org/2000/svg" viewBox="0 0 594.99 581.36">
  <defs>
    <style>
      .cls-1 {
        fill: none;
        stroke: #000;
        stroke-miterlimit: 10;
        stroke-width: 5px;
      }
    </style>
  </defs>
  <polygon class="cls-1" points="268.85 507.95 290.67 507.95 290.67 411.61 310.67 411.61 310.67 178.86 290.67 178.86 290.67 75.23 268.85 75.23 268.85 178.86 248.85 178.86 248.85 411.58 268.85 411.58 268.85 507.95"/>
  <polygon class="cls-1" points="550.67 436.15 572.49 436.15 572.49 335.24 592.49 335.24 592.49 102.5 572.49 102.5 572.49 3.42 550.67 3.42 550.67 102.5 530.67 102.5 530.67 335.22 550.67 335.22 550.67 436.15"/>
  <polygon class="cls-1" points="407.94 548.86 429.76 548.86 429.76 451.59 449.76 451.59 449.76 218.87 429.76 218.87 429.76 116.14 407.94 116.14 407.94 218.87 387.95 218.87 387.95 451.59 407.94 451.59 407.94 548.86"/>
  <polygon class="cls-1" points="146.13 435.22 167.95 435.22 167.95 335.22 187.95 335.22 187.95 102.5 167.95 102.5 167.95 2.5 146.13 2.5 146.13 102.5 126.13 102.5 126.13 335.22 146.13 335.22 146.13 435.22"/>
  <polygon class="cls-1" points="22.51 578.86 44.33 578.86 44.33 480.68 64.32 480.68 64.32 247.97 44.33 247.97 44.33 146.15 22.51 146.15 22.51 247.97 2.5 247.97 2.5 480.68 22.51 480.68 22.51 578.86"/>
</svg>