<?xml version="1.0" encoding="UTF-8"?>
<svg id="Layer_1" data-name="Layer 1" xmlns="http://www.w3.org/2000/svg" viewBox="0 0 307.86 308.01">
  <defs>
    <style>
      .cls-1 {
        fill: none;
        stroke: #000;
        stroke-miterlimit: 10;
        stroke-width: 5px;
      }
    </style>
  </defs>
  <path class="cls-1" d="M221.83,136.79c-.14-.44-.02-.92.31-1.25,15.14-15.11,23.65-23.6,25.54-25.46,4.27-4.2,7.34-8.46,9.21-12.79,8.28-19.11-1.7-41.48-21.66-47.71-12.34-3.85-26.19-.57-35.12,8.4-7.12,7.15-25.12,25.24-54.01,54.27-15.72,15.8-13.92,40.99,4.31,53.89,3.03,2.14,6.39,3.74,10.09,4.8,1.45.41,1.98,1.58,1.6,3.5-1.76,8.89-5.6,12.65-12.6,19.63-8.12,8.09-12.92,12.87-14.39,14.32-.52.52-1.29.69-1.98.45-1.04-.36-2.2-.92-3.48-1.69-45.43-27.2-53.57-88.47-16.29-126.45,1.76-1.8,17.52-17.71,47.28-47.74,8.19-8.27,14.61-13.92,19.26-16.97,37.36-24.47,86.36-14.75,111.54,21.85,18.62,27.08,18.32,62.67.49,90.04-3.17,4.87-9.62,12.12-19.34,21.74-22.62,22.39-37.27,36.94-43.96,43.63-.5.5-1.08.61-1.75.34-.87-.35-1.37-1.25-1.19-2.12,3.11-14.92,3.18-30.04-.83-44.51-.56-2.04-1.57-5.43-3.03-10.17Z"/>
  <path class="cls-1" d="M86.02,171.21c.14.44.02.92-.31,1.25-15.14,15.11-23.65,23.6-25.54,25.46-4.27,4.2-7.34,8.47-9.21,12.8-8.28,19.11,1.71,41.48,21.67,47.71,12.34,3.85,26.19.56,35.12-8.41,7.12-7.15,25.12-25.24,54.01-54.27,15.72-15.81,13.92-41-4.32-53.9-3.03-2.14-6.39-3.74-10.09-4.8-1.45-.41-1.98-1.58-1.6-3.5,1.76-8.89,5.6-12.65,12.6-19.63,8.12-8.09,12.92-12.87,14.39-14.32.52-.52,1.29-.69,1.98-.45,1.04.36,2.2.92,3.48,1.69,45.44,27.2,53.58,88.47,16.3,126.46-1.76,1.8-17.52,17.71-47.28,47.74-8.19,8.27-14.61,13.92-19.26,16.97-37.36,24.48-86.36,14.76-111.54-21.84-18.63-27.08-18.33-62.67-.5-90.04,3.17-4.87,9.62-12.12,19.34-21.75,22.62-22.39,37.27-36.94,43.96-43.63.5-.5,1.08-.61,1.75-.34.87.35,1.37,1.25,1.19,2.12-3.11,14.92-3.18,30.04.83,44.51.56,2.04,1.57,5.43,3.03,10.17Z"/>
</svg>