<?xml version="1.0" encoding="UTF-8"?>
<svg id="Layer_1" data-name="Layer 1" xmlns="http://www.w3.org/2000/svg" viewBox="0 0 867.14 1018.02">
  <defs>
    <style>
      .cls-1 {
        fill: none;
        stroke: #000;
        stroke-width: 5px;
      }
    </style>
  </defs>
  <path class="cls-1" d="M863.74,478.74c.2-21.73.37-76.71.52-164.96.11-64.23.15-135.5-.08-213.7-.04-12.79-.35-24.38-.94-34.75-.29-5-.75-9.46-1.4-13.38-.69-4.18-2.21-8.35-4.56-12.51-9.71-17.17-23.92-29.26-42.99-34.43-3.72-1.01-8.39-1.65-14.02-1.93-6.21-.3-11.58-.39-16.63-.47-11.59-.17-27.94-.15-49.04.06-17.23.17-33.35.15-47.69.46-.33,0-.59.27-.59.6v42.66c0,.19.15.34.33.34h0l96.25.83c.59,0,1.18.11,1.73.32,18.93,7.17,31.85,20.2,38.77,39.11.1.28.15.57.15.86l.62,334.32c0,.34-.27.61-.61.61h-136.9c-.19,0-.34.16-.34.35h0v54.83c0,.14.12.26.26.26h0c16.49.13,30.38.26,41.67.41,43.9.59,88.9.79,135,.59.27,0,.49-.21.49-.48" vector-effect="non-scaling-stroke"/>
  <path class="cls-1" d="M565.3,78.31l-29.79.64c-.36.01-.67-.26-.7-.62-2.2-24.63-1.8-49.6-.92-74.67.02-.34-.24-.62-.58-.64-.01,0-.02,0-.03,0-67.65.03-122.65.03-165.02,0-1.41,0-3.13-.28-4.68-.28-103.45,0-163.36.07-179.75.24-4.14.04-8.89.06-14.25.05-21.85-.03-52.73.08-92.62.33-10.94.07-18.82.68-23.63,1.84-11.01,2.66-20.75,7.86-29.21,15.6-8.41,7.69-15.62,16.66-18.32,27.64-2.57,10.47-3.16,20.67-3.2,31.84-.05,16.27-.05,27.21.02,32.82,0,.38.32.68.7.68h41.97c.34,0,.62-.28.62-.62,0-.01,0-.02,0-.03-.37-7.27.17-14.25,1.6-20.95.3-1.42.64-2.61,1.03-3.58,1.22-3.06,1.97-5.85,3.41-8.69,3.46-6.85,8.35-12.88,14.66-18.09.61-.51,1.68-1.39,3.22-2.64,1.24-1,2.37-1.8,3.39-2.39,4.29-2.5,10.06-5.48,17.3-8.94.42-.2.88-.31,1.35-.31,18.73.08,41.14.01,67.24-.21,3.31-.03,5.31-.04,6-.04,98.51-.02,148.96-.33,250.2-.15,14.8.03,28.37.53,40.72,1.5,5.13.4,10.18,1.54,15.15,3.41,4.07,1.54,9.76,4.92,12.62,6.51,16.53,9.21,29.58,22.07,39.15,38.59,3.2,5.53,6.12,10.89,8.77,16.09.15.29.44.47.76.47l64.67-.63c.36,0,.64-.29.65-.65.35-27.53.42-58.83.2-93.89-.03-5.3-.26-10.35-.7-15.15-.02-.3-.27-.54-.58-.54-9.89-.21-19.29.43-30.86,1.25-.36.02-.64.32-.63.68l.7,72.88c0,.35-.28.64-.63.65h0" vector-effect="non-scaling-stroke"/>
  <path class="cls-1" d="M794.77,391.71c.09-40.53.11-125.42.04-254.67,0-3.11-.18-12.52-.54-28.25-.09-3.96-.4-8.81-.95-14.54-.46-4.84-1.6-8.29-3.42-10.36-.05-.05-.11-.1-.16-.15l-4.38-3.16s-.1-.06-.17-.08c-3.58-.86-6.7-1.3-9.36-1.31-12.53-.07-25.81-.18-39.82-.31-11.51-.11-37.62-.13-78.31-.08-.33,0-.6-.26-.61-.59-.69-23.13-.93-48.01-.72-74.66,0-.34-.26-.61-.6-.62,0,0,0,0-.01,0l-30.37-.12c-.16,0-.29.13-.29.29v110.34c0,.19.15.35.34.35h88.01c.3,0,.54.23.55.52.15,3.15.23,11.06.23,23.72,0,52.37.1,85.12.31,98.25,0,.17.02,1.5.03,4,0,.94.01,35.55.01,103.82.01,4.27-.23,7.35-.26,11.65,0,1.14-.89,2.09-2.03,2.19-5.62.49-11.13.74-16.53.76-24.59.11-47.93.12-70.02.05-.36,0-.65.29-.65.64v118.81c0,.14.12.26.26.26h0c6,.09,12.91.29,20.74.58,4.2.15,7.56.06,10.09-.27.4-.05.7-.39.7-.8l.34-84.98c0-.4.32-.72.72-.72h136.27c.31,0,.56-.25.56-.56" vector-effect="non-scaling-stroke"/>
  <path class="cls-1" d="M200.39,79.32c-.28,12.75-.37,23.55,1.61,33.69.05.27.29.46.56.46l216.74,1.05c.34,0,.67.06.97.19,6.89,2.83,11.45,4.89,13.69,6.18,9.15,5.29,16.51,12.25,22.1,20.9,4.11,6.37,7.19,14.42,9.37,21.41.11.36.17.73.17,1.1l.82,227.47c0,.28.22.5.49.5h97.14c.49,0,.91.38.95.87.17,2.01.75,3.88.87,6.23.39,7.36.54,14.63.43,21.82-.02,1.67.28,3.53.28,5.34,0,17.06,0,34.17-.01,51.34,0,.32.26.58.58.59,9.94.19,18.97.1,27.09-.25,2.4-.11,3.63-1.45,3.7-4.03.37-13.79.56-22.59.59-26.4,0-1.37.01-2.7.01-4,.05-22.21.07-50.24.04-84.09,0-.5-.41-.9-.91-.9h-95.94c-.31,0-.57-.26-.57-.57h0l-.72-238c0-.12-.03-.23-.08-.33-2.3-4.4-3.95-7.46-4.95-9.19-7.78-13.39-18.74-22.91-32.89-28.56-3.47-1.39-6.96-2.16-10.45-2.33-9.45-.44-18.62-.68-27.49-.72-71.42-.3-145.98-.4-223.67-.29-.28,0-.51.23-.52.52" vector-effect="non-scaling-stroke"/>
  <path class="cls-1" d="M77.08,132.84c-.05,7.66.28,13.18,3.78,19.83,5.09,9.67,12.58,17.07,22.45,22.21,3.74,1.95,7.79,2.95,12.01,3.36,6.21.61,12.2.5,17.99-.32,15.77-2.23,28.11-15.15,33.76-29.4,1.83-4.61,1.93-10.61,1.96-15.15.03-4.55-.01-10.54-1.79-15.18-5.48-14.31-17.67-27.37-33.41-29.79-5.78-.89-11.78-1.06-17.99-.52-4.22.36-8.28,1.31-12.05,3.22-9.93,5.03-17.49,12.34-22.7,21.95-3.58,6.61-3.97,12.12-4.01,19.79" vector-effect="non-scaling-stroke"/>
  <path class="cls-1" d="M83.34,237.53v-5.67c-.01-.91-.33-1.79-.92-2.49-1.49-1.78-3.41-3-5.75-3.65-1.02-.29-1.74-.64-2.17-1.06-.55-.54-1.18-.9-1.9-1.09-.15-.04-.3-.07-.44-.08-.24-.03-.48-.11-.69-.24-10.51-6.4-20.54-17.06-23.36-29.23-.66-2.86-1.08-6.69-1.26-11.48-.49-13.4-.14-27.2-.5-38.43-.01-.24-.21-.43-.45-.44l-42.86-.89c-.28,0-.51.22-.52.51,0,0,0,0,0,.01l.11,93.78c0,.32.24.59.56.63,1.76.25,3.06.37,3.89.36,25.81-.22,51.16-.32,76.04-.31.12,0,.22-.1.22-.23h0" vector-effect="non-scaling-stroke"/>
  <path class="cls-1" d="M435.4,422.26l1-252.82c0-.18-.03-.36-.1-.53-2.59-7.11-6.61-13.12-12.07-18.03-4.7-4.22-9.31-5.75-15.36-6.32-9.95-.95-21.88-1.44-35.79-1.47-34.83-.07-92.23-.08-172.2-.04-.13,0-.24.11-.25.25-.17,4.57-.44,15.48-.79,32.73-.15,7.59-.31,14.8-3.38,21.21-4.72,9.85-11.51,17.95-20.37,24.31-1.91,1.36-4.74,2.94-8.51,4.74-4.91,2.35-5.32,5.67-4.94,10.71.02.29.26.51.55.51h183.03c.2,0,.36.16.36.36v240.3c0,.18.14.33.32.33l185.26.72c.3,0,.54-.23.55-.53h0s1.13-54.66,1.13-54.66c.01-.35-.27-.64-.62-.65,0,0-.01,0-.02,0l-97.07-.39c-.4,0-.73-.33-.73-.73h0" vector-effect="non-scaling-stroke"/>
  <path class="cls-1" d="M559.42,151.65c-3.67-7.46-12.83-10.46-20.46-6.7,0,0,0,0,0,0-7.63,3.76-10.84,12.84-7.17,20.3,3.67,7.46,12.83,10.46,20.46,6.7h0c7.63-3.76,10.84-12.85,7.17-20.3" vector-effect="non-scaling-stroke"/>
  <path class="cls-1" d="M632.74,162.79c.33-5.49.5-10.11.52-13.86.02-3.29-1.53-5.09-4.64-5.38-3.43-.32-5.45-.48-6.04-.49-12.91-.07-24.95-.07-36.13,0-.21,0-.37.17-.37.37v19.83c0,.27.22.49.5.49h0l45.61-.44c.29,0,.53-.24.55-.53" vector-effect="non-scaling-stroke"/>
  <path class="cls-1" d="M672.33,142.81c-8.44-.47-15.67,6.14-16.15,14.77-.48,8.63,5.97,16.01,14.4,16.48h0c8.44.47,15.67-6.14,16.15-14.77.48-8.63-5.97-16.01-14.4-16.48h0" vector-effect="non-scaling-stroke"/>
  <path class="cls-1" d="M561.57,238.7c.16,5.73.6,10.01,1.31,12.84,1.97,7.81,7.26,15.14,13.28,20.76,7.33,6.84,15.89,10.94,25.66,12.3,29.87,4.16,57.13-17.63,56.28-48.55-.85-30.93-29.27-51.18-58.87-45.39-9.68,1.9-17.99,6.47-24.94,13.7-5.7,5.94-10.58,13.55-12.12,21.45-.55,2.86-.75,7.16-.6,12.89" vector-effect="non-scaling-stroke"/>
  <path class="cls-1" d="M134.55,209.74l-20.61.2c-1.35.01-2.44,1.09-2.47,2.44l-.51,24.66c0,.25.2.45.45.46,6.19.07,12.12.03,17.77-.1,3.39-.08,5.17-1.65,5.34-4.7.37-6.69.45-14.27.24-22.76,0-.11-.09-.2-.21-.2h0" vector-effect="non-scaling-stroke"/>
  <path class="cls-1" d="M161.16,510.7l-17.95-.72c-.28-.01-.5-.24-.5-.52l.23-56.86c0-.31-.26-.57-.57-.57h-35.65c-.35,0-.63.28-.63.63,0,0,0,.01,0,.02l1.23,57.18c.01.35-.27.65-.63.66,0,0-.01,0-.02,0l-20.17.02c-.23,0-.41-.18-.41-.41h0v-85.28c0-.32.26-.58.58-.58h61.8c.3,0,.55-.25.55-.55,0,0,0-.01,0-.02-.26-13.09-.57-24.64-.92-34.65-.2-5.7-1.03-10.29-2.48-13.76-6.33-15.16-17.56-25.85-33.7-32.08-5.44-2.09-11.14-3.23-17.09-3.4-12.04-.35-20.21-.52-24.5-.53-43.02-.02-65.48-.02-67.37.01-.26,0-.46.21-.46.47l.75,622.01c0,.61.14,1.22.4,1.77,2.74,5.86,5.87,11.87,9.4,18.03,7.37,12.85,17.71,22.25,31.02,28.2,2.07.92,6.91,2.76,14.52,5.53.37.14.76.21,1.16.21,43.91,0,192.52,0,445.83,0,2.52,0,5.17-.28,7.33-.28,83.61.08,156.4.06,218.35-.05,26.93-.05,50.21-.36,69.82-.94,5.26-.16,9.4-.68,12.43-1.56,22.96-6.66,41.99-27.44,48.48-50.15.95-3.33,1.52-8.04,1.72-14.14.52-16.05.8-32.58.83-49.61,0-2.63,0-4.04,0-4.25.04-34.19.05-78.3.03-132.35,0-.44-.36-.8-.8-.8h0l-331.83.39c-.39,0-.71.33-.7.72h0s.77,35.34.77,35.34c0,.37.29.67.65.71,1.87.19,3.43.29,4.66.28,31.29-.26,66.57.34,96.69.18,55.66-.29,118.86-.34,189.59-.16.42,0,.76.34.76.75,0,0,0,0,0,0-.45,52.29-.67,78.76-.68,79.43-.04,9.86-.2,20.16-.68,31.23-.19,4.4-.85,8.31-2,11.72-4.89,14.61-13.24,26.57-25.05,35.88-7,5.51-15.02,8.69-22.41,11.47-2.48.93-5.64,1.41-9.47,1.42-39.11.15-118.36.31-237.75.46-64.69.09-133.06.09-205.83.06-1.84,0-3.95.26-5.67.26-26.9.03-77.5.28-126.01-.2-6.72-.07-16.88-.09-30.49-.08-8.82,0-24.27-.28-46.34-.85-8.05-.21-15.68-.82-22.89-1.83-2.93-.41-5.93-1.56-9.01-3.46-15.08-9.3-26.69-21.52-32.06-38.56-.15-.46-.23-.95-.23-1.43l-.73-378.98c0-.35.28-.63.62-.63h160.32c.31,0,.56.25.57.57.29,16.61.36,35.34.21,56.2,0,1.92.25,4.09.25,6,.26,106.7.37,165.37.33,176-.02,4.75.21,9.02.68,12.79.14,1.16,1.14,2.04,2.32,2.04l287.44-.34c.36,0,.65-.29.66-.66l.76-36.27c0-.31-.24-.56-.55-.57,0,0,0,0-.01,0h-182.8c-.3,0-.55-.25-.55-.55h0v-490.38c0-.31-.25-.56-.56-.56H3.07c-.27,0-.49.22-.49.5v39.43c0,.18.14.33.32.33h0c22.63-.03,44.11-.01,64.44.04,9.07.03,17.4.2,24.99.52,8.95.39,15.69,1.13,20.2,2.24,12.03,2.95,23.07,8.66,33.11,17.11,18.03,15.18,29.08,33.33,30.22,57.33.47,10.11.71,16.36.72,18.75,0,4.69,0,19.83-.02,45.4,0,.33-.26.6-.59.6h-14.23c-.23.01-.42.2-.42.43v58.09c0,.08-.07.15-.15.15,0,0,0,0-.01,0" vector-effect="non-scaling-stroke"/>
  <path class="cls-1" d="M683.58,305.67c-5.08-6.62-14.7-7.78-21.49-2.57h0c-6.78,5.2-8.16,14.79-3.08,21.42,5.08,6.62,14.7,7.78,21.49,2.57h0c6.78-5.2,8.16-14.79,3.08-21.42" vector-effect="non-scaling-stroke"/>
  <path class="cls-1" d="M558.59,307.33c-4.3-7.1-13.64-9.31-20.86-4.94-7.22,4.37-9.59,13.68-5.29,20.78,4.3,7.1,13.64,9.31,20.86,4.94,7.22-4.37,9.59-13.68,5.29-20.78" vector-effect="non-scaling-stroke"/>
  <path class="cls-1" d="M633.32,311.9c0-.2-.17-.37-.37-.37h-46.5c-.2,0-.37.17-.37.37v18.76c0,.2.17.37.37.37h46.5c.2,0,.37-.17.37-.37v-18.76" vector-effect="non-scaling-stroke"/>
  <path class="cls-1" d="M346.92,730.51h153.86c.17,0,.3-.13.3-.3.01-27.27.09-38.18-.52-54.67-.1-2.53-.92-4.3-2.46-5.31-5.5-3.6-10.8-6.03-15.56-10.24-7.57-6.69-13.04-14.84-16.43-24.47-.55-1.56-.86-2.93-.92-4.11-.32-6.04-.15-11.91.51-17.61.79-6.83,3.14-12.94,7.05-18.34,6.45-8.9,15.18-16.51,25.65-20.12.31-.1,1.02-.45,2.14-1.06.34-.18.55-.53.55-.92v-62.5c0-.18-.14-.32-.32-.32h-153.86c-.18,0-.33.15-.33.33h0v219.3c0,.19.15.34.34.34" vector-effect="non-scaling-stroke"/>
  <path class="cls-1" d="M734.39,729.9l.7-33.64c0-.34-.26-.61-.59-.62,0,0,0,0-.01,0l-67.14-.27c-.63,0-1.14-.51-1.15-1.14-.15-9.65-.32-25.52-.5-47.61-.12-14.44-.19-31.76-.03-52.84.11-15.15.62-31.28,1.52-48.37,0-.08.06-.14.14-.14h0l66.15.26c.52,0,.95-.42.96-.94l.69-33.48c.01-.3-.23-.56-.54-.57,0,0-.01,0-.02,0h-204.14c-.19,0-.35.16-.35.35.05,3.31.86,6.98.98,9.87.69,17.22.93,35.32.72,54.31,0,.43.26.83.66.98l4.03,1.58c.2.08.37.21.49.37.33.51,3.53,2.11,4.97,3.16,25.51,18.55,29.37,54.99,5.63,77.33-3.41,3.21-8.1,6.63-14.06,10.27-1.8,1.1-2.24,1.93-2.31,3.96-.16,4.89-.2,9.67-.13,14.33.19,11.73.57,26.02,1.12,42.89,0,.28.23.5.51.5l201.4-.24c.17,0,.3-.13.3-.3" vector-effect="non-scaling-stroke"/>
  <path class="cls-1" d="M754.76,510.54c-.25,0-.46.2-.46.46,0,.01,0,.02,0,.03l1.89,34.05c.02.24.22.43.46.43h66.97c.25,0,.46.21.46.46h0v68.76c0,.25.21.46.46.46,0,0,0,0,.01,0l39.05-.84c.25,0,.45-.21.45-.46l.41-102.89c0-.25-.21-.46-.46-.46h-109.24" vector-effect="non-scaling-stroke"/>
  <path class="cls-1" d="M698.2,633.42c3.22,11.05,9.68,19.92,19.38,26.62,13.92,9.63,28.74,11.28,44.46,4.97,15.24-6.12,29.17-21.03,29.26-38.21.04-8.98.76-15.65-1.95-22.03-5.43-12.78-16.47-24.69-30.21-28.02-4.75-1.15-10.52-1.74-17.31-1.77-8.07-.04-13.72,1.64-20.26,5.3-11.25,6.3-19.86,15.97-23.25,28.53-2.33,8.67-2.37,16.88-.12,24.61" vector-effect="non-scaling-stroke"/>
  <path class="cls-1" d="M86.27,604.25c4.04,3.09,11.16,2.9,15.75,1.38,2.84-.93,5.23-2.74,7.18-5.42,4.88-6.71,2.46-15.53-3.61-20.69-.09-.07-.18-.14-.27-.21-.09-.07-.18-.13-.27-.2-6.58-4.5-15.72-4.52-20.91,1.96-2.07,2.58-3.19,5.36-3.35,8.35-.25,4.83,1.43,11.75,5.48,14.83" vector-effect="non-scaling-stroke"/>
  <path class="cls-1" d="M155.09,577.3c-7.81,3.09-11.59,12.04-8.44,19.99,3.15,7.95,12.03,11.89,19.84,8.79,7.81-3.09,11.59-12.04,8.44-19.99s-12.03-11.89-19.84-8.79" vector-effect="non-scaling-stroke"/>
  <path class="cls-1" d="M540.73,621.62c-.3-14.31-12.45-25.65-27.15-25.35-14.69.31-26.36,12.15-26.06,26.46.3,14.31,12.45,25.65,27.15,25.35h0c14.69-.31,26.36-12.16,26.06-26.46h0" vector-effect="non-scaling-stroke"/>
  <path class="cls-1" d="M111.71,633.76l-31.85-.66c-.38-.01-.7.29-.71.67,0,0,0,.01,0,.02-.2,43.68-.05,85.09.44,124.24.05,4.49.22,7.8.5,9.91.03.29.27.53.56.56,2.19.26,3.75.37,4.68.34,7.74-.28,16.47-.51,26.2-.7.46-.01.82-.38.82-.84l-.16-133.06c0-.26-.21-.47-.48-.48" vector-effect="non-scaling-stroke"/>
  <path class="cls-1" d="M144.32,633.51c1.24,5.36,1.32,10.85,1.52,16.66.27,8.19.33,17.49.17,27.9-.01.53.41.97.94.98,0,0,.01,0,.02,0l30.29-.04c.48,0,.87-.39.87-.87l-.06-44.37c0-.41-.34-.75-.75-.75l-32.64.04c-.2,0-.37.17-.37.37,0,.03,0,.05,0,.08" vector-effect="non-scaling-stroke"/>
  <path class="cls-1" d="M754.92,695.82c-.42,0-.76.34-.76.77,0,.04,0,.09.01.13.97,5.47,1.5,11.08,1.59,16.83.17,10.37.15,15.87-.06,16.52-.06.19.05.38.22.44.03,0,.06.01.1.01h108.27c.19-.01.35-.17.35-.36l-.11-88.31c0-.16-.13-.29-.29-.3-10.64-.14-22.19.12-34.66.78-1.73.09-3.42.31-5.08.67-.27.06-.46.29-.46.57l.07,51.47c0,.39-.31.7-.7.7h0l-68.49.08" vector-effect="non-scaling-stroke"/>
  <path class="cls-1" d="M292.86,868.74l-.04-34.01c0-.2-.17-.37-.37-.37l-114.44-1.36c-.22,0-.4-.19-.4-.42l.5-126.9c0-.09-.08-.17-.17-.17h0l-30.79.3c-.82,0-1.48.67-1.48,1.48l.2,161.87c0,.28.22.5.5.5l145.75-.18c.41,0,.74-.33.74-.74" vector-effect="non-scaling-stroke"/>
  <path class="cls-1" d="M112.59,795.5c0-.4-.32-.72-.72-.72h-32.04c-.4,0-.72.32-.72.72v135.49c0,.19.08.37.21.51l7.62,7.61c.14.13.32.21.51.21l204.81-.24c.39,0,.7-.31.71-.7l.71-34.38c0-.4-.31-.72-.71-.73,0,0,0,0-.01,0H113.31c-.4,0-.72-.32-.72-.72v-107.05" vector-effect="non-scaling-stroke"/>
  <path class="cls-1" d="M795.47,875.91c-.19-6.2-2.47-11.39-5.38-16.71-5.84-10.67-14.12-18.83-24.85-24.46-4.23-2.23-8.35-3.59-12.35-4.1-5.68-.72-12.28-.98-19.81-.78-3.55.09-7.26.78-11.11,2.06-10.46,3.47-19.28,9.42-26.47,17.86-6.56,7.71-10.59,17.03-12.08,27.96-3.03,22.2,7.13,42.3,25.55,54.6,10.57,7.05,22.15,10.07,34.74,9.04,16.21-1.33,29.44-7.97,39.67-19.94,3.17-3.71,6.57-9.61,10.2-17.7,1.39-3.1,1.96-8.08,1.99-10.71.08-6.59.05-12.29-.1-17.12" vector-effect="non-scaling-stroke"/>
  <path class="cls-1" d="M530.32,834.24c0-.25-.2-.45-.45-.45h-150.84c-.25,0-.45.2-.45.45h0v104.82c0,.25.2.45.45.45h150.84c.25,0,.45-.2.45-.45v-104.82" vector-effect="non-scaling-stroke"/>
  <path class="cls-1" d="M332.61,869.24l-.04-34.78c0-.38-.31-.69-.69-.69h0l-20.08.02c-.3,0-.55.25-.54.56,0,.02,0,.04,0,.06,1.47,12.11,2.07,23.79,1.79,35.04,0,.19.14.34.33.35,0,0,0,0,.01,0l18.69-.02c.29,0,.53-.24.53-.54" vector-effect="non-scaling-stroke"/>
  <path class="cls-1" d="M579.44,833.78c-.19,0-.34.15-.34.34v105.04c0,.19.15.34.34.34l61.46-.6c.19,0,.34-.15.34-.34l.41-104.44c0-.19-.15-.34-.34-.34h-61.87" vector-effect="non-scaling-stroke"/>
  <path class="cls-1" d="M313.74,939.71l17.44-.96c.44-.03.79-.39.8-.83l.7-34.11c0-.3-.23-.54-.52-.55,0,0,0,0-.01,0l-20.24.03c-.38,0-.68.3-.68.68,0,.06,0,.12.02.17.28,1.07.48,2.2.6,3.39,1.03,10.05,1.42,20.55,1.19,31.51,0,.36.28.66.65.67.02,0,.03,0,.05,0" vector-effect="non-scaling-stroke"/>
  <path class="cls-1" d="M765.71,232.7c.19-.01.33-.16.33-.35l-.15-118.22c0-.19-.16-.35-.35-.35h-17.61c-.19,0-.35.16-.35.35v119.21c0,.19.16.35.35.35,0,0,.01,0,.02,0l17.76-.99" vector-effect="non-scaling-stroke"/>
  <path class="cls-1" d="M747.94,272.69c-.18,0-.33.16-.33.34v81.37c0,.19.15.34.34.34,0,0,0,0,.01,0l18.9-.41c.19,0,.34-.16.33-.35h0s-1.75-81.32-1.75-81.32c0-.19-.16-.34-.35-.33h0l-17.15.36" vector-effect="non-scaling-stroke"/>
  <path class="cls-1" d="M251.28,189.6c-.91-7.56-7.95-12.92-15.72-11.98h0c-7.77.94-13.33,7.83-12.41,15.38.91,7.56,7.95,12.92,15.72,11.98h0c7.77-.94,13.33-7.83,12.41-15.38" vector-effect="non-scaling-stroke"/>
  <path class="cls-1" d="M381.57,265.53h19.12c.4,0,.72-.32.72-.71,0,0,0-.01,0-.02l-1.78-82.76c-.01-.46-.33-.85-.77-.96-.95-.24-2.23-.39-3.84-.44-6.91-.26-13.54-.42-19.91-.47-31.12-.26-60.8-.14-89.03.37-.42.01-.76.35-.76.77v18.31c0,.23.18.41.41.41h95.29c.17,0,.3.13.3.3v64.96c0,.13.11.24.25.24" vector-effect="non-scaling-stroke"/>
  <path class="cls-1" d="M400.83,439.53c.18,0,.33-.15.33-.33h0s-1.28-132.52-1.28-132.52c0-.18-.14-.32-.32-.33l-17.9-.37c-.18,0-.33.14-.34.32,0,0,0,0,0,.01v132.89c0,.18.15.33.33.33h19.18" vector-effect="non-scaling-stroke"/>
  <path class="cls-1" d="M240.26,375.53c.18,0,.32-.14.32-.31h0v-68.57c0-.49-.39-.88-.88-.88,0,0-.01,0-.02,0l-15.76.34c-1.11.02-2.02.9-2.07,2.01-.29,6.09-.51,15.06-.66,26.91-.14,10.91-.16,24.32-.06,40.21,0,.16.13.29.29.29h18.84" vector-effect="non-scaling-stroke"/>
  <path class="cls-1" d="M285.32,306.32c0-.29-.23-.52-.52-.52h-18.44c-.29,0-.52.23-.52.52h0v68.7c0,.29.23.52.52.52h18.44c.29,0,.52-.23.52-.52h0v-68.7" vector-effect="non-scaling-stroke"/>
  <path class="cls-1" d="M272.75,413.09c0-7.7-6.25-13.95-13.95-13.95h0c-7.7,0-13.95,6.25-13.95,13.95h0c0,7.7,6.25,13.95,13.95,13.95h0c7.7,0,13.95-6.25,13.95-13.95h0" vector-effect="non-scaling-stroke"/>
  <path class="cls-1" d="M252.57,481.59c.19.12.33.26.43.42.08.13.21.23.4.3,4.99,1.67,9.46,1.29,13.41-1.16.28-.17.54-.38.77-.61l3.37-3.38c.22-.21.39-.46.5-.73,1.95-4.59,1.84-9.02-.31-13.29-3.27-6.48-12.83-10.49-19.19-5.74-3.28,2.45-6.6,6.49-7.17,10.52-.85,6.12,2.18,9.81,6.83,13.57.11.09.26.11.47.06.2-.05.36-.04.49.04" vector-effect="non-scaling-stroke"/>
  <path class="cls-1" d="M272.73,527.44c0-7.7-6.25-13.95-13.95-13.95s-13.95,6.25-13.95,13.95c0,7.7,6.25,13.95,13.95,13.95h0c7.7,0,13.95-6.25,13.95-13.95" vector-effect="non-scaling-stroke"/>
  <path class="cls-1" d="M252.76,571.74c-.67.34-1.57,1.01-2.7,2-5.09,4.48-6.86,10.87-3.63,16.95,1.62,3.04,3.59,5.1,5.91,6.18,4.52,2.1,8.82,2.15,12.89.14,4.08-2.01,6.66-5.45,7.74-10.32.55-2.5.12-5.32-1.31-8.45-2.87-6.26-9.02-8.74-15.67-7.43-1.47.29-2.55.6-3.23.93" vector-effect="non-scaling-stroke"/>
  <path class="cls-1" d="M252.79,627.36c-6.98,3.29-9.95,11.67-6.62,18.73,3.32,7.06,11.68,10.12,18.66,6.84h0c6.98-3.29,9.95-11.67,6.62-18.73-3.32-7.06-11.68-10.12-18.66-6.84" vector-effect="non-scaling-stroke"/>
  <path class="cls-1" d="M254.81,684c-7.42,2.37-11.48,10.44-9.05,18.04h0c2.42,7.59,10.41,11.83,17.83,9.46,0,0,0,0,0,0,7.42-2.37,11.48-10.44,9.05-18.04h0c-2.42-7.59-10.41-11.83-17.83-9.46,0,0,0,0,0,0" vector-effect="non-scaling-stroke"/>
  <path class="cls-1" d="M259.84,737.8c-7.79-.42-14.46,5.66-14.89,13.59t0,0c-.43,7.93,5.54,14.7,13.33,15.12,7.79.42,14.46-5.66,14.89-13.59,0,0,0,0,0,0,.43-7.93-5.54-14.7-13.33-15.12" vector-effect="non-scaling-stroke"/>
  <path class="cls-1" d="M414.05,553.21c-3.83-5.75-11.02-8.18-17.27-4.8-7.63,4.13-11.02,12.74-5.99,20.29,5.03,7.55,14.28,7.74,21.04,2.28,5.52-4.45,6.04-12.03,2.22-17.77" vector-effect="non-scaling-stroke"/>
  <path class="cls-1" d="M416.42,620.61c0-7.77-6.29-14.06-14.06-14.06-7.77,0-14.06,6.29-14.06,14.06h0c0,7.77,6.29,14.06,14.06,14.06h0c7.77,0,14.06-6.29,14.06-14.06" vector-effect="non-scaling-stroke"/>
  <path class="cls-1" d="M391.45,673.3c-4.37,6.14-4.42,14,2.12,18.72,6.1,4.41,15.12,3.97,20.04-2.94,4.93-6.91,2.39-15.57-3.77-19.9-6.6-4.63-14.01-2.03-18.39,4.12" vector-effect="non-scaling-stroke"/>
  <path class="cls-1" d="M598.48,560.92c-.48,5.92,5.58,13.3,11.63,13.62.66.03,2.18-.01,4.57-.13,9.9-.52,14.28-9.39,11.21-18.15-2.73-7.8-10.8-11.9-18.32-7.69-4.61,2.57-8.66,6.92-9.09,12.35" vector-effect="non-scaling-stroke"/>
  <path class="cls-1" d="M627.1,620.35c-.23-7.63-6.8-13.62-14.67-13.39h0c-7.88.23-14.08,6.61-13.85,14.24.23,7.63,6.8,13.62,14.67,13.39,7.88-.23,14.08-6.61,13.85-14.24" vector-effect="non-scaling-stroke"/>
  <path class="cls-1" d="M606.69,693.83c6.31,3.12,13.9,1.6,17.68-4.56,4.64-7.54,3.24-16.86-5.05-20.96-8.28-4.1-16.54.44-19.73,8.7-2.6,6.75.8,13.7,7.1,16.82" vector-effect="non-scaling-stroke"/>
  <path class="cls-1" d="M709.43,884.89c-.21,18.71,15.36,30.51,33.17,29.41,4.81-.29,8.86-1.49,12.17-3.59,11.95-7.6,16.67-18.41,14.15-32.44-1.17-6.51-5.14-10.9-9.77-15.28-6.73-6.37-15.57-9.61-24.44-7.52-8.65,2.05-15.33,6.51-20.04,13.39-3.43,5.02-5.18,10.36-5.24,16.03" vector-effect="non-scaling-stroke"/>
</svg>