<?xml version="1.0" encoding="UTF-8" standalone="no"?>
<!DOCTYPE svg PUBLIC "-//W3C//DTD SVG 1.1//EN" "http://www.w3.org/Graphics/SVG/1.1/DTD/svg11.dtd">
<svg xmlns="http://www.w3.org/2000/svg" version="1.1" viewBox="0.00 0.00 934.00 848.00">
<g stroke-width="2.00" fill="none" stroke-linecap="butt">
<path stroke="#808080" vector-effect="non-scaling-stroke" d="
  M 454.01 836.07
  Q 454.42 836.07 454.81 835.55
  Q 664.94 555.30 875.03 275.24
  A 0.98 0.98 0.0 0 0 874.94 273.96
  Q 801.41 200.43 732.69 131.72
  C 731.37 130.40 730.44 129.93 728.60 129.70
  Q 606.49 114.49 456.13 95.65
  Q 455.51 95.57 453.99 95.57
  Q 452.47 95.57 451.85 95.65
  Q 301.49 114.50 179.38 129.72
  C 177.54 129.95 176.61 130.42 175.29 131.74
  Q 106.57 200.45 33.05 273.98
  A 0.98 0.98 0.0 0 0 32.96 275.26
  Q 243.06 555.31 453.20 835.55
  Q 453.59 836.07 454.01 836.07"
/>
<path stroke="#808080" vector-effect="non-scaling-stroke" d="
  M 260.89 139.19
  Q 260.89 139.37 261.05 139.39
  Q 357.39 151.49 453.75 163.49
  Q 453.81 163.50 454.13 163.50
  Q 454.46 163.50 454.51 163.49
  Q 550.87 151.50 647.22 139.41
  Q 647.38 139.39 647.38 139.21
  Q 647.38 139.03 647.22 139.01
  Q 550.88 126.91 454.51 114.91
  Q 454.46 114.90 454.13 114.90
  Q 453.81 114.90 453.75 114.91
  Q 357.39 126.90 261.05 138.99
  Q 260.89 139.01 260.89 139.19"
/>
<path stroke="#808080" vector-effect="non-scaling-stroke" d="
  M 286.05 294.78
  A 0.36 0.36 0.0 0 0 286.58 294.87
  L 429.52 180.52
  A 0.36 0.36 0.0 0 0 429.34 179.88
  L 200.67 151.34
  A 0.36 0.36 0.0 0 0 200.32 151.88
  L 286.05 294.78"
/>
<path stroke="#808080" vector-effect="non-scaling-stroke" d="
  M 621.42 294.83
  A 0.34 0.34 0.0 0 0 621.92 294.74
  L 707.63 151.88
  A 0.34 0.34 0.0 0 0 707.30 151.37
  L 478.64 179.93
  A 0.34 0.34 0.0 0 0 478.47 180.53
  L 621.42 294.83"
/>
<path stroke="#808080" vector-effect="non-scaling-stroke" d="
  M 179.84 155.27
  A 0.47 0.47 0.0 0 0 179.10 155.18
  L 66.35 267.92
  A 0.47 0.47 0.0 0 0 66.62 268.71
  L 263.91 296.90
  A 0.47 0.47 0.0 0 0 264.38 296.19
  L 179.84 155.27"
/>
<path stroke="#808080" vector-effect="non-scaling-stroke" d="
  M 728.79 155.10
  A 0.37 0.37 0.0 0 0 728.21 155.17
  L 643.44 296.45
  A 0.37 0.37 0.0 0 0 643.81 297.01
  L 841.60 268.74
  A 0.37 0.37 0.0 0 0 841.81 268.12
  L 728.79 155.10"
/>
<path stroke="#808080" vector-effect="non-scaling-stroke" d="
  M 312.02 299.16
  A 0.36 0.36 0.0 0 0 312.24 299.80
  L 595.76 299.80
  A 0.36 0.36 0.0 0 0 595.98 299.16
  L 454.22 185.76
  A 0.36 0.36 0.0 0 0 453.78 185.76
  L 312.02 299.16"
/>
<path stroke="#808080" vector-effect="non-scaling-stroke" d="
  M 424.85 765.50
  A 0.31 0.31 0.0 0 0 425.40 765.22
  L 276.42 318.36
  A 0.31 0.31 0.0 0 0 276.17 318.15
  L 67.67 288.37
  A 0.31 0.31 0.0 0 0 67.38 288.86
  L 424.85 765.50"
/>
<path stroke="#808080" vector-effect="non-scaling-stroke" d="
  M 482.51 765.39
  A 0.32 0.32 0.0 0 0 483.07 765.68
  L 840.64 288.92
  A 0.32 0.32 0.0 0 0 840.34 288.41
  L 631.78 318.21
  A 0.32 0.32 0.0 0 0 631.52 318.43
  L 482.51 765.39"
/>
<path stroke="#808080" vector-effect="non-scaling-stroke" d="
  M 610.76 319.65
  A 0.40 0.40 0.0 0 0 610.39 319.12
  L 297.61 319.12
  A 0.40 0.40 0.0 0 0 297.24 319.65
  L 453.62 788.82
  A 0.40 0.40 0.0 0 0 454.38 788.82
  L 610.76 319.65"
/>
</g>
<path fill="#ffffff" d="
  M 934.00 0.00
  L 934.00 848.00
  L 0.00 848.00
  L 0.00 0.00
  L 934.00 0.00
  Z
  M 454.01 836.07
  Q 454.42 836.07 454.81 835.55
  Q 664.94 555.30 875.03 275.24
  A 0.98 0.98 0.0 0 0 874.94 273.96
  Q 801.41 200.43 732.69 131.72
  C 731.37 130.40 730.44 129.93 728.60 129.70
  Q 606.49 114.49 456.13 95.65
  Q 455.51 95.57 453.99 95.57
  Q 452.47 95.57 451.85 95.65
  Q 301.49 114.50 179.38 129.72
  C 177.54 129.95 176.61 130.42 175.29 131.74
  Q 106.57 200.45 33.05 273.98
  A 0.98 0.98 0.0 0 0 32.96 275.26
  Q 243.06 555.31 453.20 835.55
  Q 453.59 836.07 454.01 836.07
  Z"
/>
<path fill="#000000" d="
  M 453.99 95.57
  Q 455.51 95.57 456.13 95.65
  Q 606.49 114.49 728.60 129.70
  C 730.44 129.93 731.37 130.40 732.69 131.72
  Q 801.41 200.43 874.94 273.96
  A 0.98 0.98 0.0 0 1 875.03 275.24
  Q 664.94 555.30 454.81 835.55
  Q 454.42 836.07 454.01 836.07
  Q 453.59 836.07 453.20 835.55
  Q 243.06 555.31 32.96 275.26
  A 0.98 0.98 0.0 0 1 33.05 273.98
  Q 106.57 200.45 175.29 131.74
  C 176.61 130.42 177.54 129.95 179.38 129.72
  Q 301.49 114.50 451.85 95.65
  Q 452.47 95.57 453.99 95.57
  Z
  M 260.89 139.19
  Q 260.89 139.37 261.05 139.39
  Q 357.39 151.49 453.75 163.49
  Q 453.81 163.50 454.13 163.50
  Q 454.46 163.50 454.51 163.49
  Q 550.87 151.50 647.22 139.41
  Q 647.38 139.39 647.38 139.21
  Q 647.38 139.03 647.22 139.01
  Q 550.88 126.91 454.51 114.91
  Q 454.46 114.90 454.13 114.90
  Q 453.81 114.90 453.75 114.91
  Q 357.39 126.90 261.05 138.99
  Q 260.89 139.01 260.89 139.19
  Z
  M 286.05 294.78
  A 0.36 0.36 0.0 0 0 286.58 294.87
  L 429.52 180.52
  A 0.36 0.36 0.0 0 0 429.34 179.88
  L 200.67 151.34
  A 0.36 0.36 0.0 0 0 200.32 151.88
  L 286.05 294.78
  Z
  M 621.42 294.83
  A 0.34 0.34 0.0 0 0 621.92 294.74
  L 707.63 151.88
  A 0.34 0.34 0.0 0 0 707.30 151.37
  L 478.64 179.93
  A 0.34 0.34 0.0 0 0 478.47 180.53
  L 621.42 294.83
  Z
  M 179.84 155.27
  A 0.47 0.47 0.0 0 0 179.10 155.18
  L 66.35 267.92
  A 0.47 0.47 0.0 0 0 66.62 268.71
  L 263.91 296.90
  A 0.47 0.47 0.0 0 0 264.38 296.19
  L 179.84 155.27
  Z
  M 728.79 155.10
  A 0.37 0.37 0.0 0 0 728.21 155.17
  L 643.44 296.45
  A 0.37 0.37 0.0 0 0 643.81 297.01
  L 841.60 268.74
  A 0.37 0.37 0.0 0 0 841.81 268.12
  L 728.79 155.10
  Z
  M 312.02 299.16
  A 0.36 0.36 0.0 0 0 312.24 299.80
  L 595.76 299.80
  A 0.36 0.36 0.0 0 0 595.98 299.16
  L 454.22 185.76
  A 0.36 0.36 0.0 0 0 453.78 185.76
  L 312.02 299.16
  Z
  M 424.85 765.50
  A 0.31 0.31 0.0 0 0 425.40 765.22
  L 276.42 318.36
  A 0.31 0.31 0.0 0 0 276.17 318.15
  L 67.67 288.37
  A 0.31 0.31 0.0 0 0 67.38 288.86
  L 424.85 765.50
  Z
  M 482.51 765.39
  A 0.32 0.32 0.0 0 0 483.07 765.68
  L 840.64 288.92
  A 0.32 0.32 0.0 0 0 840.34 288.41
  L 631.78 318.21
  A 0.32 0.32 0.0 0 0 631.52 318.43
  L 482.51 765.39
  Z
  M 610.76 319.65
  A 0.40 0.40 0.0 0 0 610.39 319.12
  L 297.61 319.12
  A 0.40 0.40 0.0 0 0 297.24 319.65
  L 453.62 788.82
  A 0.40 0.40 0.0 0 0 454.38 788.82
  L 610.76 319.65
  Z"
/>
<path fill="#ffffff" d="
  M 454.13 114.90
  Q 454.46 114.90 454.51 114.91
  Q 550.88 126.91 647.22 139.01
  Q 647.38 139.03 647.38 139.21
  Q 647.38 139.39 647.22 139.41
  Q 550.87 151.50 454.51 163.49
  Q 454.46 163.50 454.13 163.50
  Q 453.81 163.50 453.75 163.49
  Q 357.39 151.49 261.05 139.39
  Q 260.89 139.37 260.89 139.19
  Q 260.89 139.01 261.05 138.99
  Q 357.39 126.90 453.75 114.91
  Q 453.81 114.90 454.13 114.90
  Z"
/>
<path fill="#ffffff" d="
  M 286.05 294.78
  L 200.32 151.88
  A 0.36 0.36 0.0 0 1 200.67 151.34
  L 429.34 179.88
  A 0.36 0.36 0.0 0 1 429.52 180.52
  L 286.58 294.87
  A 0.36 0.36 0.0 0 1 286.05 294.78
  Z"
/>
<path fill="#ffffff" d="
  M 621.42 294.83
  L 478.47 180.53
  A 0.34 0.34 0.0 0 1 478.64 179.93
  L 707.30 151.37
  A 0.34 0.34 0.0 0 1 707.63 151.88
  L 621.92 294.74
  A 0.34 0.34 0.0 0 1 621.42 294.83
  Z"
/>
<path fill="#ffffff" d="
  M 179.84 155.27
  L 264.38 296.19
  A 0.47 0.47 0.0 0 1 263.91 296.90
  L 66.62 268.71
  A 0.47 0.47 0.0 0 1 66.35 267.92
  L 179.10 155.18
  A 0.47 0.47 0.0 0 1 179.84 155.27
  Z"
/>
<path fill="#ffffff" d="
  M 728.79 155.10
  L 841.81 268.12
  A 0.37 0.37 0.0 0 1 841.60 268.74
  L 643.81 297.01
  A 0.37 0.37 0.0 0 1 643.44 296.45
  L 728.21 155.17
  A 0.37 0.37 0.0 0 1 728.79 155.10
  Z"
/>
<path fill="#ffffff" d="
  M 312.02 299.16
  L 453.78 185.76
  A 0.36 0.36 0.0 0 1 454.22 185.76
  L 595.98 299.16
  A 0.36 0.36 0.0 0 1 595.76 299.80
  L 312.24 299.80
  A 0.36 0.36 0.0 0 1 312.02 299.16
  Z"
/>
<path fill="#ffffff" d="
  M 424.85 765.50
  L 67.38 288.86
  A 0.31 0.31 0.0 0 1 67.67 288.37
  L 276.17 318.15
  A 0.31 0.31 0.0 0 1 276.42 318.36
  L 425.40 765.22
  A 0.31 0.31 0.0 0 1 424.85 765.50
  Z"
/>
<path fill="#ffffff" d="
  M 482.51 765.39
  L 631.52 318.43
  A 0.32 0.32 0.0 0 1 631.78 318.21
  L 840.34 288.41
  A 0.32 0.32 0.0 0 1 840.64 288.92
  L 483.07 765.68
  A 0.32 0.32 0.0 0 1 482.51 765.39
  Z"
/>
<path fill="#ffffff" d="
  M 610.76 319.65
  L 454.38 788.82
  A 0.40 0.40 0.0 0 1 453.62 788.82
  L 297.24 319.65
  A 0.40 0.40 0.0 0 1 297.61 319.12
  L 610.39 319.12
  A 0.40 0.40 0.0 0 1 610.76 319.65
  Z"
/>
</svg>
