<?xml version="1.0" encoding="UTF-8"?>
<svg id="Layer_1" data-name="Layer 1" xmlns="http://www.w3.org/2000/svg" viewBox="0 0 466.52 539.5">
  <defs>
    <style>
      .cls-1 {
        fill: #fff;
        stroke: #000;
        stroke-miterlimit: 10;
        stroke-width: 6px;
      }
    </style>
  </defs>
  <rect class="cls-1" x="140.07" y="3" width="186.34" height="34.64" rx=".8" ry=".8"/>
  <path class="cls-1" d="M51.81,409.48c.25,0,.46.22.46.5v126.09c0,.24-.18.43-.4.43H3.37c-.2,0-.37-.18-.37-.4h0c0-178.62,0-302.34,0-371.14,0-.95.14-1.72.43-2.3.05-.1.12-.19.19-.27,35.08-37.8,66.97-72.19,95.68-103.18.48-.52,1.09-.78,1.83-.78,5.01,0,93.18,0,264.51,0,.57,0,1.24.41,1.99,1.23,33.73,36.48,65.4,70.62,94.99,102.41.6.65.9,1.51.9,2.6-.03,109.3-.03,189.98,0,242.06,0,.25-.18.44-.41.44h-48.52c-.18,0-.33-.16-.33-.36-.01-76.9,0-148.09,0-213.56,0-1.27-.17-1.78-1.04-2.71-24.11-25.97-48.35-52.1-72.72-78.41-.29-.32-.69-.51-1.1-.53-.68-.04-2.15-.06-4.4-.05-49.47.02-117.78.02-204.94,0-1.56,0-2.74.08-3.54.25-.14.03-.27.11-.37.22-36.32,39.17-60.74,65.5-73.27,79-.43.46-.64,1.16-.64,2.11.07,26.72.07,54.82.02,84.31,0,.23-.17.41-.38.41h-31.3c-.24,0-.43.21-.43.47h0v130.77c0,.23.17.42.38.42h31.29Z"/>
  <path class="cls-1" d="M223.16,132.42c.23.01.42.22.42.47l.05,47.77c0,.5.16.98.46,1.37.24.31,1.37,1.55,3.37,3.71,29.02,31.26,44.52,47.95,46.48,50.05.78.83,1.16,1.91,1.15,3.23-.11,11.62-.12,26.34-.03,44.16,0,1.01-1.06,1.97-1.74,2.7-8.18,8.81-16.96,18.28-26.34,28.41-.51.55-1.67.5-2.46.5-46.69,0-93.5,0-140.45,0-.22,0-.41-.19-.41-.43h0v-36.02c0-.27-.21-.5-.46-.5h-31.34c-.18,0-.33-.16-.33-.36,0-36.77,0-62.1-.02-75.99,0-1.12.24-1.73,1.01-2.55,23.04-24.81,43.41-46.77,61.1-65.89.44-.47,1.02-.7,1.76-.7,11.55,0,39.35,0,83.4.01,1.62,0,3.08.03,4.36.08Z"/>
  <path class="cls-1" d="M273.84,314.79c-.07,0-.13-.06-.13-.14,0-.04.01-.07.04-.09,5.87-6.32,12.54-13.51,20.01-21.56.4-.43.6-1.16.6-2.17-.09-25.6-.09-45.8,0-60.6,0-1.06-.33-1.96-1.02-2.7-5.7-6.1-22.38-24.07-50.02-53.89-.07-.08-.12-.18-.14-.29-.21-1.02-.31-2.38-.31-4.06.04-11.94.05-24.18.03-36.72,0-.13.1-.23.21-.23h0c11.21,0,40.46,0,87.74-.01.92,0,1.7.36,2.36,1.07,30.35,32.81,50.54,54.57,60.59,65.3.81.87,1.22,1.94,1.22,3.22-.05,12.69-.07,50.18-.05,112.45,0,.23-.17.42-.39.43,0,0,0,0,0,0h-120.74Z"/>
  <rect class="cls-1" x="39.42" y="298.62" width="44.98" height="90.07" rx=".75" ry=".75"/>
  <rect class="cls-1" x="103.64" y="335.57" width="291.29" height="16.17" rx=".75" ry=".75"/>
  <path class="cls-1" d="M104.08,372.52h88.51c.08,0,.15.07.15.16,0,.04-.02.08-.04.11l-20,21.57c-.15.17-.27.37-.33.59-.13.45-.2,1.11-.19,1.96.05,10.49.05,30.74.02,60.77,0,.68.29,1.34.89,1.99,4.89,5.28,21.48,23.14,49.76,53.59.51.55.76,1.17.77,1.88.05,6.97.04,13.96-.02,20.99,0,.2-.16.37-.35.37H71.83c-.16,0-.28-.14-.28-.31h0v-126.39c0-.18.14-.33.31-.33h31.45c.2,0,.37-.18.37-.4h0v-36.11c0-.25.18-.44.41-.44h0Z"/>
  <path class="cls-1" d="M394.63,372.6c.21.1.34.32.34.56v162.9c0,.24-.18.43-.4.43h-151.39c-.16,0-.28-.14-.28-.31-.02-9.76,0-19.28.04-28.55.01-1.35-.13-1.99-1.04-2.98-23.67-25.51-40.14-43.26-49.41-53.25-1.3-1.4-1.02-2.89-1.02-5.13.04-16.7.04-30.66,0-41.86,0-.77.23-1.4.69-1.89,4.86-5.25,13.92-15.02,27.16-29.31.45-.48,1.13-.73,2.03-.72,9.06,0,66.71.02,172.95.02.12,0,.23.03.34.08Z"/>
  <rect class="cls-1" x="414.24" y="427.95" width="49.26" height="108.55" rx=".81" ry=".81"/>
</svg>