<?xml version="1.0" encoding="UTF-8"?>
<svg id="Layer_1" data-name="Layer 1" xmlns="http://www.w3.org/2000/svg" viewBox="0 0 462.99 463.56">
  <defs>
    <style>
      .cls-1 {
        fill: none;
        stroke: #000;
        stroke-miterlimit: 10;
        stroke-width: 5px;
      }
    </style>
  </defs>
  <path class="cls-1" d="M460.49,231.75c0,4.9-1.63,8.82-4.3,13.45-6.03,10.47-25.1,43.83-57.21,100.06-2.81,4.92-6.6,8.28-11.38,10.08-2.8,1.05-7.91,1.56-15.33,1.51-13.13-.09-45.78-.12-97.96-.1-.58,0-1.11.31-1.39.8-13.3,23.33-30.79,53.96-52.48,91.89-2.77,4.85-6.61,8.24-11.53,10.17-2.88,1.13-8.04,1.6-15.47,1.41-.1,0-34.44,0-103.01.04-7.44,0-12.48-.52-15.12-1.55-4.74-1.86-8.52-5.26-11.34-10.19-22.23-38.89-41.7-72.94-58.39-102.15-2.61-4.59-3.55-9.44-2.82-14.56.4-2.83,2.43-7.4,6.1-13.73,7.79-13.47,24.26-42.26,49.4-86.37.09-.16.13-.4.13-.71s-.04-.56-.13-.72c-25.15-44.11-41.62-72.89-49.42-86.36-3.67-6.33-5.7-10.9-6.1-13.73-.73-5.12.21-9.97,2.82-14.56C22.25,87.22,41.7,53.16,63.93,14.27c2.81-4.93,6.59-8.33,11.33-10.19,2.64-1.03,7.68-1.55,15.12-1.55,68.57.01,102.91.02,103.01,0,7.43-.19,12.59.28,15.47,1.41,4.92,1.93,8.76,5.32,11.53,10.17,21.7,37.93,39.2,68.55,52.5,91.88.28.49.81.8,1.39.8,52.18,0,84.83-.03,97.96-.12,7.42-.05,12.53.45,15.33,1.5,4.78,1.8,8.58,5.16,11.39,10.08,32.11,56.23,51.19,89.58,57.23,100.05,2.67,4.62,4.3,8.55,4.3,13.44ZM237.05,127.62c0-.25-.05-.47-.15-.65-13.03-22.84-28.69-50.25-46.98-82.23-.14-.26-.42-.41-.71-.41-7.89-.03-23.56-.05-46.99-.05s-39.1.02-47,.05c-.29,0-.56.16-.7.41-18.29,31.97-33.96,59.38-46.99,82.22-.1.19-.15.41-.15.66,0,.27.05.5.15.69,13.03,22.84,28.69,50.25,46.98,82.22.14.26.42.41.71.41,7.89.03,23.56.05,46.99.06,23.43,0,39.1-.02,47-.05.29,0,.56-.16.7-.42,18.29-31.97,33.96-59.38,46.99-82.22.1-.18.15-.41.15-.69ZM415.54,231.77c0-.25-.05-.47-.15-.66-13.03-22.83-28.68-50.22-46.95-82.17-.14-.26-.42-.41-.71-.41-7.89-.03-23.54-.05-46.96-.05s-39.08.02-46.97.05c-.29,0-.56.16-.7.41-18.28,31.95-33.93,59.34-46.95,82.17-.11.18-.16.4-.16.66,0,.27.05.5.16.68,13.02,22.83,28.67,50.22,46.95,82.17.14.26.41.42.7.42,7.89.03,23.55.05,46.97.05,23.42,0,39.07-.02,46.96-.05.29,0,.57-.15.71-.41,18.27-31.96,33.92-59.35,46.95-82.17.1-.19.15-.42.15-.69ZM47.39,335.93c0,.26.05.48.16.66,13.03,22.84,28.68,50.25,46.97,82.22.14.25.41.41.7.41,7.9.03,23.57.05,47,.05s39.09-.02,46.99-.05c.29,0,.56-.16.7-.41,18.29-31.97,33.95-59.38,46.98-82.21.11-.19.16-.41.16-.66,0-.27-.05-.5-.16-.69-13.03-22.84-28.69-50.25-46.98-82.22-.14-.25-.41-.41-.7-.41-7.89-.03-23.56-.05-46.99-.05s-39.1.02-46.99.05c-.29,0-.57.15-.71.41-18.29,31.97-33.94,59.38-46.97,82.22-.11.18-.16.41-.16.68Z"/>
</svg>