<?xml version="1.0" encoding="UTF-8"?>
<svg id="Layer_1" data-name="Layer 1" xmlns="http://www.w3.org/2000/svg" viewBox="0 0 682 754">
  <defs>
    <style>
      .cls-1 {
        fill: #fff;
      }

      .cls-2 {
        stroke: #000;
        stroke-miterlimit: 10;
        stroke-width: 5px;
      }

      .cls-2, .cls-3 {
        fill: none;
      }

      .cls-3 {
        stroke: gray;
        stroke-width: 2px;
      }
    </style>
  </defs>
  <path class="cls-3" d="M299.94,368.87c.55.08.92.59.84,1.14-.01.08-.03.15-.06.23-.69,1.75-1.7,3.81-3.03,6.18-55.26,98.89-116.32,211.92-183.19,339.07-1.22,2.32-2.88,5.65-4.99,10-1.66,3.43-1.61,6.64.15,9.62,2.26,3.83,7.97,6.44,12.5,4.73,1.5-.57,3-1.63,4.49-3.19,5.1-5.33,9.79-10.4,14.06-15.19,101.03-113.23,235.6-264.07,403.69-452.54,14.19-15.9,29.75-33.63,42.35-48.67,3.39-4.05,3.86-8.11,1.41-12.19-2.38-3.96-6.61-4.84-11.16-4.86-47.23-.16-91.48-.09-132.74.2-1.91.01-3.66-.16-5.25-.51-.9-.2-1.46-1.08-1.27-1.97,0-.01,0-.02,0-.03.33-1.37.74-2.51,1.22-3.42,8.07-15.37,35.67-67.94,82.8-157.72,2.33-4.45,3.84-10.57-1.42-13.57-2.78-1.59-6.5-1.48-10.29-1.5-11.91-.06-54.32.04-127.22.29-6.27.02-16.96-.37-25.34-.37-4.69,0-8.07,2.09-10.13,6.26-49.69,100.67-102.23,206.29-157.63,316.87-2.9,5.8-7.28,15.09.4,19,2.94,1.5,6.75,1.58,10.36,1.55,33.61-.27,66.36-.12,98.25.43.13,0,.52.06,1.19.16" vector-effect="non-scaling-stroke"/>
  <path class="cls-1" d="M682,0v754H0V0h682ZM299.94,368.87c.55.08.92.59.84,1.14-.01.08-.03.15-.06.23-.69,1.75-1.7,3.81-3.03,6.18-55.26,98.89-116.32,211.92-183.19,339.07-1.22,2.32-2.88,5.65-4.99,10-1.66,3.43-1.61,6.64.15,9.62,2.26,3.83,7.97,6.44,12.5,4.73,1.5-.57,3-1.63,4.49-3.19,5.1-5.33,9.79-10.4,14.06-15.19,101.03-113.23,235.6-264.07,403.69-452.54,14.19-15.9,29.75-33.63,42.35-48.67,3.39-4.05,3.86-8.11,1.41-12.19-2.38-3.96-6.61-4.84-11.16-4.86-47.23-.16-91.48-.09-132.74.2-1.91.01-3.66-.16-5.25-.51-.9-.2-1.46-1.08-1.27-1.97,0-.01,0-.02,0-.03.33-1.37.74-2.51,1.22-3.42,8.07-15.37,35.67-67.94,82.8-157.72,2.33-4.45,3.84-10.57-1.42-13.57-2.78-1.59-6.5-1.48-10.29-1.5-11.91-.06-54.32.04-127.22.29-6.27.02-16.96-.37-25.34-.37-4.69,0-8.07,2.09-10.13,6.26-49.69,100.67-102.23,206.29-157.63,316.87-2.9,5.8-7.28,15.09.4,19,2.94,1.5,6.75,1.58,10.36,1.55,33.61-.27,66.36-.12,98.25.43.13,0,.52.06,1.19.16Z"/>
  <path class="cls-2" d="M299.94,368.87c-.67-.1-1.06-.15-1.19-.16-31.89-.55-64.64-.7-98.25-.43-3.61.03-7.42-.05-10.36-1.55-7.68-3.91-3.3-13.2-.4-19,55.4-110.58,107.94-216.2,157.63-316.87,2.06-4.17,5.44-6.26,10.13-6.26,8.38,0,19.07.39,25.34.37,72.9-.25,115.31-.35,127.22-.29,3.79.02,7.51-.09,10.29,1.5,5.26,3,3.75,9.12,1.42,13.57-47.13,89.78-74.73,142.35-82.8,157.72-.48.91-.89,2.05-1.22,3.42-.21.89.34,1.78,1.23,1.99.01,0,.02,0,.03,0,1.59.35,3.34.52,5.25.51,41.26-.29,85.51-.36,132.74-.2,4.55.02,8.78.9,11.16,4.86,2.45,4.08,1.98,8.14-1.41,12.19-12.6,15.04-28.16,32.77-42.35,48.67-168.09,188.47-302.66,339.31-403.69,452.54-4.27,4.79-8.96,9.86-14.06,15.19-1.49,1.56-2.99,2.62-4.49,3.19-4.53,1.71-10.24-.9-12.5-4.73-1.76-2.98-1.81-6.19-.15-9.62,2.11-4.35,3.77-7.68,4.99-10,66.87-127.15,127.93-240.18,183.19-339.07,1.33-2.37,2.34-4.43,3.03-6.18.21-.52-.04-1.1-.56-1.31-.07-.03-.15-.05-.22-.06Z"/>
</svg>