<?xml version="1.0" encoding="UTF-8"?>
<svg id="Layer_1" data-name="Layer 1" xmlns="http://www.w3.org/2000/svg" viewBox="0 0 738.58 503.88">
  <defs>
    <style>
      .cls-1 {
        fill: none;
        stroke: #000;
        stroke-miterlimit: 10;
        stroke-width: 5px;
      }
    </style>
  </defs>
  <path class="cls-1" d="M245.4,2.61l20.83-.02h20.9s20.49.04,20.49.04c18.47.78,32.33,12.38,37.2,30.3.79,2.89,1.14,8.39,1.07,16.51-.17,19.05-.15,36.48.06,52.28,0,.42.34.75.76.75h45.33c.33,0,.59-.26.6-.59l.15-15.53v-21.47l.02-22.27.79-9.17c3.7-14.32,12.48-24.01,26.35-29.06,5.15-1.33,10-1.93,14.54-1.78l20.76-.03h42.14c8.45-.14,15.59.15,22.93,3.44,15.04,6.73,23.41,21.18,23.19,37.78l.04,15.76c0,.38.31.69.69.69h0l17.23.02c7.82-.16,13.98-.2,20.64,3.1,7.05,3.82,11.87,9.31,14.44,16.46,2.44,6.77,1.68,14.64,1.75,21.89,0,.42.34.75.76.75l44.07.04,22.44-.11,19.35.1,22.69-.06c4.58,0,9.15,0,13.72.03,1.99,0,4.05.37,6.2,1.08l4.88,3.26c2.03,2.55,3.14,5.18,3.32,7.88.34,5,.43,9.86.28,14.59l.03,17.88-.03,23.46.02,18.24-.03,23.76.03,18.93-.03,23.12.02,18.48-.03,23.19.06,18.83-.03,22.86v18.59s.03,24.55.03,24.55c.1,6.15.25,11.98-4.52,16.56l-4.97,3.11-20.55.43-20.22.08h-20.27s-22.55.01-22.55.01l-19.89.02-24.28-.03c-.24,0-.43.2-.44.44-.02,5.72.52,13.57-.87,19.1-3.19,12.68-13.76,21.89-26.91,22.61-2.17.12-6.04.14-11.61.07l-14.52-.04c-.49,0-.88.39-.88.88h0l-.06,19.57c-1.42,21.83-18.47,37.17-40.23,37.28-26.19.14-48.67.17-67.44.09-9.7-.04-16.96-1.3-24.68-6.18-9.31-5.89-15.18-14.44-17.6-25.65-.66-3.03-.98-7.65-.96-13.84.03-12.58.11-25.19.24-37.83l-.2-16.84c0-.36-.3-.65-.66-.65h0l-21.08.05-24.21-.04c-.4,0-.73.33-.74.73-.34,23.8.28,50.37-.18,63.08-.24,6.51-2.23,12.77-5.98,18.76-2.76,4.28-6.19,7.92-10.3,10.93-7.03,4.94-14.24,7.42-21.65,7.45-20.91.07-41.82.08-62.73.04-10.47-.03-17.62-.56-21.43-1.61-9.42-2.61-17.04-8.34-22.85-17.19-3.07-5.17-4.93-10.82-5.6-16.95l-.1-21.07c0-.54-.44-.98-.98-.98l-13.77-.02c-5.51.29-11.28.1-17.32-.57l-8.17-3.35c-9.12-5.81-13.9-14.12-14.35-24.94-.18-4.32-.27-8.61-.27-12.88,0-.24-.19-.43-.43-.43h0l-23.55.04-18.8-.02h-42.03s-21.03-.07-21.03-.07l-22.04-.37-4.26-2.34c-6.43-5.07-5.65-12.67-5.55-20l.03-60.61.04-23.58-.02-61.31v-22.54s-.03-17.15-.03-17.15v-24.97s-.03-18.45-.03-18.45v-30.38c-.2-4.13.57-7.84,2.34-11.14,2.15-2.82,5.03-4.74,8.63-5.75l21.68-.24,20.16.05,23.76-.13,17.78.12,21.72-.11,20.98.06c.38,0,.69-.31.7-.69.05-6.55-.56-14.02,1.14-20.06,1.84-6.54,5.64-11.91,11.39-16.1,2.92-2.05,6.05-3.52,9.39-4.41,6.36-1.49,13.4-.92,19.92-.95l12.22-.02c.37,0,.66-.29.67-.66l.11-13.68c-.57-8.37,1.11-16.2,5.04-23.51l3.56-5.2c6.91-8.3,15.43-13.04,25.58-14.22,3.94-.46,9.29-.58,16.06-.36ZM222.6,44.37v19.11s0,22.43,0,22.43l.02,19.5v22.05s0,20.31,0,20.31l-.02,21.66.02,20.27-.02,22.27.02,19.55v22.43s0,19.8,0,19.8l-.02,21.71.02,20.08v21.15s0,20.56,0,20.56v22.21s0,19.91,0,19.91v22.09s0,19.75,0,19.75c0,5.5,0,11,.02,16.49.02,4.82.37,7.95,1.05,9.38,3.12,6.62,9.18,6.7,15.88,6.7,7.52.01,29.2.02,65.04.02,5.85,0,9.87-1.98,12.05-5.93,1.09-1.98,1.67-5.68,1.72-11.11.05-5.55.04-11.11-.03-16.66l.03-16.13v-67.41s-.08-15.74-.08-15.74l.02-27.08v-43.57s.02-15.16.02-15.16v-25.58s-.03-14.47-.03-14.47l.03-26.86v-16.99s.01-26.47.01-26.47l-.07-13.96.04-26.08-.02-16.04.04-26.69-.09-15.02c1.08-9.45-2.71-17.58-13.77-16.62l-16.2-.07h-23.77s-17.52-.02-17.52-.02c-3.61-.07-7.25-.08-10.92-.05-9.34.08-13.83,4.84-13.48,14.28ZM431.26,30.16c-7.2.99-10.87,5.23-11.01,12.7l-.04,22.22.08,20.03-.04,20.86v20.91s-.05,21.95-.05,21.95l.06,20.21-.02,21.39v62.47s.02,21.57.02,21.57l-.02,20.43-.03,21.08.03,20.54v22.25l-.02,20.18v20.79s.04,19.95.04,19.95v23.26s.18,20.91.18,20.91c1.21,7.33,6.99,10.08,13.88,9.98,9.59-.14,31.14-.14,64.65.01,5.21.02,8.87-.5,10.98-1.56,3.36-1.69,5.36-4.67,5.99-8.92l.1-19.45.06-21.69-.1-20.37.09-22.26-.05-20.72.08-20.25-.12-19.7.09-22.82-.1-20.28.07-20.44-.06-20.51.11-22.83-.09-19.93.09-21.7-.08-21.3.02-22.47-.06-17.78.11-23.2-.08-20.23v-21.79c.27-7.27-2.87-11.68-9.44-13.24-1.79-.43-4.69-.51-8.69-.24l-23.9-.03h-18.11s-24.62.02-24.62.02ZM167.9,105.69v21.74s.04,17.6.04,17.6c0,.79.63,1.43,1.42,1.44l12.79.1h12.31c.34-.01.62-.29.63-.64l.02-16.49v-25.27s-.06-15.88-.06-15.88c0-.29-.24-.53-.53-.53h-13.29c-3.83-.02-7.51-.08-11.03-.19-1.53-.05-2.31.67-2.32,2.15-.04,5.35-.03,10.67.02,15.97ZM543.61,105.94l-.12,21.66.06,18.23c0,.43.34.77.77.77h0c13.72,0,20.97,0,21.76-.02,1.87-.05,3.15-.2,3.84-.45.44-.16.74-.57.75-1.04.15-16.32.17-34.7.06-55.15,0-1.44-.78-2.16-2.33-2.16-3.5-.01-11.67-.02-24.5-.03-.16,0-.29.13-.29.29v17.9ZM79.38,373.93l17.52-.11,22.9.13,20.16-.11c.22,0,.4-.18.4-.41l.04-12.71c-.6-14.2,8.23-25.84,21.73-29.79,6.07-1.47,12.6-1.31,19.45-1.14h12.72c.47-.01.85-.39.85-.86v-18.99c0-.67-.55-1.22-1.22-1.22,0,0-.01,0-.02,0-8.52.17-16.88.16-25.08-.03-1.53-.03-3.88-.38-7.04-1.05-7.83-2.36-13.78-7.12-17.86-14.29-2.38-4.75-3.58-10.73-3.59-17.93-.02-16-.07-32-.14-48-.02-4.68.27-8,.87-9.97,3.57-11.78,11.33-19.1,23.26-21.95l30.07-.41c.42,0,.75-.34.75-.76v-19.74c0-.33-.27-.59-.6-.59,0,0,0,0-.01,0-7.57.13-15.06.14-22.46.02-7.5-.13-13.83-1.9-19-5.31-6.05-4.38-9.97-10.02-11.75-16.93-1.65-6.37-.98-14.24-1.04-21.14,0-.35-.29-.64-.64-.64h-21.6s-20.19,0-20.19,0h-42.51s-24.55-.03-24.55-.03c-.25,0-.46.2-.47.45-.25,9.13-.31,17.64-.18,25.53.14,8.26-.08,13.68-.19,22.2-.13,9.84.53,21.47.22,31.09-.31,9.66-.32,18.89-.03,27.68.28,8.61-.02,14.77-.24,24.99-.04,1.82.04,7.66.25,17.51.23,11.29-.36,21.36-.14,33.34.18,9.6.26,14.88.23,15.84-.18,7.52-.43,20.98-.17,32.14.09,3.69.16,7.61.21,11.77,0,.61.5,1.1,1.11,1.11l47.98.31ZM369.93,372.96l22.15.12c.29,0,.53-.22.54-.51l.29-7.59-.1-28.41.04-19.33-.04-22.07.04-18.15v-25.42s-.02-18.63-.02-18.63v-25.38s-.07-16.62-.07-16.62l-.03-60.11c0-.51-.41-.92-.92-.92,0,0,0,0-.01,0l-21.75.06h-20.7l-2.54-.04c-.54-.01-.98.41-.99.95,0,0,0,.01,0,.02.01,145.61.02,221.44.02,227.49,0,3.99.13,8.63.4,13.9.02.28.24.49.52.49l23.17.15ZM580.59,171.52c-6.71,2.57-12.84,2.8-20.23,2.57l-16.27-.11c-.33,0-.59.26-.59.59h0v19.47c0,.47.38.86.85.87,3.64.06,9.32.08,17.04.06,7.86-.02,13.44.53,16.74,1.66,11.9,4.07,19.85,14.68,20.12,27.28.4,18.96-.07,34.84.17,54.5.16,13.35-7.93,24.52-20.4,28.94-3.22,1.15-8.55,1.64-16,1.48-2.7-.05-8.64-.03-17.83.07-.32,0-.58.27-.59.59l-.03,6.5.04,13.08c0,.35.28.63.63.64l15.11.07c7.85-.08,14.73-.24,21.74,2.78,3.37,1.51,6.36,3.61,8.95,6.32,5.57,6.11,8.4,13.35,8.48,21.73.05,4.19.02,8.3-.07,12.34-.01.48.37.88.86.89,0,0,.01,0,.02,0l26.06.07,17.45-.04,22.73.03,19.11-.08,23.33.04c.2,0,.36-.16.37-.36l.14-16.07.07-18.93v-22.14l-.02-20.02.02-22.32-.03-19.22.02-22.96-.02-19.25.02-22.22-.02-19.7.02-22.95v-17.04c-.01-.4-.34-.73-.74-.73l-22.12.04h-21.43s-20.06,0-20.06,0h-23.2l-18.47-.03-3.77.09c-.31.01-.56.26-.56.57-.05,7.3.8,15.47-1.22,22.24-2.53,8.47-8,14.68-16.42,18.65ZM195.15,223.87c0-.72-.59-1.31-1.31-1.31h-24.62c-.72,0-1.31.59-1.31,1.31v56.12c0,.72.59,1.31,1.31,1.31h24.62c.72,0,1.31-.59,1.31-1.31v-56.12ZM543.55,232.72l-.02,21.18.02,26.31c0,.57.45,1.03,1.02,1.04,10.18.16,18.12.16,23.81,0,1.75-.05,2.56-.9,2.42-2.57-.07-.79-.1-1.31-.1-1.54.11-28.05.13-45.83.06-53.33-.01-.7-.58-1.26-1.27-1.26h-25.43c-.29,0-.53.23-.53.52l.02,9.65ZM167.89,378.93v21.01s.01,14.53.01,14.53c0,.83.67,1.5,1.5,1.51l12.43.14,12.41-.05c.5,0,.91-.41.91-.91h0v-57c0-.5-.41-.9-.91-.9l-13.23.02-11.71.17c-.77.01-1.39.64-1.39,1.41l-.02,20.07ZM543.52,380.06v35.19c.01.46.39.84.85.84h24.92c.54-.01,1.01-.37,1.16-.88.23-.79.35-1.72.34-2.79-.07-18.52-.07-36.12.02-52.79.01-1.43-.9-2.18-2.73-2.24-2.65-.09-5.49-.13-8.52-.12l-15.36-.02c-.37,0-.67.3-.67.68h0v22.13Z"/>
</svg>