<?xml version="1.0" standalone="no"?>
<svg xmlns="http://www.w3.org/2000/svg" height="1920pt" preserveAspectRatio="xMidYMid meet" viewBox="0 0 1913 1920" width="1913pt">
  <path d="m9244 18784c-175-219-324-404-329-411-8-11-97 67-393 342-211 195-387 355-390 355-4 0-124-203-267-450-180-313-263-449-273-445-14 5-183 118-607 406-137 93-252 166-256 161-3-4-91-221-194-482-102-261-188-477-190-478-2-2-216 98-476 222-259 125-473 225-474 224-2-2-54-228-116-503s-115-503-119-508c-3-4-225 60-493 143-268 82-493 150-500 150-9 0-22-131-50-517-21-284-39-519-41-521-3-3-156 19-889 129-76 11-141 19-143 16-3-3 13-231 35-508 23-277 41-512 41-522 0-16-32-17-525-17-414 0-525-3-525-12 1-7 52-238 114-513 63-275 113-501 112-502-1-2-234-37-517-79s-515-77-517-79c-1-1 83-219 188-484 104-265 190-485 190-489s-220-74-488-156-492-152-498-155c-8-4 85-173 247-455 143-247 258-453 257-458-2-5-211-109-465-231s-464-225-467-228c-3-2 141-189 320-414 178-224 321-412 317-416-7-5-223-153-846-574-15-11 27-54 369-370l386-358-39-37c-21-21-166-156-323-300-157-145-313-290-347-322l-61-58 106-73c59-41 249-170 422-287s321-218 327-224c10-9-62-105-312-420-179-225-324-411-322-413 2-1 213-104 468-227 317-153 464-228 463-238-1-9-115-213-254-454-139-242-254-441-256-445-1-3 222-74 497-159 274-85 499-157 499-161 0-3-86-223-191-489-104-265-189-483-187-484 2-2 228-36 503-76s507-76 516-79c14-5 2-70-97-506-62-275-112-504-110-510 2-7 186-10 525-9 361 0 521-3 521-10 1-6-16-239-36-518-21-279-35-510-32-514 4-3 237 29 518 71 282 42 513 75 515 73 2-3 76-1012 75-1030 0-5 6-8 14-8 7 0 233 68 501 150 269 83 490 149 492 146 2-2 55-229 118-506 62-276 115-504 118-506 2-2 216 98 476 222 259 125 473 225 474 223 2-2 88-221 193-486 104-266 194-481 199-479 6 2 200 132 432 290 232 157 425 286 430 286 4-1 124-203 267-450 142-248 261-450 265-450s179 160 389 355l383 355 315-398c174-218 321-403 328-410 11-11 34 13 127 130 164 206 532 672 535 676 1 2 175-157 385-352 211-196 386-356 390-356s125 204 269 454l262 455 46-34c85-60 807-547 817-551 6-2 95 213 199 479 105 265 191 484 193 486 1 2 215-98 474-223 260-124 474-224 476-222 3 2 56 230 118 506 63 277 116 504 118 506 2 3 223-63 492-146 268-82 494-150 501-150 8 0 14 3 14 8-1 18 73 1027 75 1030 2 2 233-31 515-73 281-42 514-74 518-71 3 4-11 235-32 514-20 279-37 512-36 518 0 7 162 10 521 10 339-1 523 2 525 9 2 6-48 235-110 510-111 491-113 500-92 507 11 4 244 39 516 79s496 73 498 74c2 2-83 222-189 489-105 268-190 488-188 490s227 72 499 156 496 153 497 154-115 204-258 451c-142 248-259 454-259 458 0 5 51 32 113 62 212 100 820 395 824 399 2 2-103 138-234 302-434 545-414 518-400 530 6 6 174 121 372 254 198 134 388 263 422 287l62 44-347 321c-191 176-364 337-385 358l-39 37 386 358c213 197 385 359 384 360-2 1-194 132-428 290s-429 291-433 295c-4 3 139 191 317 416 179 224 322 411 318 415s-214 106-467 228-461 225-463 229c-1 5 114 211 257 458 164 284 255 451 247 455-6 3-229 73-496 154-267 82-487 150-489 152s82 222 188 489c105 268 190 488 189 490-2 1-235 37-518 79s-515 77-516 78 49 229 112 507c62 278 114 508 114 513 0 4-236 7-525 7-413 0-525 3-525 13-1 6 16 240 36 519 21 279 35 510 32 514-3 3-236-29-518-71-281-42-513-75-514-73-3 3-77 1011-76 1031 0 4-6 7-13 7s-232-68-501-150c-269-83-490-149-493-146-2 2-55 230-118 506-62 276-115 504-118 506-2 2-214-97-472-221-257-124-471-225-474-225s-91 218-195 483-190 484-192 486c-2 3-376-248-731-490l-142-97-262 454c-144 250-264 454-268 454-3 0-178-160-389-356s-385-354-386-352c-13 18-623 788-636 801-16 17-33-2-336-379zm686-884c364-17 698-52 1045-111 2089-355 3970-1508 5255-3224 885-1181 1434-2563 1599-4025 41-355 46-467 46-950s-5-595-46-950c-240-2124-1286-4057-2949-5450-704-589-1549-1078-2431-1406-1690-628-3587-682-5324-150-1165 357-2239 969-3150 1797-176 160-515 504-664 674-1104 1262-1796 2798-2000 4445-42 333-53 512-58 912-6 419 3 642 37 984 137 1353 608 2653 1368 3779 611 905 1391 1683 2290 2284 1474 984 3220 1472 4982 1391zm-411-221c-87-13-168-74-216-161-28-51-25-199 4-254 87-164 309-204 448-82 72 63 90 106 90 213 0 74-4 97-23 132-60 113-176 171-303 152zm-244-815c-268-16-404-27-555-45-2815-327-5197-2279-6079-4983-322-987-427-2053-305-3101 228-1963 1264-3762 2857-4962 719-541 1516-938 2387-1188 848-244 1811-329 2710-239 2826 281 5248 2205 6165 4896 264 775 386 1513 386 2343 0 340-9 506-41 808-152 1406-734 2766-1656 3867-1064 1272-2538 2147-4159 2469-289 57-563 95-885 121-129 11-718 21-825 14zm620-504c970-52 1854-284 2710-712 857-430 1628-1052 2235-1803 762-944 1264-2094 1434-3285 54-375 61-492 61-980-1-492-11-643-71-1030-127-822-412-1631-828-2348-768-1325-1939-2338-3371-2914-323-130-780-267-1126-338-496-100-844-134-1374-134-376 0-519 7-825 45-1068 131-2082 511-2975 1116-1248 846-2181 2085-2648 3518-152 467-246 921-304 1470-14 137-18 258-18 625 0 487 7 591 61 970 185 1292 742 2499 1618 3505 122 139 416 435 571 574 803 718 1761 1234 2805 1510 647 171 1378 246 2045 211zm-4318 266c-126-45-201-148-200-276 0-110 62-208 161-257 150-73 344 2 396 155 21 59 20 146-1 208-24 70-103 147-173 168-65 19-132 20-183 2zm7796-4c-134-48-200-151-191-297 10-155 122-257 283-259 116-1 201 51 258 158 18 33 22 58 22 131 0 80-3 95-27 135-35 60-73 94-132 121-68 30-148 34-213 11zm-10679-2861c-137-62-207-222-158-363 61-181 315-248 462-122 95 81 127 240 69 350-32 63-94 118-155 138-63 22-167 20-218-3zm13520 3c-58-21-120-77-151-138-39-75-39-178 0-258 54-110 152-165 277-156 187 14 308 184 256 361-23 79-70 135-145 174-53 28-73 33-129 32-37 0-86-7-108-15zm-14535-3897c-88-25-175-110-199-196-36-131 28-273 154-339 43-22 63-26 126-26 89 1 134 18 195 75 115 106 118 303 7 412-71 69-190 100-283 74zm15618 3c-88-23-150-73-188-155-88-185 25-388 230-412 101-12 218 47 275 140 38 61 47 168 22 244-44 132-202 217-339 183zm-14562-3904c-65-20-98-42-143-89-125-137-74-372 97-451 65-29 178-28 243 3 106 51 163 140 162 256 0 197-180 338-359 281zm13494-1c-64-20-141-92-170-157-31-71-32-174-3-239 26-56 81-111 142-140 65-31 178-32 243-3 128 59 195 210 155 348-43 146-220 238-367 191zm-10649-2854c-80-25-158-100-184-178-66-194 67-383 269-383 112 1 207 57 257 155 30 57 36 171 13 232-26 68-95 138-161 163-56 20-145 25-194 11zm7783-7c-59-22-132-89-159-149-55-116-16-279 83-349 62-43 97-54 178-55 202-2 335 188 269 382-19 57-83 131-138 159-54 28-173 34-233 12zm-3866-1034c-88-23-150-73-188-155-89-187 31-396 236-412 116-9 221 51 274 159 74 147 13 324-135 389-50 23-137 31-187 19z" transform="matrix(.1 0 0 -.1 0 1920)" fill="#000000" stroke="none" stroke-width="2" vector-effect="non-scaling-stroke"/>
</svg>
