<?xml version="1.0" encoding="UTF-8"?>
<svg id="Layer_1" data-name="Layer 1" xmlns="http://www.w3.org/2000/svg" viewBox="0 0 903.69 855.57">
  <defs>
    <style>
      .cls-1 {
        fill: none;
        stroke: #000;
        stroke-miterlimit: 10;
        stroke-width: 10px;
      }
    </style>
  </defs>
  <path class="cls-1" d="M886.26,145.47c-.17-.03-.4-.18-.69-.43-2.55-2.21-6.87-6.3-12.95-12.25-7.63-7.45-24.6-24.38-50.91-50.78-3.87-3.89-14.8-14.85-32.78-32.9-5.67-5.69-10.04-10.18-13.13-13.47-3.29-3.51-7.72-8.09-13.29-13.74-.37-.38-.37-.99,0-1.36.14-.14.32-.23.51-.26,7.09-1.18,15.35-3.79,23.12-5.18,3.67-.66,8.85-2.05,13.92-2.89,24.8-4.13,49.97-6.97,75.18-7.2,4.41-.04,9.74-.07,13.36,2.63,6.92,5.16,9.25,13.13,9.6,21.04.87,19.88.54,39.87-.97,59.97-.67,8.93-2.01,18.4-4.02,28.42-1.97,9.83-4.09,19.17-6.34,28.02-.07.27-.34.44-.62.38Z"/>
  <path class="cls-1" d="M733.94,437.2c-11.76,12.06-23.99,23.64-36.7,34.73-6.02,5.26-12.05,10.37-18.09,15.33-23.99,19.41-48.82,37.55-74.49,54.42l-29.51,18.15-40.27,22.4-22.56,11.65-48.76,22.61c-.48.22-.69.79-.47,1.27.03.05.06.11.09.16l6.06,8.58c3.1,4.45,3.02,8.73,1.66,14-1.37,6.74-5.35,11.44-11.96,14.11-4.77,1.93-13.6,2.23-17.76-1.85-3.63-3.57-7.21-7.08-10.75-10.53-20.69-20.21-41.4-40.75-62.12-61.63-26.21-26.35-52.47-53.02-78.76-79.99-10.53-10.8-17.22-17.69-20.08-20.68-2.3-2.41-5.42-6.01-6.72-8.8-4.7-10.1-.8-17.92,6.99-25.04,8.27-5.86,16.38-6.01,24.35-.45,1.91,1.34,4.25,3.82,6.42,5.34.66.47,1.57.31,2.04-.35.07-.1.13-.2.17-.32,2.63-6.83,4.85-12.24,6.67-16.24,12.01-26.43,25.02-51.59,39.02-75.47,5.19-8.86,10.5-17.64,15.92-26.33l21.25-32.52,21.23-29.82,6.72-8.93c8.87-11.55,18.77-23.82,29.7-36.81,28.06-33.34,58.19-63.21,90.38-89.62,33.28-27.29,69.17-50.24,107.67-68.83,26.04-12.57,52.83-21.81,80.22-30.56,1.23-.39,2.28-.5,3.17-.35.35.07.67.22.93.44,2.17,1.85,5.57,5.05,10.2,9.59,40.77,39.96,74.95,73.79,102.52,101.48,15.83,15.89,28.31,28.44,37.46,37.66.4.4.57.97.45,1.52-5.76,27.47-15.61,54.65-27.29,81.39-27.87,63.81-66.2,120.58-115,170.29ZM585.35,299.96c13.99,21.42,36.21,36.01,61.89,38.95l11.03.69c16.65.24,32.14-3.78,46.47-12.05,4.27-2.53,7.61-4.81,10.04-6.83,23.67-19.72,34.89-45.4,33.64-77.03-.77-19.29-7.37-36.26-19.82-50.91-13.22-15.56-33.93-27.86-54.05-30.93-8.14-1.24-17.24-1.29-27.3-.16-9.08,1.03-17.74,3.58-25.99,7.66-27.87,13.8-49.65,42.5-50.23,74.59-.15,8.87,0,15.35.48,19.43,1.51,12.95,6.13,25.14,13.84,36.59ZM516.89,371.24c-10.55,1-21.74,8.98-29.13,16.46-6.32,5.87-12.9,12.54-19.75,20.01-27.37,29.87-53.75,61.4-78.2,95.78-2.19,3.09-5.11,7.49-8.76,13.22-4.33,6.81-7.08,11.33-8.24,13.56-4.1,7.9-9.26,15.98-5.04,23.32.59,1.02,1.72,1.62,2.9,1.52,8.13-.68,14.94-4.75,22.52-9.42,4.11-2.54,7.7-4.89,10.76-7.05,14.97-10.57,29.41-21.79,43.32-33.68l28.19-24.96c14.49-13.91,28.21-28.46,41.18-43.67,6.94-8.14,11.93-14.48,14.96-19.03,4.05-6.1,8.91-13.96,9.41-21.4.91-7.02-.51-12.94-4.24-17.75-2.53-3.26-5.99-5.41-10.36-6.46-3.43-.73-6.61-.88-9.52-.45Z"/>
  <path class="cls-1" d="M312.63,352.12l-4.71,8.54c-9.11,15.65-17.55,31.82-25.31,48.52-.18.4-.65.57-1.05.39-.01,0-.02-.01-.03-.02-18.61-9.66-38.21-16.36-58.79-20.09-22.96-4.17-44.66-2.06-67.53,3.36-8.77,2.08-18.24,5.49-28.4,10.24-18.17,8.5-33.98,18.36-47.42,29.58-3.5,2.92-6.07,4.46-7.7,4.61-7.5.68-12.9-6.61-9.19-13.52,12.53-23.34,27.11-46.97,39.41-65.39,18.2-27.24,39.49-53.68,63.16-76.9,21.28-20.7,45.13-38.03,72.13-50.41,8.09-3.62,16.28-6.7,24.58-9.25l23.5-5.83c18.94-2.45,37.9-2.91,56.89-1.38,8.56.69,16.75,1.88,24.56,3.59,7.89,1.73,15.93,3.69,24.13,5.89,2.3.62,4.47,1.44,6.51,2.45.44.22.62.76.4,1.21-.02.04-.04.07-.06.1-1.05,1.54-2.11,3.41-3.47,5.05-15.4,18.53-29.32,37.15-41.76,55.86-17.12,25.75-26.86,40.15-39.85,63.4Z"/>
  <path class="cls-1" d="M347.77,605.54l52.26,53.3c.64.64,1.01,1.5,1.04,2.41,1.1,27-7.74,53.64-22.63,76.15-15.6,23.58-36.38,42.13-62.34,55.65-11.92,6.2-22.16,10.72-30.72,13.57-4.03,1.33-7.74,2.05-11.17,3.55-.34.14-.72-.01-.87-.35-.11-.25-.05-.53.14-.72,5.5-5.43,10.55-11.12,15.15-17.07,10.31-13.32,18.1-26.46,21.86-42.5,1.71-7.27,2.13-17.8,2.64-24.34.01-.17-.03-.36-.12-.56-.1-.22-.37-.31-.59-.21-.04.02-.07.04-.1.07-10.65,9.72-20.94,18.86-30.85,27.42-11.05,9.53-24.3,19.28-39.75,29.24-28.27,18.21-58.25,33.41-89.94,45.59-17.1,6.57-35.57,11.71-53.77,15.98-11.23,2.64-20.36,4.34-31.81,5.21-11.73.89-23.56,1.38-35.47,1.49-2.65.02-4.73-.1-6.22-.35-8.05-1.37-14.23-2.52-18.52-3.45-.66-.14-1.1-.76-.97-1.38,0-.05.02-.1.04-.14.03-.07.29-.26.78-.57.49-.32,4.71-2.38,12.65-6.18,43.15-20.66,77.56-56.68,99.99-98.14,10.6-19.59,19.95-39.48,28.06-59.69,10.11-25.18,20.48-50.19,33.82-72.27,2.14-3.54,4.21-7.84,5.58-10.92.09-.19,0-.42-.18-.51-.07-.03-.14-.04-.21-.03l-12.4,1.34c-9.54,1.46-18.63,4.44-27.28,8.95-9.81,5.09-18.67,11.56-26.56,19.43-4.29,4.27-8.52,8.55-12.67,12.83-.51.65-.89.98-1.13.98-.33,0-.6-.27-.6-.61,0-.03,0-.07,0-.1,2.09-11.79,5.2-22.34,9.34-31.67,10.36-23.45,24.93-43.8,43.7-61.03,13.13-11.63,27.87-20.54,44.22-26.73,10.04-3.75,20.36-5.87,30.96-6.37,6.63-.78,12.58-.83,17.83-.14,5.79.76,10.66,5.33,15.64,10.38,27.44,27.87,54.49,55.37,81.16,82.49Z"/>
  <path class="cls-1" d="M689.83,536.96c3.43,10.95,6.28,22.05,8.55,33.29,3.12,15.39,2.66,28.16,2.52,46.95-.09,11.37-1.4,22.46-3.92,33.25-5.51,23.53-14.98,45.31-28.41,65.36-8.17,12.19-17.26,23.67-27.29,34.44-14.7,15.79-30.91,31.14-48.12,43.67-19.63,14.29-38.89,27.81-60.2,39.25-11.49,6.16-21.38,11.26-29.68,15.3-3.91,1.9-6.98,3.36-10.57.46-7.12-5.75-3.91-10.75.89-17.1,12.28-16.23,24.05-34.36,32.23-53.03,13.43-30.65,17.63-66.27,5.82-98.04-4.38-11.8-10.93-24.69-19.04-35.91-1.65-2.28-3.48-5.04-5.47-8.29-.15-.24-.09-.56.14-.72,1.69-1.19,3.56-2.35,5.61-3.48,5.09-2.81,11.4-6.09,18.91-9.84,10.9-5.44,21.71-11.07,32.43-16.88l31.08-17.84c24.45-14.6,47.38-30.53,68.81-47.78l19.37-14.68c.42-.32,1.02-.25,1.35.17.05.06.09.13.12.21l4.87,11.24Z"/>
</svg>