<?xml version="1.0" encoding="UTF-8" standalone="no"?>
<!DOCTYPE svg PUBLIC "-//W3C//DTD SVG 1.1//EN" "http://www.w3.org/Graphics/SVG/1.1/DTD/svg11.dtd">
<svg xmlns="http://www.w3.org/2000/svg" version="1.1" viewBox="0.00 0.00 664.00 1072.00">
<g stroke-width="2.00" fill="none" stroke-linecap="butt">
<path stroke="#919191" vector-effect="non-scaling-stroke" d="
  M 191.44 1014.14
  Q 194.90 1013.03 198.76 1013.02
  Q 424.99 1012.92 427.76 1013.04
  Q 431.53 1013.20 433.19 1013.86
  A 1.30 1.28 -0.4 0 1 433.92 1014.57
  C 435.69 1018.80 435.21 1023.74 435.30 1032.24
  C 435.38 1039.54 441.17 1039.22 446.50 1039.27
  Q 475.73 1039.54 504.83 1039.16
  Q 512.22 1039.07 512.54 1031.75
  Q 512.73 1027.18 512.69 1018.75
  C 512.66 1013.27 517.10 1012.89 521.40 1012.93
  Q 543.27 1013.17 561.74 1012.92
  C 568.35 1012.82 569.48 1007.86 569.47 1002.43
  Q 569.34 278.99 569.69 87.00
  C 569.73 65.41 562.89 46.38 544.52 34.07
  Q 539.39 30.63 533.27 30.63
  Q 280.66 30.79 105.26 30.63
  C 96.77 30.63 87.62 30.17 81.36 33.10
  C 74.32 36.39 68.95 43.67 64.66 48.17
  C 57.63 55.55 54.24 62.59 54.25 73.25
  Q 54.46 226.72 54.39 1003.14
  Q 54.39 1008.50 55.44 1010.19
  Q 57.21 1013.04 61.78 1012.95
  Q 73.33 1012.72 100.48 1013.15
  C 106.71 1013.24 110.42 1015.03 110.82 1021.74
  Q 111.29 1029.70 111.56 1032.44
  Q 112.21 1039.11 119.02 1039.12
  Q 157.56 1039.18 180.74 1039.29
  C 194.06 1039.34 186.05 1023.83 190.21 1015.21
  A 2.06 2.04 3.7 0 1 191.44 1014.14"
/>
<path stroke="#919191" vector-effect="non-scaling-stroke" d="
  M 71.60 56.79
  L 551.33 56.79
  A 0.32 0.32 0.0 0 0 551.62 56.32
  Q 548.20 49.63 542.27 45.26
  C 536.93 41.33 530.63 40.04 524.02 40.10
  C 445.05 40.86 348.82 40.56 180.59 40.52
  C 155.43 40.51 121.02 40.05 98.25 40.10
  C 92.40 40.11 86.59 40.79 82.23 44.23
  Q 75.87 49.23 71.25 56.15
  A 0.42 0.41 16.7 0 0 71.60 56.79"
/>
<path stroke="#919191" vector-effect="non-scaling-stroke" d="
  M 556.82 67.94
  Q 553.16 67.13 549.75 67.13
  Q 494.26 67.09 105.09 67.11
  C 95.36 67.11 82.23 66.59 71.76 67.34
  C 70.50 67.43 67.41 67.64 66.35 68.68
  C 64.23 70.76 64.18 75.11 64.20 78.00
  Q 64.26 90.23 64.22 982.16
  C 64.22 987.85 63.41 993.63 63.30 998.49
  C 63.18 1003.65 65.79 1003.86 70.00 1003.92
  Q 85.87 1004.12 549.49 1004.01
  C 555.15 1004.01 559.54 1004.43 559.54 997.75
  Q 559.49 810.59 559.58 96.00
  Q 559.58 75.61 559.49 73.01
  Q 559.38 69.81 557.68 68.37
  A 2.06 2.02 71.0 0 0 556.82 67.94"
/>
<path stroke="#919191" vector-effect="non-scaling-stroke" d="
  M 502.85 1017.73
  A 4.66 4.66 0.0 0 0 498.19 1013.07
  L 449.65 1013.07
  A 4.66 4.66 0.0 0 0 444.99 1017.73
  L 444.99 1024.75
  A 4.66 4.66 0.0 0 0 449.65 1029.41
  L 498.19 1029.41
  A 4.66 4.66 0.0 0 0 502.85 1024.75
  L 502.85 1017.73"
/>
<path stroke="#919191" vector-effect="non-scaling-stroke" d="
  M 179.1542 1017.9194
  A 4.89 4.89 0.0 0 0 174.2557 1013.0380
  L 126.0758 1013.1221
  A 4.89 4.89 0.0 0 0 121.1943 1018.0206
  L 121.2058 1024.5806
  A 4.89 4.89 0.0 0 0 126.1043 1029.4620
  L 174.2842 1029.3779
  A 4.89 4.89 0.0 0 0 179.1657 1024.4794
  L 179.1542 1017.9194"
/>
<path stroke="#919191" vector-effect="non-scaling-stroke" d="
  M 521.78 112.64
  A 17.57 17.57 0.0 0 0 504.21 95.07
  L 117.73 95.07
  A 17.57 17.57 0.0 0 0 100.16 112.64
  L 100.16 169.14
  A 17.57 17.57 0.0 0 0 117.73 186.71
  L 504.21 186.71
  A 17.57 17.57 0.0 0 0 521.78 169.14
  L 521.78 112.64"
/>
<path stroke="#919191" vector-effect="non-scaling-stroke" d="
  M 521.76 209.63
  A 17.20 17.20 0.0 0 0 504.56 192.43
  L 117.34 192.43
  A 17.20 17.20 0.0 0 0 100.14 209.63
  L 100.14 265.93
  A 17.20 17.20 0.0 0 0 117.34 283.13
  L 504.56 283.13
  A 17.20 17.20 0.0 0 0 521.76 265.93
  L 521.76 209.63"
/>
<path stroke="#919191" vector-effect="non-scaling-stroke" d="
  M 521.95 304.15
  A 16.80 16.80 0.0 0 0 505.15 287.35
  L 117.07 287.35
  A 16.80 16.80 0.0 0 0 100.27 304.15
  L 100.27 339.75
  A 16.80 16.80 0.0 0 0 117.07 356.55
  L 505.15 356.55
  A 16.80 16.80 0.0 0 0 521.95 339.75
  L 521.95 304.15"
/>
<path stroke="#919191" vector-effect="non-scaling-stroke" d="
  M 529.00 569.11
  C 534.77 569.79 531.59 581.06 539.15 578.13
  Q 542.56 576.81 542.57 573.00
  Q 542.63 516.31 542.51 450.57
  C 542.50 446.20 540.78 440.05 535.46 440.28
  Q 529.72 440.53 527.51 440.43
  C 522.62 440.23 521.72 435.54 521.80 431.56
  Q 522.30 405.93 521.84 378.79
  C 521.62 365.34 512.02 360.49 499.93 360.59
  Q 496.46 360.62 485.00 360.62
  Q 333.98 360.61 150.75 360.54
  Q 125.14 360.54 121.00 360.71
  C 115.30 360.94 108.29 362.31 104.37 366.61
  C 100.99 370.33 100.38 375.57 100.32 381.00
  Q 100.11 402.64 100.29 433.50
  Q 100.30 435.74 98.79 438.84
  A 1.54 1.54 0.0 0 1 98.10 439.53
  C 95.42 440.85 92.19 440.50 87.60 440.87
  C 80.70 441.42 81.32 445.50 81.31 451.65
  Q 81.20 539.92 81.27 566.75
  Q 81.28 571.13 81.55 574.76
  A 2.59 2.45 30.8 0 0 81.81 575.68
  C 83.42 578.76 88.35 580.34 89.74 575.98
  C 91.17 571.45 92.84 568.98 98.19 568.99
  C 234.06 569.31 367.74 568.77 513.50 568.89
  Q 527.23 568.90 529.00 569.11"
/>
<path stroke="#919191" vector-effect="non-scaling-stroke" d="
  M 521.76 598.49
  A 16.78 16.78 0.0 0 0 504.98 581.71
  L 116.98 581.71
  A 16.78 16.78 0.0 0 0 100.20 598.49
  L 100.20 654.65
  A 16.78 16.78 0.0 0 0 116.98 671.43
  L 504.98 671.43
  A 16.78 16.78 0.0 0 0 521.76 654.65
  L 521.76 598.49"
/>
<path stroke="#919191" vector-effect="non-scaling-stroke" d="
  M 521.79 694.42
  A 16.73 16.73 0.0 0 0 505.06 677.69
  L 116.94 677.69
  A 16.73 16.73 0.0 0 0 100.21 694.42
  L 100.21 753.12
  A 16.73 16.73 0.0 0 0 116.94 769.85
  L 505.06 769.85
  A 16.73 16.73 0.0 0 0 521.79 753.12
  L 521.79 694.42"
/>
<path stroke="#919191" vector-effect="non-scaling-stroke" d="
  M 521.72 799.93
  A 17.10 17.10 0.0 0 0 504.62 782.83
  L 117.16 782.83
  A 17.10 17.10 0.0 0 0 100.06 799.93
  L 100.06 859.91
  A 17.10 17.10 0.0 0 0 117.16 877.01
  L 504.62 877.01
  A 17.10 17.10 0.0 0 0 521.72 859.91
  L 521.72 799.93"
/>
<path stroke="#919191" vector-effect="non-scaling-stroke" d="
  M 521.75 901.49
  A 17.43 17.43 0.0 0 0 504.32 884.06
  L 117.62 884.06
  A 17.43 17.43 0.0 0 0 100.19 901.49
  L 100.19 958.75
  A 17.43 17.43 0.0 0 0 117.62 976.18
  L 504.32 976.18
  A 17.43 17.43 0.0 0 0 521.75 958.75
  L 521.75 901.49"
/>
<path stroke="#919191" vector-effect="non-scaling-stroke" d="
  M 512.40 113.14
  A 8.27 8.27 0.0 0 0 504.13 104.87
  L 117.43 104.87
  A 8.27 8.27 0.0 0 0 109.16 113.14
  L 109.16 168.84
  A 8.27 8.27 0.0 0 0 117.43 177.11
  L 504.13 177.11
  A 8.27 8.27 0.0 0 0 512.40 168.84
  L 512.40 113.14"
/>
<path stroke="#919191" vector-effect="non-scaling-stroke" d="
  M 402.0455 142.8944
  A 14.17 13.70 -178.4 0 0 415.8275 156.9847
  A 14.17 13.70 -178.4 0 0 430.3745 143.6856
  A 14.17 13.70 -178.4 0 0 416.5925 129.5953
  A 14.17 13.70 -178.4 0 0 402.0455 142.8944"
/>
<path stroke="#919191" vector-effect="non-scaling-stroke" d="
  M 465.5303 142.0743
  A 14.17 13.76 -4.8 0 0 450.2586 129.5483
  A 14.17 13.76 -4.8 0 0 437.2897 144.4457
  A 14.17 13.76 -4.8 0 0 452.5614 156.9717
  A 14.17 13.76 -4.8 0 0 465.5303 142.0743"
/>
<path stroke="#919191" vector-effect="non-scaling-stroke" d="
  M 500.24 143.29
  A 13.90 13.90 0.0 0 0 486.34 129.39
  A 13.90 13.90 0.0 0 0 472.44 143.29
  A 13.90 13.90 0.0 0 0 486.34 157.19
  A 13.90 13.90 0.0 0 0 500.24 143.29"
/>
<path stroke="#919191" vector-effect="non-scaling-stroke" d="
  M 512.07 265.72
  L 512.07 209.04
  A 7.67 7.67 0.0 0 0 504.40 201.37
  L 120.90 201.37
  A 11.83 8.11 -0.0 0 0 109.07 209.48
  L 109.07 265.28
  A 11.83 8.11 0.0 0 0 120.90 273.39
  L 504.40 273.39
  A 7.67 7.67 0.0 0 0 512.07 265.72"
/>
<path stroke="#919191" vector-effect="non-scaling-stroke" d="
  M 430.2171 240.0786
  A 14.18 13.60 -6.2 0 0 414.6512 228.0895
  A 14.18 13.60 -6.2 0 0 402.0229 243.1414
  A 14.18 13.60 -6.2 0 0 417.5888 255.1305
  A 14.18 13.60 -6.2 0 0 430.2171 240.0786"
/>
<path stroke="#919191" vector-effect="non-scaling-stroke" d="
  M 465.5651 240.7902
  A 14.16 13.61 -3.4 0 0 450.6228 228.0440
  A 14.16 13.61 -3.4 0 0 437.2949 242.4698
  A 14.16 13.61 -3.4 0 0 452.2372 255.2160
  A 14.16 13.61 -3.4 0 0 465.5651 240.7902"
/>
<path stroke="#919191" vector-effect="non-scaling-stroke" d="
  M 500.2360 239.9399
  A 13.95 13.68 -7.0 0 0 484.7228 228.0620
  A 13.95 13.68 -7.0 0 0 472.5440 243.3401
  A 13.95 13.68 -7.0 0 0 488.0572 255.2180
  A 13.95 13.68 -7.0 0 0 500.2360 239.9399"
/>
<path stroke="#919191" vector-effect="non-scaling-stroke" d="
  M 512.33 304.78
  A 8.40 8.40 0.0 0 0 503.93 296.38
  L 117.65 296.38
  A 8.40 8.40 0.0 0 0 109.25 304.78
  L 109.25 338.96
  A 8.40 8.40 0.0 0 0 117.65 347.36
  L 503.93 347.36
  A 8.40 8.40 0.0 0 0 512.33 338.96
  L 512.33 304.78"
/>
<path stroke="#919191" vector-effect="non-scaling-stroke" d="
  M 209.4018 308.6252
  A 8.62 8.22 -172.1 0 0 216.8102 317.9520
  A 8.62 8.22 -172.1 0 0 226.4782 310.9948
  A 8.62 8.22 -172.1 0 0 219.0698 301.6680
  A 8.62 8.22 -172.1 0 0 209.4018 308.6252"
/>
<path stroke="#919191" vector-effect="non-scaling-stroke" d="
  M 272.7558 308.8032
  A 7.31 7.31 0.0 0 0 265.1095 301.8457
  L 262.8520 301.9522
  A 7.31 7.31 0.0 0 0 255.8945 309.5984
  L 255.9642 311.0768
  A 7.31 7.31 0.0 0 0 263.6105 318.0343
  L 265.8680 317.9278
  A 7.31 7.31 0.0 0 0 272.8255 310.2816
  L 272.7558 308.8032"
/>
<path stroke="#919191" vector-effect="non-scaling-stroke" d="
  M 203.1121 331.8866
  A 8.73 8.48 -6.6 0 0 193.4653 324.4662
  A 8.73 8.48 -6.6 0 0 185.7679 333.8934
  A 8.73 8.48 -6.6 0 0 195.4147 341.3138
  A 8.73 8.48 -6.6 0 0 203.1121 331.8866"
/>
<path stroke="#919191" vector-effect="non-scaling-stroke" d="
  M 133.18 332.90
  A 8.56 8.56 0.0 0 0 124.62 324.34
  A 8.56 8.56 0.0 0 0 116.06 332.90
  A 8.56 8.56 0.0 0 0 124.62 341.46
  A 8.56 8.56 0.0 0 0 133.18 332.90"
/>
<path stroke="#919191" vector-effect="non-scaling-stroke" d="
  M 156.1008 332.3511
  A 7.43 7.43 0.0 0 0 148.7884 324.8053
  L 146.9686 324.7767
  A 7.43 7.43 0.0 0 0 139.4228 332.0891
  L 139.3992 333.5889
  A 7.43 7.43 0.0 0 0 146.7116 341.1347
  L 148.5314 341.1633
  A 7.43 7.43 0.0 0 0 156.0772 333.8509
  L 156.1008 332.3511"
/>
<path stroke="#919191" vector-effect="non-scaling-stroke" d="
  M 179.5901 332.8958
  A 7.56 7.56 0.0 0 0 172.6324 324.7781
  L 170.7181 324.6308
  A 7.56 7.56 0.0 0 0 162.6003 331.5885
  L 162.4899 333.0242
  A 7.56 7.56 0.0 0 0 169.4476 341.1419
  L 171.3619 341.2892
  A 7.56 7.56 0.0 0 0 179.4797 334.3315
  L 179.5901 332.8958"
/>
<path stroke="#919191" vector-effect="non-scaling-stroke" d="
  M 226.52 332.98
  A 8.54 8.54 0.0 0 0 217.98 324.44
  A 8.54 8.54 0.0 0 0 209.44 332.98
  A 8.54 8.54 0.0 0 0 217.98 341.52
  A 8.54 8.54 0.0 0 0 226.52 332.98"
/>
<path stroke="#919191" vector-effect="non-scaling-stroke" d="
  M 249.8841 332.4161
  A 7.54 7.54 0.0 0 0 242.5036 324.7198
  L 240.7840 324.6838
  A 7.54 7.54 0.0 0 0 233.0878 332.0643
  L 233.0559 333.5839
  A 7.54 7.54 0.0 0 0 240.4364 341.2802
  L 242.1560 341.3162
  A 7.54 7.54 0.0 0 0 249.8522 333.9357
  L 249.8841 332.4161"
/>
<path stroke="#919191" vector-effect="non-scaling-stroke" d="
  M 91.18 554.00
  C 91.17 558.43 94.78 559.13 98.50 559.16
  Q 102.91 559.20 106.50 559.20
  Q 409.99 558.96 436.50 559.01
  Q 497.79 559.13 522.25 559.35
  C 529.64 559.42 532.91 557.18 532.89 549.50
  C 532.86 537.95 532.79 507.86 532.80 456.50
  C 532.80 452.77 532.21 449.64 527.61 449.38
  Q 525.06 449.24 517.01 448.99
  Q 512.93 448.86 512.64 444.87
  Q 511.78 433.07 512.27 418.51
  Q 512.59 409.19 512.09 380.98
  Q 512.00 376.41 511.61 375.08
  C 510.34 370.72 505.85 370.24 501.50 370.23
  Q 313.29 370.19 269.49 370.19
  C 235.69 370.20 169.86 370.63 122.50 370.31
  C 113.01 370.25 109.23 372.82 109.19 382.46
  Q 109.04 413.80 110.03 438.25
  C 110.41 447.75 107.44 450.72 98.05 450.06
  C 94.13 449.79 91.20 452.18 91.20 455.77
  Q 91.21 533.88 91.18 554.00"
/>
<path stroke="#919191" vector-effect="non-scaling-stroke" d="
  M 402.1026 407.7450
  A 14.12 13.77 -173.8 0 0 414.6528 422.9595
  A 14.12 13.77 -173.8 0 0 430.1774 410.7950
  A 14.12 13.77 -173.8 0 0 417.6272 395.5805
  A 14.12 13.77 -173.8 0 0 402.1026 407.7450"
/>
<path stroke="#919191" vector-effect="non-scaling-stroke" d="
  M 465.3045 406.8635
  A 14.08 13.86 -9.8 0 0 449.0709 395.6022
  A 14.08 13.86 -9.8 0 0 437.5555 411.6565
  A 14.08 13.86 -9.8 0 0 453.7891 422.9178
  A 14.08 13.86 -9.8 0 0 465.3045 406.8635"
/>
<path stroke="#919191" vector-effect="non-scaling-stroke" d="
  M 488.6344 395.5484
  A 13.99 13.77 -81.1 0 0 472.8658 407.2396
  A 13.99 13.77 -81.1 0 0 484.3056 423.1916
  A 13.99 13.77 -81.1 0 0 500.0742 411.5004
  A 13.99 13.77 -81.1 0 0 488.6344 395.5484"
/>
<path stroke="#919191" vector-effect="non-scaling-stroke" d="
  M 521.78 481.30
  A 17.26 17.26 0.0 0 0 504.52 464.04
  L 117.56 464.04
  A 17.26 17.26 0.0 0 0 100.30 481.30
  L 100.30 536.08
  A 17.26 17.26 0.0 0 0 117.56 553.34
  L 504.52 553.34
  A 17.26 17.26 0.0 0 0 521.78 536.08
  L 521.78 481.30"
/>
<path stroke="#919191" vector-effect="non-scaling-stroke" d="
  M 512.15 480.55
  A 7.75 7.75 0.0 0 0 504.40 472.80
  L 117.98 472.80
  A 7.75 7.75 0.0 0 0 110.23 480.55
  L 110.23 535.69
  A 7.75 7.75 0.0 0 0 117.98 543.44
  L 504.40 543.44
  A 7.75 7.75 0.0 0 0 512.15 535.69
  L 512.15 480.55"
/>
<path stroke="#919191" vector-effect="non-scaling-stroke" d="
  M 402.0124 512.1487
  A 14.12 13.71 -177.6 0 0 415.5459 526.4380
  A 14.12 13.71 -177.6 0 0 430.2276 513.3313
  A 14.12 13.71 -177.6 0 0 416.6941 499.0420
  A 14.12 13.71 -177.6 0 0 402.0124 512.1487"
/>
<path stroke="#919191" vector-effect="non-scaling-stroke" d="
  M 465.4976 512.1904
  A 14.08 13.77 -2.4 0 0 450.8534 499.0221
  A 14.08 13.77 -2.4 0 0 437.3624 513.3696
  A 14.08 13.77 -2.4 0 0 452.0066 526.5379
  A 14.08 13.77 -2.4 0 0 465.4976 512.1904"
/>
<path stroke="#919191" vector-effect="non-scaling-stroke" d="
  M 500.34 512.84
  A 13.87 13.87 0.0 0 0 486.47 498.97
  A 13.87 13.87 0.0 0 0 472.60 512.84
  A 13.87 13.87 0.0 0 0 486.47 526.71
  A 13.87 13.87 0.0 0 0 500.34 512.84"
/>
<path stroke="#919191" vector-effect="non-scaling-stroke" d="
  M 512.27 599.31
  A 8.20 8.20 0.0 0 0 504.07 591.11
  L 117.35 591.11
  A 8.20 8.20 0.0 0 0 109.15 599.31
  L 109.15 653.45
  A 8.20 8.20 0.0 0 0 117.35 661.65
  L 504.07 661.65
  A 8.20 8.20 0.0 0 0 512.27 653.45
  L 512.27 599.31"
/>
<path stroke="#919191" vector-effect="non-scaling-stroke" d="
  M 430.0706 627.0218
  A 13.98 13.69 -4.3 0 0 415.1035 614.4185
  A 13.98 13.69 -4.3 0 0 402.1894 629.1182
  A 13.98 13.69 -4.3 0 0 417.1565 641.7215
  A 13.98 13.69 -4.3 0 0 430.0706 627.0218"
/>
<path stroke="#919191" vector-effect="non-scaling-stroke" d="
  M 437.4798 626.6977
  A 13.99 13.69 -174.7 0 0 450.1454 641.6215
  A 13.99 13.69 -174.7 0 0 465.3402 629.2823
  A 13.99 13.69 -174.7 0 0 452.6746 614.3585
  A 13.99 13.69 -174.7 0 0 437.4798 626.6977"
/>
<path stroke="#919191" vector-effect="non-scaling-stroke" d="
  M 498.1875 620.6742
  A 13.94 13.70 -31.8 0 0 479.1207 616.3765
  A 13.94 13.70 -31.8 0 0 474.4925 635.3658
  A 13.94 13.70 -31.8 0 0 493.5593 639.6635
  A 13.94 13.70 -31.8 0 0 498.1875 620.6742"
/>
<path stroke="#919191" vector-effect="non-scaling-stroke" d="
  M 512.16 695.65
  A 8.30 8.30 0.0 0 0 503.86 687.35
  L 117.48 687.35
  A 8.30 8.30 0.0 0 0 109.18 695.65
  L 109.18 752.67
  A 8.30 8.30 0.0 0 0 117.48 760.97
  L 503.86 760.97
  A 8.30 8.30 0.0 0 0 512.16 752.67
  L 512.16 695.65"
/>
<path stroke="#919191" vector-effect="non-scaling-stroke" d="
  M 465.4822 725.9559
  A 14.08 13.69 -3.6 0 0 450.5704 713.1770
  A 14.08 13.69 -3.6 0 0 437.3778 727.7241
  A 14.08 13.69 -3.6 0 0 452.2896 740.5030
  A 14.08 13.69 -3.6 0 0 465.4822 725.9559"
/>
<path stroke="#919191" vector-effect="non-scaling-stroke" d="
  M 500.17 726.85
  A 13.86 13.86 0.0 0 0 486.31 712.99
  A 13.86 13.86 0.0 0 0 472.45 726.85
  A 13.86 13.86 0.0 0 0 486.31 740.71
  A 13.86 13.86 0.0 0 0 500.17 726.85"
/>
<path stroke="#919191" vector-effect="non-scaling-stroke" d="
  M 430.0978 724.6561
  A 14.16 13.69 -9.2 0 0 413.9312 713.4061
  A 14.16 13.69 -9.2 0 0 402.1422 729.1839
  A 14.16 13.69 -9.2 0 0 418.3088 740.4339
  A 14.16 13.69 -9.2 0 0 430.0978 724.6561"
/>
<path stroke="#919191" vector-effect="non-scaling-stroke" d="
  M 512.08 799.92
  A 8.06 8.06 0.0 0 0 504.02 791.86
  L 117.12 791.86
  A 8.06 8.06 0.0 0 0 109.06 799.92
  L 109.06 859.08
  A 8.06 8.06 0.0 0 0 117.12 867.14
  L 504.02 867.14
  A 8.06 8.06 0.0 0 0 512.08 859.08
  L 512.08 799.92"
/>
<path stroke="#919191" vector-effect="non-scaling-stroke" d="
  M 426.00 835.09
  A 8.94 8.94 0.0 0 0 417.06 826.15
  A 8.94 8.94 0.0 0 0 408.12 835.09
  A 8.94 8.94 0.0 0 0 417.06 844.03
  A 8.94 8.94 0.0 0 0 426.00 835.09"
/>
<path stroke="#919191" vector-effect="non-scaling-stroke" d="
  M 460.67 835.03
  A 8.88 8.88 0.0 0 0 451.79 826.15
  A 8.88 8.88 0.0 0 0 442.91 835.03
  A 8.88 8.88 0.0 0 0 451.79 843.91
  A 8.88 8.88 0.0 0 0 460.67 835.03"
/>
<path stroke="#919191" vector-effect="non-scaling-stroke" d="
  M 494.4542 830.9867
  A 9.03 8.86 -26.6 0 0 482.4129 827.1078
  A 9.03 8.86 -26.6 0 0 478.3058 839.0733
  A 9.03 8.86 -26.6 0 0 490.3471 842.9522
  A 9.03 8.86 -26.6 0 0 494.4542 830.9867"
/>
<path stroke="#919191" vector-effect="non-scaling-stroke" d="
  M 503.50 966.25
  C 511.98 966.25 512.01 960.87 512.03 954.19
  Q 512.10 919.74 512.01 900.75
  C 511.98 893.91 505.75 893.93 500.75 893.93
  Q 392.63 893.90 167.42 893.97
  C 152.53 893.97 133.39 893.43 122.75 893.11
  C 113.19 892.83 109.15 895.82 109.09 905.77
  Q 108.96 930.74 109.13 951.00
  C 109.21 959.68 108.81 966.26 119.75 966.26
  Q 264.99 966.23 503.50 966.25"
/>
<path stroke="#919191" vector-effect="non-scaling-stroke" d="
  M 500.24 932.11
  A 13.91 13.91 0.0 0 0 486.33 918.20
  A 13.91 13.91 0.0 0 0 472.42 932.11
  A 13.91 13.91 0.0 0 0 486.33 946.02
  A 13.91 13.91 0.0 0 0 500.24 932.11"
/>
<path stroke="#919191" vector-effect="non-scaling-stroke" d="
  M 430.1754 930.7527
  A 14.08 13.74 -5.9 0 0 414.7576 918.5328
  A 14.08 13.74 -5.9 0 0 402.1646 933.6473
  A 14.08 13.74 -5.9 0 0 417.5824 945.8672
  A 14.08 13.74 -5.9 0 0 430.1754 930.7527"
/>
<path stroke="#919191" vector-effect="non-scaling-stroke" d="
  M 465.4061 930.3747
  A 14.05 13.72 -7.3 0 0 449.7267 918.5512
  A 14.05 13.72 -7.3 0 0 437.5339 933.9453
  A 14.05 13.72 -7.3 0 0 453.2133 945.7688
  A 14.05 13.72 -7.3 0 0 465.4061 930.3747"
/>
</g>
<path fill="#ffffff" d="
  M 664.00 0.00
  L 664.00 1072.00
  L 0.00 1072.00
  L 0.00 0.00
  L 664.00 0.00
  Z
  M 191.44 1014.14
  Q 194.90 1013.03 198.76 1013.02
  Q 424.99 1012.92 427.76 1013.04
  Q 431.53 1013.20 433.19 1013.86
  A 1.30 1.28 -0.4 0 1 433.92 1014.57
  C 435.69 1018.80 435.21 1023.74 435.30 1032.24
  C 435.38 1039.54 441.17 1039.22 446.50 1039.27
  Q 475.73 1039.54 504.83 1039.16
  Q 512.22 1039.07 512.54 1031.75
  Q 512.73 1027.18 512.69 1018.75
  C 512.66 1013.27 517.10 1012.89 521.40 1012.93
  Q 543.27 1013.17 561.74 1012.92
  C 568.35 1012.82 569.48 1007.86 569.47 1002.43
  Q 569.34 278.99 569.69 87.00
  C 569.73 65.41 562.89 46.38 544.52 34.07
  Q 539.39 30.63 533.27 30.63
  Q 280.66 30.79 105.26 30.63
  C 96.77 30.63 87.62 30.17 81.36 33.10
  C 74.32 36.39 68.95 43.67 64.66 48.17
  C 57.63 55.55 54.24 62.59 54.25 73.25
  Q 54.46 226.72 54.39 1003.14
  Q 54.39 1008.50 55.44 1010.19
  Q 57.21 1013.04 61.78 1012.95
  Q 73.33 1012.72 100.48 1013.15
  C 106.71 1013.24 110.42 1015.03 110.82 1021.74
  Q 111.29 1029.70 111.56 1032.44
  Q 112.21 1039.11 119.02 1039.12
  Q 157.56 1039.18 180.74 1039.29
  C 194.06 1039.34 186.05 1023.83 190.21 1015.21
  A 2.06 2.04 3.7 0 1 191.44 1014.14
  Z"
/>
<path fill="#232323" d="
  M 191.44 1014.14
  A 2.06 2.04 3.7 0 0 190.21 1015.21
  C 186.05 1023.83 194.06 1039.34 180.74 1039.29
  Q 157.56 1039.18 119.02 1039.12
  Q 112.21 1039.11 111.56 1032.44
  Q 111.29 1029.70 110.82 1021.74
  C 110.42 1015.03 106.71 1013.24 100.48 1013.15
  Q 73.33 1012.72 61.78 1012.95
  Q 57.21 1013.04 55.44 1010.19
  Q 54.39 1008.50 54.39 1003.14
  Q 54.46 226.72 54.25 73.25
  C 54.24 62.59 57.63 55.55 64.66 48.17
  C 68.95 43.67 74.32 36.39 81.36 33.10
  C 87.62 30.17 96.77 30.63 105.26 30.63
  Q 280.66 30.79 533.27 30.63
  Q 539.39 30.63 544.52 34.07
  C 562.89 46.38 569.73 65.41 569.69 87.00
  Q 569.34 278.99 569.47 1002.43
  C 569.48 1007.86 568.35 1012.82 561.74 1012.92
  Q 543.27 1013.17 521.40 1012.93
  C 517.10 1012.89 512.66 1013.27 512.69 1018.75
  Q 512.73 1027.18 512.54 1031.75
  Q 512.22 1039.07 504.83 1039.16
  Q 475.73 1039.54 446.50 1039.27
  C 441.17 1039.22 435.38 1039.54 435.30 1032.24
  C 435.21 1023.74 435.69 1018.80 433.92 1014.57
  A 1.30 1.28 -0.4 0 0 433.19 1013.86
  Q 431.53 1013.20 427.76 1013.04
  Q 424.99 1012.92 198.76 1013.02
  Q 194.90 1013.03 191.44 1014.14
  Z
  M 71.60 56.79
  L 551.33 56.79
  A 0.32 0.32 0.0 0 0 551.62 56.32
  Q 548.20 49.63 542.27 45.26
  C 536.93 41.33 530.63 40.04 524.02 40.10
  C 445.05 40.86 348.82 40.56 180.59 40.52
  C 155.43 40.51 121.02 40.05 98.25 40.10
  C 92.40 40.11 86.59 40.79 82.23 44.23
  Q 75.87 49.23 71.25 56.15
  A 0.42 0.41 16.7 0 0 71.60 56.79
  Z
  M 556.82 67.94
  Q 553.16 67.13 549.75 67.13
  Q 494.26 67.09 105.09 67.11
  C 95.36 67.11 82.23 66.59 71.76 67.34
  C 70.50 67.43 67.41 67.64 66.35 68.68
  C 64.23 70.76 64.18 75.11 64.20 78.00
  Q 64.26 90.23 64.22 982.16
  C 64.22 987.85 63.41 993.63 63.30 998.49
  C 63.18 1003.65 65.79 1003.86 70.00 1003.92
  Q 85.87 1004.12 549.49 1004.01
  C 555.15 1004.01 559.54 1004.43 559.54 997.75
  Q 559.49 810.59 559.58 96.00
  Q 559.58 75.61 559.49 73.01
  Q 559.38 69.81 557.68 68.37
  A 2.06 2.02 71.0 0 0 556.82 67.94
  Z
  M 502.85 1017.73
  A 4.66 4.66 0.0 0 0 498.19 1013.07
  L 449.65 1013.07
  A 4.66 4.66 0.0 0 0 444.99 1017.73
  L 444.99 1024.75
  A 4.66 4.66 0.0 0 0 449.65 1029.41
  L 498.19 1029.41
  A 4.66 4.66 0.0 0 0 502.85 1024.75
  L 502.85 1017.73
  Z
  M 179.1542 1017.9194
  A 4.89 4.89 0.0 0 0 174.2557 1013.0380
  L 126.0758 1013.1221
  A 4.89 4.89 0.0 0 0 121.1943 1018.0206
  L 121.2058 1024.5806
  A 4.89 4.89 0.0 0 0 126.1043 1029.4620
  L 174.2842 1029.3779
  A 4.89 4.89 0.0 0 0 179.1657 1024.4794
  L 179.1542 1017.9194
  Z"
/>
<path fill="#ffffff" d="
  M 71.25 56.15
  Q 75.87 49.23 82.23 44.23
  C 86.59 40.79 92.40 40.11 98.25 40.10
  C 121.02 40.05 155.43 40.51 180.59 40.52
  C 348.82 40.56 445.05 40.86 524.02 40.10
  C 530.63 40.04 536.93 41.33 542.27 45.26
  Q 548.20 49.63 551.62 56.32
  A 0.32 0.32 0.0 0 1 551.33 56.79
  L 71.60 56.79
  A 0.42 0.41 16.7 0 1 71.25 56.15
  Z"
/>
<path fill="#ffffff" d="
  M 557.68 68.37
  Q 559.38 69.81 559.49 73.01
  Q 559.58 75.61 559.58 96.00
  Q 559.49 810.59 559.54 997.75
  C 559.54 1004.43 555.15 1004.01 549.49 1004.01
  Q 85.87 1004.12 70.00 1003.92
  C 65.79 1003.86 63.18 1003.65 63.30 998.49
  C 63.41 993.63 64.22 987.85 64.22 982.16
  Q 64.26 90.23 64.20 78.00
  C 64.18 75.11 64.23 70.76 66.35 68.68
  C 67.41 67.64 70.50 67.43 71.76 67.34
  C 82.23 66.59 95.36 67.11 105.09 67.11
  Q 494.26 67.09 549.75 67.13
  Q 553.16 67.13 556.82 67.94
  A 2.06 2.02 71.0 0 1 557.68 68.37
  Z
  M 521.78 112.64
  A 17.57 17.57 0.0 0 0 504.21 95.07
  L 117.73 95.07
  A 17.57 17.57 0.0 0 0 100.16 112.64
  L 100.16 169.14
  A 17.57 17.57 0.0 0 0 117.73 186.71
  L 504.21 186.71
  A 17.57 17.57 0.0 0 0 521.78 169.14
  L 521.78 112.64
  Z
  M 521.76 209.63
  A 17.20 17.20 0.0 0 0 504.56 192.43
  L 117.34 192.43
  A 17.20 17.20 0.0 0 0 100.14 209.63
  L 100.14 265.93
  A 17.20 17.20 0.0 0 0 117.34 283.13
  L 504.56 283.13
  A 17.20 17.20 0.0 0 0 521.76 265.93
  L 521.76 209.63
  Z
  M 521.95 304.15
  A 16.80 16.80 0.0 0 0 505.15 287.35
  L 117.07 287.35
  A 16.80 16.80 0.0 0 0 100.27 304.15
  L 100.27 339.75
  A 16.80 16.80 0.0 0 0 117.07 356.55
  L 505.15 356.55
  A 16.80 16.80 0.0 0 0 521.95 339.75
  L 521.95 304.15
  Z
  M 529.00 569.11
  C 534.77 569.79 531.59 581.06 539.15 578.13
  Q 542.56 576.81 542.57 573.00
  Q 542.63 516.31 542.51 450.57
  C 542.50 446.20 540.78 440.05 535.46 440.28
  Q 529.72 440.53 527.51 440.43
  C 522.62 440.23 521.72 435.54 521.80 431.56
  Q 522.30 405.93 521.84 378.79
  C 521.62 365.34 512.02 360.49 499.93 360.59
  Q 496.46 360.62 485.00 360.62
  Q 333.98 360.61 150.75 360.54
  Q 125.14 360.54 121.00 360.71
  C 115.30 360.94 108.29 362.31 104.37 366.61
  C 100.99 370.33 100.38 375.57 100.32 381.00
  Q 100.11 402.64 100.29 433.50
  Q 100.30 435.74 98.79 438.84
  A 1.54 1.54 0.0 0 1 98.10 439.53
  C 95.42 440.85 92.19 440.50 87.60 440.87
  C 80.70 441.42 81.32 445.50 81.31 451.65
  Q 81.20 539.92 81.27 566.75
  Q 81.28 571.13 81.55 574.76
  A 2.59 2.45 30.8 0 0 81.81 575.68
  C 83.42 578.76 88.35 580.34 89.74 575.98
  C 91.17 571.45 92.84 568.98 98.19 568.99
  C 234.06 569.31 367.74 568.77 513.50 568.89
  Q 527.23 568.90 529.00 569.11
  Z
  M 521.76 598.49
  A 16.78 16.78 0.0 0 0 504.98 581.71
  L 116.98 581.71
  A 16.78 16.78 0.0 0 0 100.20 598.49
  L 100.20 654.65
  A 16.78 16.78 0.0 0 0 116.98 671.43
  L 504.98 671.43
  A 16.78 16.78 0.0 0 0 521.76 654.65
  L 521.76 598.49
  Z
  M 521.79 694.42
  A 16.73 16.73 0.0 0 0 505.06 677.69
  L 116.94 677.69
  A 16.73 16.73 0.0 0 0 100.21 694.42
  L 100.21 753.12
  A 16.73 16.73 0.0 0 0 116.94 769.85
  L 505.06 769.85
  A 16.73 16.73 0.0 0 0 521.79 753.12
  L 521.79 694.42
  Z
  M 521.72 799.93
  A 17.10 17.10 0.0 0 0 504.62 782.83
  L 117.16 782.83
  A 17.10 17.10 0.0 0 0 100.06 799.93
  L 100.06 859.91
  A 17.10 17.10 0.0 0 0 117.16 877.01
  L 504.62 877.01
  A 17.10 17.10 0.0 0 0 521.72 859.91
  L 521.72 799.93
  Z
  M 521.75 901.49
  A 17.43 17.43 0.0 0 0 504.32 884.06
  L 117.62 884.06
  A 17.43 17.43 0.0 0 0 100.19 901.49
  L 100.19 958.75
  A 17.43 17.43 0.0 0 0 117.62 976.18
  L 504.32 976.18
  A 17.43 17.43 0.0 0 0 521.75 958.75
  L 521.75 901.49
  Z"
/>
<path fill="#232323" d="
  M 521.78 169.14
  A 17.57 17.57 0.0 0 1 504.21 186.71
  L 117.73 186.71
  A 17.57 17.57 0.0 0 1 100.16 169.14
  L 100.16 112.64
  A 17.57 17.57 0.0 0 1 117.73 95.07
  L 504.21 95.07
  A 17.57 17.57 0.0 0 1 521.78 112.64
  L 521.78 169.14
  Z
  M 512.40 113.14
  A 8.27 8.27 0.0 0 0 504.13 104.87
  L 117.43 104.87
  A 8.27 8.27 0.0 0 0 109.16 113.14
  L 109.16 168.84
  A 8.27 8.27 0.0 0 0 117.43 177.11
  L 504.13 177.11
  A 8.27 8.27 0.0 0 0 512.40 168.84
  L 512.40 113.14
  Z"
/>
<path fill="#ffffff" d="
  M 512.40 168.84
  A 8.27 8.27 0.0 0 1 504.13 177.11
  L 117.43 177.11
  A 8.27 8.27 0.0 0 1 109.16 168.84
  L 109.16 113.14
  A 8.27 8.27 0.0 0 1 117.43 104.87
  L 504.13 104.87
  A 8.27 8.27 0.0 0 1 512.40 113.14
  L 512.40 168.84
  Z
  M 402.0455 142.8944
  A 14.17 13.70 -178.4 0 0 415.8275 156.9847
  A 14.17 13.70 -178.4 0 0 430.3745 143.6856
  A 14.17 13.70 -178.4 0 0 416.5925 129.5953
  A 14.17 13.70 -178.4 0 0 402.0455 142.8944
  Z
  M 465.5303 142.0743
  A 14.17 13.76 -4.8 0 0 450.2586 129.5483
  A 14.17 13.76 -4.8 0 0 437.2897 144.4457
  A 14.17 13.76 -4.8 0 0 452.5614 156.9717
  A 14.17 13.76 -4.8 0 0 465.5303 142.0743
  Z
  M 500.24 143.29
  A 13.90 13.90 0.0 0 0 486.34 129.39
  A 13.90 13.90 0.0 0 0 472.44 143.29
  A 13.90 13.90 0.0 0 0 486.34 157.19
  A 13.90 13.90 0.0 0 0 500.24 143.29
  Z"
/>
<ellipse fill="#232323" cx="0.00" cy="0.00" transform="translate(416.21,143.29) rotate(-178.4)" rx="14.17" ry="13.70"/>
<ellipse fill="#232323" cx="0.00" cy="0.00" transform="translate(451.41,143.26) rotate(-4.8)" rx="14.17" ry="13.76"/>
<circle fill="#232323" cx="486.34" cy="143.29" r="13.90"/>
<path fill="#232323" d="
  M 521.76 265.93
  A 17.20 17.20 0.0 0 1 504.56 283.13
  L 117.34 283.13
  A 17.20 17.20 0.0 0 1 100.14 265.93
  L 100.14 209.63
  A 17.20 17.20 0.0 0 1 117.34 192.43
  L 504.56 192.43
  A 17.20 17.20 0.0 0 1 521.76 209.63
  L 521.76 265.93
  Z
  M 512.07 265.72
  L 512.07 209.04
  A 7.67 7.67 0.0 0 0 504.40 201.37
  L 120.90 201.37
  A 11.83 8.11 -0.0 0 0 109.07 209.48
  L 109.07 265.28
  A 11.83 8.11 0.0 0 0 120.90 273.39
  L 504.40 273.39
  A 7.67 7.67 0.0 0 0 512.07 265.72
  Z"
/>
<path fill="#ffffff" d="
  M 512.07 265.72
  A 7.67 7.67 0.0 0 1 504.40 273.39
  L 120.90 273.39
  A 11.83 8.11 0.0 0 1 109.07 265.28
  L 109.07 209.48
  A 11.83 8.11 0.0 0 1 120.90 201.37
  L 504.40 201.37
  A 7.67 7.67 0.0 0 1 512.07 209.04
  L 512.07 265.72
  Z
  M 430.2171 240.0786
  A 14.18 13.60 -6.2 0 0 414.6512 228.0895
  A 14.18 13.60 -6.2 0 0 402.0229 243.1414
  A 14.18 13.60 -6.2 0 0 417.5888 255.1305
  A 14.18 13.60 -6.2 0 0 430.2171 240.0786
  Z
  M 465.5651 240.7902
  A 14.16 13.61 -3.4 0 0 450.6228 228.0440
  A 14.16 13.61 -3.4 0 0 437.2949 242.4698
  A 14.16 13.61 -3.4 0 0 452.2372 255.2160
  A 14.16 13.61 -3.4 0 0 465.5651 240.7902
  Z
  M 500.2360 239.9399
  A 13.95 13.68 -7.0 0 0 484.7228 228.0620
  A 13.95 13.68 -7.0 0 0 472.5440 243.3401
  A 13.95 13.68 -7.0 0 0 488.0572 255.2180
  A 13.95 13.68 -7.0 0 0 500.2360 239.9399
  Z"
/>
<ellipse fill="#232323" cx="0.00" cy="0.00" transform="translate(416.12,241.61) rotate(-6.2)" rx="14.18" ry="13.60"/>
<ellipse fill="#232323" cx="0.00" cy="0.00" transform="translate(451.43,241.63) rotate(-3.4)" rx="14.16" ry="13.61"/>
<ellipse fill="#232323" cx="0.00" cy="0.00" transform="translate(486.39,241.64) rotate(-7.0)" rx="13.95" ry="13.68"/>
<path fill="#232323" d="
  M 521.95 339.75
  A 16.80 16.80 0.0 0 1 505.15 356.55
  L 117.07 356.55
  A 16.80 16.80 0.0 0 1 100.27 339.75
  L 100.27 304.15
  A 16.80 16.80 0.0 0 1 117.07 287.35
  L 505.15 287.35
  A 16.80 16.80 0.0 0 1 521.95 304.15
  L 521.95 339.75
  Z
  M 512.33 304.78
  A 8.40 8.40 0.0 0 0 503.93 296.38
  L 117.65 296.38
  A 8.40 8.40 0.0 0 0 109.25 304.78
  L 109.25 338.96
  A 8.40 8.40 0.0 0 0 117.65 347.36
  L 503.93 347.36
  A 8.40 8.40 0.0 0 0 512.33 338.96
  L 512.33 304.78
  Z"
/>
<path fill="#ffffff" d="
  M 512.33 338.96
  A 8.40 8.40 0.0 0 1 503.93 347.36
  L 117.65 347.36
  A 8.40 8.40 0.0 0 1 109.25 338.96
  L 109.25 304.78
  A 8.40 8.40 0.0 0 1 117.65 296.38
  L 503.93 296.38
  A 8.40 8.40 0.0 0 1 512.33 304.78
  L 512.33 338.96
  Z
  M 209.4018 308.6252
  A 8.62 8.22 -172.1 0 0 216.8102 317.9520
  A 8.62 8.22 -172.1 0 0 226.4782 310.9948
  A 8.62 8.22 -172.1 0 0 219.0698 301.6680
  A 8.62 8.22 -172.1 0 0 209.4018 308.6252
  Z
  M 272.7558 308.8032
  A 7.31 7.31 0.0 0 0 265.1095 301.8457
  L 262.8520 301.9522
  A 7.31 7.31 0.0 0 0 255.8945 309.5984
  L 255.9642 311.0768
  A 7.31 7.31 0.0 0 0 263.6105 318.0343
  L 265.8680 317.9278
  A 7.31 7.31 0.0 0 0 272.8255 310.2816
  L 272.7558 308.8032
  Z
  M 203.1121 331.8866
  A 8.73 8.48 -6.6 0 0 193.4653 324.4662
  A 8.73 8.48 -6.6 0 0 185.7679 333.8934
  A 8.73 8.48 -6.6 0 0 195.4147 341.3138
  A 8.73 8.48 -6.6 0 0 203.1121 331.8866
  Z
  M 133.18 332.90
  A 8.56 8.56 0.0 0 0 124.62 324.34
  A 8.56 8.56 0.0 0 0 116.06 332.90
  A 8.56 8.56 0.0 0 0 124.62 341.46
  A 8.56 8.56 0.0 0 0 133.18 332.90
  Z
  M 156.1008 332.3511
  A 7.43 7.43 0.0 0 0 148.7884 324.8053
  L 146.9686 324.7767
  A 7.43 7.43 0.0 0 0 139.4228 332.0891
  L 139.3992 333.5889
  A 7.43 7.43 0.0 0 0 146.7116 341.1347
  L 148.5314 341.1633
  A 7.43 7.43 0.0 0 0 156.0772 333.8509
  L 156.1008 332.3511
  Z
  M 179.5901 332.8958
  A 7.56 7.56 0.0 0 0 172.6324 324.7781
  L 170.7181 324.6308
  A 7.56 7.56 0.0 0 0 162.6003 331.5885
  L 162.4899 333.0242
  A 7.56 7.56 0.0 0 0 169.4476 341.1419
  L 171.3619 341.2892
  A 7.56 7.56 0.0 0 0 179.4797 334.3315
  L 179.5901 332.8958
  Z
  M 226.52 332.98
  A 8.54 8.54 0.0 0 0 217.98 324.44
  A 8.54 8.54 0.0 0 0 209.44 332.98
  A 8.54 8.54 0.0 0 0 217.98 341.52
  A 8.54 8.54 0.0 0 0 226.52 332.98
  Z
  M 249.8841 332.4161
  A 7.54 7.54 0.0 0 0 242.5036 324.7198
  L 240.7840 324.6838
  A 7.54 7.54 0.0 0 0 233.0878 332.0643
  L 233.0559 333.5839
  A 7.54 7.54 0.0 0 0 240.4364 341.2802
  L 242.1560 341.3162
  A 7.54 7.54 0.0 0 0 249.8522 333.9357
  L 249.8841 332.4161
  Z"
/>
<ellipse fill="#232323" cx="0.00" cy="0.00" transform="translate(217.94,309.81) rotate(-172.1)" rx="8.62" ry="8.22"/>
<rect fill="#232323" x="-8.44" y="-8.05" transform="translate(264.36,309.94) rotate(-2.7)" width="16.88" height="16.10" rx="7.31"/>
<ellipse fill="#232323" cx="0.00" cy="0.00" transform="translate(194.44,332.89) rotate(-6.6)" rx="8.73" ry="8.48"/>
<circle fill="#232323" cx="124.62" cy="332.90" r="8.56"/>
<rect fill="#232323" x="-8.34" y="-8.18" transform="translate(147.75,332.97) rotate(0.9)" width="16.68" height="16.36" rx="7.43"/>
<rect fill="#232323" x="-8.52" y="-8.28" transform="translate(171.04,332.96) rotate(4.4)" width="17.04" height="16.56" rx="7.56"/>
<circle fill="#232323" cx="217.98" cy="332.98" r="8.54"/>
<rect fill="#232323" x="-8.40" y="-8.30" transform="translate(241.47,333.00) rotate(1.2)" width="16.80" height="16.60" rx="7.54"/>
<path fill="#232323" d="
  M 539.15 578.13
  C 531.59 581.06 534.77 569.79 529.00 569.11
  Q 527.23 568.90 513.50 568.89
  C 367.74 568.77 234.06 569.31 98.19 568.99
  C 92.84 568.98 91.17 571.45 89.74 575.98
  C 88.35 580.34 83.42 578.76 81.81 575.68
  A 2.59 2.45 30.8 0 1 81.55 574.76
  Q 81.28 571.13 81.27 566.75
  Q 81.20 539.92 81.31 451.65
  C 81.32 445.50 80.70 441.42 87.60 440.87
  C 92.19 440.50 95.42 440.85 98.10 439.53
  A 1.54 1.54 0.0 0 0 98.79 438.84
  Q 100.30 435.74 100.29 433.50
  Q 100.11 402.64 100.32 381.00
  C 100.38 375.57 100.99 370.33 104.37 366.61
  C 108.29 362.31 115.30 360.94 121.00 360.71
  Q 125.14 360.54 150.75 360.54
  Q 333.98 360.61 485.00 360.62
  Q 496.46 360.62 499.93 360.59
  C 512.02 360.49 521.62 365.34 521.84 378.79
  Q 522.30 405.93 521.80 431.56
  C 521.72 435.54 522.62 440.23 527.51 440.43
  Q 529.72 440.53 535.46 440.28
  C 540.78 440.05 542.50 446.20 542.51 450.57
  Q 542.63 516.31 542.57 573.00
  Q 542.56 576.81 539.15 578.13
  Z
  M 91.18 554.00
  C 91.17 558.43 94.78 559.13 98.50 559.16
  Q 102.91 559.20 106.50 559.20
  Q 409.99 558.96 436.50 559.01
  Q 497.79 559.13 522.25 559.35
  C 529.64 559.42 532.91 557.18 532.89 549.50
  C 532.86 537.95 532.79 507.86 532.80 456.50
  C 532.80 452.77 532.21 449.64 527.61 449.38
  Q 525.06 449.24 517.01 448.99
  Q 512.93 448.86 512.64 444.87
  Q 511.78 433.07 512.27 418.51
  Q 512.59 409.19 512.09 380.98
  Q 512.00 376.41 511.61 375.08
  C 510.34 370.72 505.85 370.24 501.50 370.23
  Q 313.29 370.19 269.49 370.19
  C 235.69 370.20 169.86 370.63 122.50 370.31
  C 113.01 370.25 109.23 372.82 109.19 382.46
  Q 109.04 413.80 110.03 438.25
  C 110.41 447.75 107.44 450.72 98.05 450.06
  C 94.13 449.79 91.20 452.18 91.20 455.77
  Q 91.21 533.88 91.18 554.00
  Z"
/>
<path fill="#ffffff" d="
  M 98.50 559.16
  C 94.78 559.13 91.17 558.43 91.18 554.00
  Q 91.21 533.88 91.20 455.77
  C 91.20 452.18 94.13 449.79 98.05 450.06
  C 107.44 450.72 110.41 447.75 110.03 438.25
  Q 109.04 413.80 109.19 382.46
  C 109.23 372.82 113.01 370.25 122.50 370.31
  C 169.86 370.63 235.69 370.20 269.49 370.19
  Q 313.29 370.19 501.50 370.23
  C 505.85 370.24 510.34 370.72 511.61 375.08
  Q 512.00 376.41 512.09 380.98
  Q 512.59 409.19 512.27 418.51
  Q 511.78 433.07 512.64 444.87
  Q 512.93 448.86 517.01 448.99
  Q 525.06 449.24 527.61 449.38
  C 532.21 449.64 532.80 452.77 532.80 456.50
  C 532.79 507.86 532.86 537.95 532.89 549.50
  C 532.91 557.18 529.64 559.42 522.25 559.35
  Q 497.79 559.13 436.50 559.01
  Q 409.99 558.96 106.50 559.20
  Q 102.91 559.20 98.50 559.16
  Z
  M 402.1026 407.7450
  A 14.12 13.77 -173.8 0 0 414.6528 422.9595
  A 14.12 13.77 -173.8 0 0 430.1774 410.7950
  A 14.12 13.77 -173.8 0 0 417.6272 395.5805
  A 14.12 13.77 -173.8 0 0 402.1026 407.7450
  Z
  M 465.3045 406.8635
  A 14.08 13.86 -9.8 0 0 449.0709 395.6022
  A 14.08 13.86 -9.8 0 0 437.5555 411.6565
  A 14.08 13.86 -9.8 0 0 453.7891 422.9178
  A 14.08 13.86 -9.8 0 0 465.3045 406.8635
  Z
  M 488.6344 395.5484
  A 13.99 13.77 -81.1 0 0 472.8658 407.2396
  A 13.99 13.77 -81.1 0 0 484.3056 423.1916
  A 13.99 13.77 -81.1 0 0 500.0742 411.5004
  A 13.99 13.77 -81.1 0 0 488.6344 395.5484
  Z
  M 521.78 481.30
  A 17.26 17.26 0.0 0 0 504.52 464.04
  L 117.56 464.04
  A 17.26 17.26 0.0 0 0 100.30 481.30
  L 100.30 536.08
  A 17.26 17.26 0.0 0 0 117.56 553.34
  L 504.52 553.34
  A 17.26 17.26 0.0 0 0 521.78 536.08
  L 521.78 481.30
  Z"
/>
<ellipse fill="#232323" cx="0.00" cy="0.00" transform="translate(416.14,409.27) rotate(-173.8)" rx="14.12" ry="13.77"/>
<ellipse fill="#232323" cx="0.00" cy="0.00" transform="translate(451.43,409.26) rotate(-9.8)" rx="14.08" ry="13.86"/>
<ellipse fill="#232323" cx="0.00" cy="0.00" transform="translate(486.47,409.37) rotate(-81.1)" rx="13.99" ry="13.77"/>
<path fill="#232323" d="
  M 521.78 536.08
  A 17.26 17.26 0.0 0 1 504.52 553.34
  L 117.56 553.34
  A 17.26 17.26 0.0 0 1 100.30 536.08
  L 100.30 481.30
  A 17.26 17.26 0.0 0 1 117.56 464.04
  L 504.52 464.04
  A 17.26 17.26 0.0 0 1 521.78 481.30
  L 521.78 536.08
  Z
  M 512.15 480.55
  A 7.75 7.75 0.0 0 0 504.40 472.80
  L 117.98 472.80
  A 7.75 7.75 0.0 0 0 110.23 480.55
  L 110.23 535.69
  A 7.75 7.75 0.0 0 0 117.98 543.44
  L 504.40 543.44
  A 7.75 7.75 0.0 0 0 512.15 535.69
  L 512.15 480.55
  Z"
/>
<path fill="#ffffff" d="
  M 512.15 535.69
  A 7.75 7.75 0.0 0 1 504.40 543.44
  L 117.98 543.44
  A 7.75 7.75 0.0 0 1 110.23 535.69
  L 110.23 480.55
  A 7.75 7.75 0.0 0 1 117.98 472.80
  L 504.40 472.80
  A 7.75 7.75 0.0 0 1 512.15 480.55
  L 512.15 535.69
  Z
  M 402.0124 512.1487
  A 14.12 13.71 -177.6 0 0 415.5459 526.4380
  A 14.12 13.71 -177.6 0 0 430.2276 513.3313
  A 14.12 13.71 -177.6 0 0 416.6941 499.0420
  A 14.12 13.71 -177.6 0 0 402.0124 512.1487
  Z
  M 465.4976 512.1904
  A 14.08 13.77 -2.4 0 0 450.8534 499.0221
  A 14.08 13.77 -2.4 0 0 437.3624 513.3696
  A 14.08 13.77 -2.4 0 0 452.0066 526.5379
  A 14.08 13.77 -2.4 0 0 465.4976 512.1904
  Z
  M 500.34 512.84
  A 13.87 13.87 0.0 0 0 486.47 498.97
  A 13.87 13.87 0.0 0 0 472.60 512.84
  A 13.87 13.87 0.0 0 0 486.47 526.71
  A 13.87 13.87 0.0 0 0 500.34 512.84
  Z"
/>
<ellipse fill="#232323" cx="0.00" cy="0.00" transform="translate(416.12,512.74) rotate(-177.6)" rx="14.12" ry="13.71"/>
<ellipse fill="#232323" cx="0.00" cy="0.00" transform="translate(451.43,512.78) rotate(-2.4)" rx="14.08" ry="13.77"/>
<circle fill="#232323" cx="486.47" cy="512.84" r="13.87"/>
<path fill="#232323" d="
  M 521.76 654.65
  A 16.78 16.78 0.0 0 1 504.98 671.43
  L 116.98 671.43
  A 16.78 16.78 0.0 0 1 100.20 654.65
  L 100.20 598.49
  A 16.78 16.78 0.0 0 1 116.98 581.71
  L 504.98 581.71
  A 16.78 16.78 0.0 0 1 521.76 598.49
  L 521.76 654.65
  Z
  M 512.27 599.31
  A 8.20 8.20 0.0 0 0 504.07 591.11
  L 117.35 591.11
  A 8.20 8.20 0.0 0 0 109.15 599.31
  L 109.15 653.45
  A 8.20 8.20 0.0 0 0 117.35 661.65
  L 504.07 661.65
  A 8.20 8.20 0.0 0 0 512.27 653.45
  L 512.27 599.31
  Z"
/>
<path fill="#ffffff" d="
  M 512.27 653.45
  A 8.20 8.20 0.0 0 1 504.07 661.65
  L 117.35 661.65
  A 8.20 8.20 0.0 0 1 109.15 653.45
  L 109.15 599.31
  A 8.20 8.20 0.0 0 1 117.35 591.11
  L 504.07 591.11
  A 8.20 8.20 0.0 0 1 512.27 599.31
  L 512.27 653.45
  Z
  M 430.0706 627.0218
  A 13.98 13.69 -4.3 0 0 415.1035 614.4185
  A 13.98 13.69 -4.3 0 0 402.1894 629.1182
  A 13.98 13.69 -4.3 0 0 417.1565 641.7215
  A 13.98 13.69 -4.3 0 0 430.0706 627.0218
  Z
  M 437.4798 626.6977
  A 13.99 13.69 -174.7 0 0 450.1454 641.6215
  A 13.99 13.69 -174.7 0 0 465.3402 629.2823
  A 13.99 13.69 -174.7 0 0 452.6746 614.3585
  A 13.99 13.69 -174.7 0 0 437.4798 626.6977
  Z
  M 498.1875 620.6742
  A 13.94 13.70 -31.8 0 0 479.1207 616.3765
  A 13.94 13.70 -31.8 0 0 474.4925 635.3658
  A 13.94 13.70 -31.8 0 0 493.5593 639.6635
  A 13.94 13.70 -31.8 0 0 498.1875 620.6742
  Z"
/>
<ellipse fill="#232323" cx="0.00" cy="0.00" transform="translate(416.13,628.07) rotate(-4.3)" rx="13.98" ry="13.69"/>
<ellipse fill="#232323" cx="0.00" cy="0.00" transform="translate(451.41,627.99) rotate(-174.7)" rx="13.99" ry="13.69"/>
<ellipse fill="#232323" cx="0.00" cy="0.00" transform="translate(486.34,628.02) rotate(-31.8)" rx="13.94" ry="13.70"/>
<path fill="#232323" d="
  M 521.79 753.12
  A 16.73 16.73 0.0 0 1 505.06 769.85
  L 116.94 769.85
  A 16.73 16.73 0.0 0 1 100.21 753.12
  L 100.21 694.42
  A 16.73 16.73 0.0 0 1 116.94 677.69
  L 505.06 677.69
  A 16.73 16.73 0.0 0 1 521.79 694.42
  L 521.79 753.12
  Z
  M 512.16 695.65
  A 8.30 8.30 0.0 0 0 503.86 687.35
  L 117.48 687.35
  A 8.30 8.30 0.0 0 0 109.18 695.65
  L 109.18 752.67
  A 8.30 8.30 0.0 0 0 117.48 760.97
  L 503.86 760.97
  A 8.30 8.30 0.0 0 0 512.16 752.67
  L 512.16 695.65
  Z"
/>
<path fill="#ffffff" d="
  M 512.16 752.67
  A 8.30 8.30 0.0 0 1 503.86 760.97
  L 117.48 760.97
  A 8.30 8.30 0.0 0 1 109.18 752.67
  L 109.18 695.65
  A 8.30 8.30 0.0 0 1 117.48 687.35
  L 503.86 687.35
  A 8.30 8.30 0.0 0 1 512.16 695.65
  L 512.16 752.67
  Z
  M 465.4822 725.9559
  A 14.08 13.69 -3.6 0 0 450.5704 713.1770
  A 14.08 13.69 -3.6 0 0 437.3778 727.7241
  A 14.08 13.69 -3.6 0 0 452.2896 740.5030
  A 14.08 13.69 -3.6 0 0 465.4822 725.9559
  Z
  M 500.17 726.85
  A 13.86 13.86 0.0 0 0 486.31 712.99
  A 13.86 13.86 0.0 0 0 472.45 726.85
  A 13.86 13.86 0.0 0 0 486.31 740.71
  A 13.86 13.86 0.0 0 0 500.17 726.85
  Z
  M 430.0978 724.6561
  A 14.16 13.69 -9.2 0 0 413.9312 713.4061
  A 14.16 13.69 -9.2 0 0 402.1422 729.1839
  A 14.16 13.69 -9.2 0 0 418.3088 740.4339
  A 14.16 13.69 -9.2 0 0 430.0978 724.6561
  Z"
/>
<ellipse fill="#232323" cx="0.00" cy="0.00" transform="translate(451.43,726.84) rotate(-3.6)" rx="14.08" ry="13.69"/>
<circle fill="#232323" cx="486.31" cy="726.85" r="13.86"/>
<ellipse fill="#232323" cx="0.00" cy="0.00" transform="translate(416.12,726.92) rotate(-9.2)" rx="14.16" ry="13.69"/>
<path fill="#232323" d="
  M 521.72 859.91
  A 17.10 17.10 0.0 0 1 504.62 877.01
  L 117.16 877.01
  A 17.10 17.10 0.0 0 1 100.06 859.91
  L 100.06 799.93
  A 17.10 17.10 0.0 0 1 117.16 782.83
  L 504.62 782.83
  A 17.10 17.10 0.0 0 1 521.72 799.93
  L 521.72 859.91
  Z
  M 512.08 799.92
  A 8.06 8.06 0.0 0 0 504.02 791.86
  L 117.12 791.86
  A 8.06 8.06 0.0 0 0 109.06 799.92
  L 109.06 859.08
  A 8.06 8.06 0.0 0 0 117.12 867.14
  L 504.02 867.14
  A 8.06 8.06 0.0 0 0 512.08 859.08
  L 512.08 799.92
  Z"
/>
<path fill="#ffffff" d="
  M 512.08 859.08
  A 8.06 8.06 0.0 0 1 504.02 867.14
  L 117.12 867.14
  A 8.06 8.06 0.0 0 1 109.06 859.08
  L 109.06 799.92
  A 8.06 8.06 0.0 0 1 117.12 791.86
  L 504.02 791.86
  A 8.06 8.06 0.0 0 1 512.08 799.92
  L 512.08 859.08
  Z
  M 426.00 835.09
  A 8.94 8.94 0.0 0 0 417.06 826.15
  A 8.94 8.94 0.0 0 0 408.12 835.09
  A 8.94 8.94 0.0 0 0 417.06 844.03
  A 8.94 8.94 0.0 0 0 426.00 835.09
  Z
  M 460.67 835.03
  A 8.88 8.88 0.0 0 0 451.79 826.15
  A 8.88 8.88 0.0 0 0 442.91 835.03
  A 8.88 8.88 0.0 0 0 451.79 843.91
  A 8.88 8.88 0.0 0 0 460.67 835.03
  Z
  M 494.4542 830.9867
  A 9.03 8.86 -26.6 0 0 482.4129 827.1078
  A 9.03 8.86 -26.6 0 0 478.3058 839.0733
  A 9.03 8.86 -26.6 0 0 490.3471 842.9522
  A 9.03 8.86 -26.6 0 0 494.4542 830.9867
  Z"
/>
<circle fill="#232323" cx="417.06" cy="835.09" r="8.94"/>
<circle fill="#232323" cx="451.79" cy="835.03" r="8.88"/>
<ellipse fill="#232323" cx="0.00" cy="0.00" transform="translate(486.38,835.03) rotate(-26.6)" rx="9.03" ry="8.86"/>
<path fill="#232323" d="
  M 521.75 958.75
  A 17.43 17.43 0.0 0 1 504.32 976.18
  L 117.62 976.18
  A 17.43 17.43 0.0 0 1 100.19 958.75
  L 100.19 901.49
  A 17.43 17.43 0.0 0 1 117.62 884.06
  L 504.32 884.06
  A 17.43 17.43 0.0 0 1 521.75 901.49
  L 521.75 958.75
  Z
  M 503.50 966.25
  C 511.98 966.25 512.01 960.87 512.03 954.19
  Q 512.10 919.74 512.01 900.75
  C 511.98 893.91 505.75 893.93 500.75 893.93
  Q 392.63 893.90 167.42 893.97
  C 152.53 893.97 133.39 893.43 122.75 893.11
  C 113.19 892.83 109.15 895.82 109.09 905.77
  Q 108.96 930.74 109.13 951.00
  C 109.21 959.68 108.81 966.26 119.75 966.26
  Q 264.99 966.23 503.50 966.25
  Z"
/>
<path fill="#ffffff" d="
  M 512.03 954.19
  C 512.01 960.87 511.98 966.25 503.50 966.25
  Q 264.99 966.23 119.75 966.26
  C 108.81 966.26 109.21 959.68 109.13 951.00
  Q 108.96 930.74 109.09 905.77
  C 109.15 895.82 113.19 892.83 122.75 893.11
  C 133.39 893.43 152.53 893.97 167.42 893.97
  Q 392.63 893.90 500.75 893.93
  C 505.75 893.93 511.98 893.91 512.01 900.75
  Q 512.10 919.74 512.03 954.19
  Z
  M 500.24 932.11
  A 13.91 13.91 0.0 0 0 486.33 918.20
  A 13.91 13.91 0.0 0 0 472.42 932.11
  A 13.91 13.91 0.0 0 0 486.33 946.02
  A 13.91 13.91 0.0 0 0 500.24 932.11
  Z
  M 430.1754 930.7527
  A 14.08 13.74 -5.9 0 0 414.7576 918.5328
  A 14.08 13.74 -5.9 0 0 402.1646 933.6473
  A 14.08 13.74 -5.9 0 0 417.5824 945.8672
  A 14.08 13.74 -5.9 0 0 430.1754 930.7527
  Z
  M 465.4061 930.3747
  A 14.05 13.72 -7.3 0 0 449.7267 918.5512
  A 14.05 13.72 -7.3 0 0 437.5339 933.9453
  A 14.05 13.72 -7.3 0 0 453.2133 945.7688
  A 14.05 13.72 -7.3 0 0 465.4061 930.3747
  Z"
/>
<circle fill="#232323" cx="486.33" cy="932.11" r="13.91"/>
<ellipse fill="#232323" cx="0.00" cy="0.00" transform="translate(416.17,932.20) rotate(-5.9)" rx="14.08" ry="13.74"/>
<ellipse fill="#232323" cx="0.00" cy="0.00" transform="translate(451.47,932.16) rotate(-7.3)" rx="14.05" ry="13.72"/>
<rect fill="#ffffff" x="444.99" y="1013.07" width="57.86" height="16.34" rx="4.66"/>
<rect fill="#ffffff" x="-28.98" y="-8.17" transform="translate(150.18,1021.25) rotate(-0.1)" width="57.96" height="16.34" rx="4.89"/>
</svg>
