<?xml version="1.0" encoding="UTF-8"?>
<svg id="Layer_1" data-name="Layer 1" xmlns="http://www.w3.org/2000/svg" viewBox="0 0 609.09 484.97">
  <defs>
    <style>
      .cls-1 {
        fill: none;
        stroke: #000;
        stroke-width: 5px;
      }
    </style>
  </defs>
  <path class="cls-1" d="M547.13,60.95l17.08.7c.26,0,.49-.19.5-.45,0-.07-.01-.14-.04-.21l-2.28-5.43c-.14-.31-.5-.46-.82-.32-.07.03-.14.08-.19.13l-1.81,1.81c-.31.31-.81.31-1.11,0-.11-.11-.19-.26-.22-.41l-.41-2.33c-.02-.11-.06-.21-.12-.3-2.66-4.47-4.25-8.6-4.76-12.37-.59-4.34-1.21-7.45-1.88-9.33-2.65-7.45-3.38-13.78-3.73-20.48-.15-2.77-1.63-5.31-4.46-7.62-.36-.29-.78-.49-1.23-.59-5.06-1.1-8.44-1.48-10.13-1.13-8.32,1.69-15.73,2.81-22.23,3.35-.11.01-.21.04-.31.07l-9.87,3.48c-.27.1-.53.23-.77.4-3.91,2.78-7.63,5.93-9.06,11-2.73,9.67-4.09,19.01-4.1,28.02,0,2.71.59,11.14,1.77,25.28.05.51.18,1,.4,1.46l2.73,5.6c.2.41.03.9-.38,1.1-.12.06-.26.09-.39.08l-2.99-.12c-.35-.01-.69.14-.92.4-11.23,13.33-25.21,21.77-40.46,30.65-.36.21-.49.67-.29,1.04.13.23.36.37.63.38,3.4.21,6.7-2,9.95-.11.41.24.62.72.52,1.18-1.57,7.01-2.52,11.18-2.83,12.5-1.62,6.88-1.21,14.4-1.75,20.24-.05.51.33.97.83,1.01.16.02.33-.01.48-.08.15-.06.36-.23.63-.51.83-.83,1.26-2.81,1.9-3.72.28-.38.63-.7,1.04-.94l7.08-4.09c.41-.25.95-.11,1.19.3.19.32.15.73-.09,1.02l-5.76,6.76c-.12.15-.09.36.05.48.07.06.16.08.25.07,2.05-.25,3.6.44,4.66,2.06.33.5,1,.64,1.5.3.09-.06.18-.14.25-.22,2.88-3.58,6.75-6.01,13.27-10.93.55-.42,1.07-.88,1.56-1.39,2.63-2.74,4.43-4.3,5.41-4.67,5.03-1.91,15.3-5.65,30.82-11.22,2.69-.96,6.6-1.2,11.75-.72,1.91.18,3.16.09,3.74-.27.7-.44,1.06-1.67,1.07-3.69,0-.49.4-.88.89-.88.13,0,.26.03.38.09,10.63,5.04,19.74,8.27,32.23,11.06,8.37,1.87,15.42.27,21.16-4.78.24-.22.39-.53.4-.86l.13-2.98c.01-.35.12-.68.31-.97l9.8-14.8c.11-.18.34-.24.53-.14l.29.14c.18.09.25.32.16.5h0s-6.58,13.06-6.58,13.06c-.02.05,0,.11.04.14l.32.22c.08.06.2.04.26-.04,2.83-3.69,5.08-7.6,6.75-11.73.78-1.93,1.8-4.25,3.05-6.96,2.76-5.92,3.73-8.88,3.67-14.95,0-.55-.25-1.08-.66-1.46-5.11-4.61-8.07-8.51-13.63-9.43-11.59-1.92-18.87-2.56-27.83-7.01-.17-.08-.35-.15-.54-.2l-16.89-4.69c-.15-.04-.24-.19-.2-.34.03-.13.16-.22.29-.21" vector-effect="non-scaling-stroke"/>
  <path class="cls-1" d="M146.97,103.85c-2.36-2.21-5.37-3.92-7.78-6.32-2.91-2.91-4.97-4.9-6.16-5.97-8.8-7.9-13.56-17.24-15.04-28.82-.95-7.38-.95-14.27-.99-20.84-.04-5.5-1.58-11.28-2.28-16.66-.3-2.29-2.16-7.48-4.62-9.36-.3-.23-.65-.39-1.02-.46l-2.88-.57c-.45-.09-.88-.28-1.24-.57-11.87-9.3-26.36-8.06-39.4-1.83-.49.24-1.02.38-1.57.42-1.8.14-3.91-.13-5.66.69-3.89,1.85-5.72,8.6-5.78,11.93-.09,5.79-.24,9.92-.47,12.39-.64,6.86.85,11.85,3.59,17.74.45.96.78,2.57.4,3.53-.17.41-.64.6-1.04.43-.19-.08-.34-.23-.43-.41-.31-.69-.78-1.43-1.43-2.23-.22-.28-.63-.33-.91-.1,0,0-.01,0-.02.01l-4.82,4.03c-.23.2-.4.45-.49.73-.41,1.19-.87,2.06-1.38,2.59-3.84,4.01-9.36,9.91-14.66,14.31-7.06,5.87-17.12,11.75-22.25,15.01-1.17.73-2.73,2.15-4.7,4.25-.44.47-.73,1.06-.83,1.7-.84,5.57-.81,9.68.1,12.31,2.42,6.99,8.91,15.5,14.46,20.2,6.2,5.26,16.63,7.47,24.48,8.63.35.05.7.03,1.03-.08,1.33-.41,4.65-1.59,9.97-3.53,6.92-2.52,13.54-7.21,20.66-9.98,3.03-1.18,6.31-1.72,9.26-2.41.6-.14,1.16-.38,1.67-.71,1.59-1.02,2.95-2.13,4.78-2.56,4.76-1.11,9.06,1.27,13.89,1.69,5.1.44,9.98,2.18,14.65,5.22,3.56,2.32,6.16,4.41,9.86,6.38,9.33,4.97,16.09,8.7,21.59,13.47.17.15.42.13.56-.03.09-.1.12-.24.09-.38-.12-.45-.43-1.08-.92-1.89-1.01-1.68-3.5-5.61-7.46-11.79-.18-.3-.09-.68.21-.87.17-.11.38-.12.57-.04,3.65,1.64,7.59,2.16,11.82,1.57.45-.06.79-.46.77-.92-.08-1.88-.5-3.65-1.27-5.3-.26-.56-.29-1.21-.08-1.79,1.25-3.44,2.26-6.77,3.03-9.99.65-2.71-.12-4.22-2.3-4.55-.01,0-1.77-.65-5.27-1.92-.6-.23-1.18-.53-1.71-.9l-20.12-13.96c-.32-.22-.61-.47-.88-.74l-13.89-14.1c-.1-.1-.15-.23-.14-.37l.09-.16c.12-.23.42-.32.65-.2.02.01.04.02.06.04l33.55,24.53s.08.02.11,0h0c.13-.14.12-.35-.02-.48" vector-effect="non-scaling-stroke"/>
  <path class="cls-1" d="M427.74,138.83l3.11,10.83c.11.38-.1.78-.49.9-.21.06-.44.02-.62-.11l-1.51-1.05c-.6-.41-1.04-1.03-1.24-1.73-1.93-6.92-5.22-13.03-9.86-18.32-6.62-7.56-14.45-14.54-23.5-20.94-6.73-4.76-14.71-9.9-22.77-14-.53-.27-.94-.7-1.25-1.29-.08-.15-.02-.34.13-.42.06-.03.13-.04.2-.03,11.62,2.24,22.49,5.76,33.02,10.93,5.05,2.48,8,3.93,8.85,4.36,7.17,3.6,12.71,8.44,18.47,15.27,5.05,5.99,8.02,9.54,8.93,10.65.15.2.44.24.64.09.14-.1.21-.28.18-.45-.65-4.32-1.64-8.63-4.51-13.1-2.75-4.27-4.56-7.07-5.43-8.42-.21-.33-.11-.77.21-.98.03-.02.07-.04.11-.05l.04-.02c.47-.19,1-.06,1.31.34.76.98,1.54,1.71,2.33,2.18.25.15.57.07.71-.17.08-.13.1-.28.06-.42-.37-1.31-.99-2.54-1.84-3.67-3.84-5.05-6.2-8.17-7.09-9.34-2.41-3.18-4.41-5.41-5.98-6.7-5.63-4.59-9.35-7.47-16.34-13.55-.15-.13-.17-.36-.03-.51.04-.04.08-.08.13-.1l.27-.11c.11-.05.23-.04.34.02l8.9,5.14c.07.04.15.02.19-.05.03-.05.03-.12-.01-.16-9.76-12.03-21.79-21.1-36.08-27.19-32.96-14.03-67.47-20.35-103.53-18.96-5.41.21-10.59.98-15.55,2.32-.14.03-.23.18-.19.32.03.12.14.2.27.2,9.77-.33,19.61-.1,29.51.71.53.05.91.52.86,1.05-.03.35-.26.65-.58.79-3.53,1.42-7.56,3.6-12.11,6.54-.65.42-1.15.41-1.49-.04-.15-.19-.16-.46-.02-.65l2.14-3.08c.28-.4.18-.96-.22-1.24-.1-.07-.21-.12-.34-.14-2.82-.57-5.66-.66-8.53-.27-5.15.71-9.1,1.38-11.86,2.02-.47.11-.96.13-1.44.07l-1.22-.16c-.47-.07-.94-.04-1.4.09-1.45.39-6.91,1.7-16.38,3.94-4.61,1.09-7.64,2.06-9.08,2.91-6.47,3.81-12.38,7.23-17.72,10.25-4.52,2.55-8.25,7.95-11.87,11.42-3.4,3.25-5.59,5.64-6.58,7.16-8.47,12.98-14.6,22.31-19.24,35.43-2.88,8.16-4.9,14.25-6.07,18.26-.29,1.01-.36,1.69-.19,2.04.04.07.13.1.2.06.02-.01.04-.03.06-.05l6.23-10.79c.2-.35.64-.48.99-.28.33.18.46.58.32.92-3.41,8.41-5.28,14.83-5.23,25.37,0,.08-.01.16-.04.24l-1.67,4.93c-.05.12-.07.25-.08.38l-.75,18.39c-.01.28.21.51.49.52.04,0,.07,0,.11,0,1-.18,1.58-.56,1.73-1.13.78-2.85,2-5.51,3.66-7.99.13-.22.42-.3.64-.17.19.11.28.35.21.56l-1.43,5.13c-.11.4.12.81.52.93.2.06.42.03.6-.09.58-.36,1.11-.86,1.58-1.5,10.59-14.25,17.4-23.19,20.45-26.8.23-.28.56-.51.97-.68.26-.1.55.02.65.28.05.13.05.27,0,.39-7.65,16.42-15.33,33.13-23.03,50.12-1.4,3.09-1.39,6.71.03,10.86,2.95,8.61,5.52,15.08,7.71,19.39,2.35,4.61,4.23,8.33,5.65,11.16.4.8.67,1.66.8,2.55.61,4.18.71,7.55.3,10.1-1.39,8.73-5.78,17.05-13.16,24.97-2.17,2.33-3.89,6.1-5.16,11.31-.21.89-.25,1.82-.1,2.72.74,4.63,1.26,6.65,1.2,11.5-.05,3.94.75,8.14,2.42,12.6.16.41.62.62,1.03.46.02,0,.04-.02.06-.02.31-.15.71-.49,1.19-1.03.48-.55,1.24-.69,1.78-.33,4.8,3.13,9.97,5.96,15.52,8.47,7.48,3.38,14.03,3.66,23.29,5.24.38.06.77-.09,1.02-.39,4.41-5.56,7.07-8.76,7.96-9.6,4.38-4.11,10.5-4.63,16.39-3.54,12.51,2.31,11.75,22.95,10.99,31.98-.03.39-.02.77.04,1.15l3.26,22.15c.14.97.72,1.82,1.57,2.31l6.61,3.82c.64.36,1.46.14,1.82-.5.02-.04.04-.08.06-.11.55-1.26.99-2.86,1.31-4.8.47-2.9,1.58-6.16,2.21-7.91.64-1.8,1.47-2.74,2.48-2.83.31-.03.58.2.61.51,0,.01,0,.02,0,.03.19,5.17,1.02,10.7,2.49,16.57.2.8,1.01,1.28,1.81,1.08.02,0,.04,0,.05-.01l2.52-.72c.53-.15,1.1.07,1.4.54,1.13,1.82,2.25,3.09,3.35,3.8.76.49,1.77.34,2.35-.34l5.31-6.24c.39-.46,1.08-.51,1.53-.12.05.04.09.08.13.13l5.03,5.99c.08.1.21.15.34.13l14.89-2.19c.79-.11,1.49-.59,1.87-1.29,2.63-4.71,4.76-9.03,6.37-12.96.22-.55.84-.82,1.38-.6.15.06.28.15.38.26.17.19.3.53.39,1.03.31,1.78.61,4.37.91,7.77.12,1.34.75,2.59,1.76,3.48,1.82,1.59,3.4,3.69,4.73,6.3.32.61,1.01.93,1.68.76,3.83-.96,4.47-3.95,5.49-7.42.12-.42.44-.74.86-.85,1.85-.51,2.92-1.83,3.21-3.96.11-.84.89-1.93,1.82-2.03.38-.05.73.22.79.61l1.32,9.01c.03.2.22.34.42.32.03,0,.07-.01.1-.03l7.12-2.94c.33-.14.69-.21,1.05-.22.19,0,1.06.25,2.63.77,3.02,1,3.9-1.76,4.26-4.44,1.07-8.05,2.25-16.12,3.54-24.19.03-.19.05-.39.04-.58l-.37-15.08c-.02-.59-.33-1.14-.83-1.45-2.75-1.73-4.12-5.62-1.44-8.03,2.51-2.26,3.97-3.56,4.36-3.9.22-.18.24-.51.05-.72-.15-.16-.38-.22-.59-.14l-6.88,2.9c-.23.1-.5,0-.61-.23-.07-.15-.05-.32.05-.46,1.89-2.68,7.31-5.39,8.93-6.4.56-.34.97-.88,1.14-1.51l1.18-4.24c.16-.57.74-.91,1.31-.75.22.06.42.19.57.38.67.87,1.04,1.75,1.09,2.66.04.65.59,1.14,1.25,1.1.15,0,.31-.05.44-.12,5.73-2.81,11.08-5.67,16.03-8.56.23-.13.41-.19.54-.16.34.06.56.4.49.75-.02.09-.05.17-.1.25-2.89,4.14-6.08,7.86-9.56,11.17-.55.52-.57,1.38-.05,1.92.08.09.18.16.28.23,2.69,1.65,4.96,3.89,6.8,6.7.38.58,1.16.75,1.75.37.05-.03.09-.06.13-.1l2.21-1.84c.37-.31.93-.26,1.24.11.24.28.27.68.09,1l-2.01,3.47c-.37.66-.15,1.49.51,1.87.16.09.34.15.53.17,1.16.13,2.45.06,3.88-.21,6.57-1.25,13.13-2.37,19.68-3.38.65-.1,1.29-.26,1.9-.49,6.24-2.31,12.28-5.19,18.13-8.64.79-.46,1.6-1.08,2.44-1.85.66-.61,1.69-.57,2.3.1.23.25.37.56.42.89.06.53.03,1.01-.08,1.45-.08.32.12.64.43.71.15.04.3.01.43-.06.41-.24.71-.59.9-1.06,1.6-3.87,2.59-8.62,2.97-14.26.06-.96-.36-1.88-1.13-2.46-6.57-4.96-11.16-11.68-13.78-20.17-.1-.32-.44-.49-.75-.39-.02,0-.04.01-.05.02l-5.11,2.15c-.28.12-.61-.01-.74-.29-.08-.19-.05-.4.08-.56,3.02-3.85,5.98-6.43,8.64-11.42.08-.14.12-.31.12-.48v-10.45c0-.3-.06-.59-.18-.87-2.79-6.36-3.76-10.22-6.93-13-.29-.25-.32-.69-.07-.97.08-.09.18-.16.29-.2.84-.31,1.52-.71,2.05-1.22.17-.17.32-.36.45-.57,9.05-15.39,14.23-31.89,15.56-49.52.11-1.45-.28-4.32-1.17-8.59-.07-.31-.1-.63-.09-.96l.26-8.45c.02-.6-.05-1.19-.22-1.77-.86-3.03-2.15-6.59-3.86-10.68-1.17-2.81-3.27-5.2-4.25-8.3-1.43-4.51-3.69-8.92-6.45-12.93-.13-.18-.39-.22-.57-.09-.14.1-.2.27-.16.43" vector-effect="non-scaling-stroke"/>
  <path class="cls-1" d="M441.34,358.49l-17.93-13.99c-.1-.08-.23-.13-.35-.13-6.01-.15-12.3-1.52-18.85-4.11-.77-.31-1.6-.82-2.5-1.53-.63-.49-1.54-.38-2.04.25-.02.02-.03.04-.04.06l-2.18,3.14c-.17.25-.49.36-.79.27-2.43-.77-4.96-1.13-7.6-1.06-.92.02-1.57.2-1.95.55-.54.48-.55,1.34-.02,1.92,0,0,0,0,0,0,2.14,2.37,4.64,4.63,7.5,6.78,4.78,3.61,8.92,6.72,12.43,9.33.58.43.99,1.06,1.15,1.76.53,2.36,1.63,3.98,3.49,5.9,5.82,6.01,11.21,11.86,16.18,17.55,5.99,6.87,9.67,13.81,9.74,22.01.05,6.5.13,11.59.23,15.26,0,.09-.08.8-.25,2.11-.03.23.14.45.37.48.13.02.26-.03.35-.12l4.63-4.62c.18-.18.47-.18.65,0,.06.07.11.15.12.24.09.53.1.89.02,1.09-1.83,4.38-3.53,8.84-5.1,13.39-3.12,9-.47,20.66-.87,26.81-.04.6.06,1.2.28,1.75,1.22,2.96,3.04,8.08,6.03,9.21,8.76,3.31,15.15,5.65,19.16,7.02,2.26.77,5.12,1.14,8.58,1.11,5.14-.04,10.21-.45,15.2-1.23.62-.1,1.17-.44,1.52-.95l1.11-1.6c.17-.25.45-.41.75-.44,1.62-.17,2.78-.73,3.47-1.66,2.05-2.75,3.27-5.78,3.65-9.1.09-.81.89-8.41,2.4-22.79.5-4.79,1.39-8.16,2.38-12.74.4-1.88,1.21-3.53,2.43-4.96.1-.11.26-.11.37-.02.05.04.08.1.08.17l.78,9.69c.04.58.54,1.01,1.12.97.2-.01.39-.08.55-.2,3.57-2.59,5.69-4.08,6.36-4.46,7.41-4.23,14.6-7.86,21.57-10.91,3.13-1.37,5.64-3.08,7.27-5.27,1.83-2.47,3.72-4.4,5.65-5.81,1.01-.74,1.71-1.84,1.94-3.07,1.79-9.46-1.77-21.6-5.43-30.53-2.67-6.53-9.94-9.82-16.45-12.79-1.79-.81-3.54-1.29-5.25-1.44-5.47-.45-11.79-1.01-18.96-1.68-2.98-.28-9.21.38-12.74,2.41-1.91,1.09-4.05,1.6-6.44,1.51-1.37-.04-2.72.61-4.11,1.27-.45.21-.97.17-1.38-.1l-8.16-5.49c-.29-.19-.6-.37-.92-.52-3.59-1.67-6.04-3.1-7.35-4.29-3.63-3.28-7.22-6.13-10.76-8.55-4.47-3.05-9.09-7.24-14.35-10.61-.45-.29-.99-.4-1.52-.31-2.71.45-4.79.37-6.23-.26-2.33-1.03-4.3-1.78-5.93-2.25-.23-.06-.47.07-.53.3-.03.11-.01.24.05.34l4.22,6.54c.25.37.45.77.6,1.19.99,2.63,1.81,4.31,2.47,5.05,5.69,6.33,9.2,10.25,10.51,11.76.1.12.08.29-.04.38-.1.08-.23.08-.34.01" vector-effect="non-scaling-stroke"/>
  <path class="cls-1" d="M174.37,416.84l1.93-12.84c.04-.25.02-.5-.07-.74-.52-1.42-1.16-2.43-1.93-3.02-.21-.16-.25-.45-.09-.66.02-.03.04-.05.07-.07.45-.38,1.37-1.98,2.77-4.79.79-1.58,1.77-3.13,2.94-4.65,3.4-4.37,6.95-8.63,10.64-12.78,8.8-9.88,16.42-18.1,22.86-24.65.56-.57,1.19-1.08,1.87-1.52,4.94-3.2,7.59-4.79,10.31-8.3.19-.24.16-.58-.08-.77-.21-.17-.51-.16-.71.01l-1.4,1.17c-1.03.86-2.55.72-3.41-.31-.19-.23-.34-.49-.43-.77l-.88-2.58c-.31-.9-1.29-1.39-2.2-1.08-.27.09-.52.25-.71.47l-15.89,17.27c-.12.12-.31.13-.44.02-.1-.09-.13-.24-.06-.36,1.73-3.41,3.14-6.43,4.21-9.07,1.6-3.96-2.11-4.43-3.32-7.05-.08-.18-.11-.37-.08-.55l.43-2.89c.03-.16-.08-.31-.23-.34-.08-.01-.15,0-.22.05-1.42.94-3.12,1.76-5.11,2.46-4.65,1.65-10.18,3.02-16.59,4.11-3.83.65-6.92-.19-9.29-2.5-.3-.29-.77-.28-1.05,0-.02.02-.03.03-.05.05-1.68,2.07-4.91,5.55-9.7,10.44-2.62,2.68-4.44,5.92-5.46,9.72-.07.24-.31.38-.55.32-.09-.02-.17-.08-.23-.15l-1.35-1.61c-.33-.4-.91-.45-1.32-.13-9.5,7.55-19.18,11.92-31.38,11.97-9.92.04-18.33-1.03-33.38-2.32-3.3-.28-18.24-1-19.54,3.85-.22.84.3,1.7,1.16,1.92.11.03.23.05.34.05,1.77.07,3.13.82,4.07,2.24.22.34.13.79-.2,1.01-.1.06-.21.11-.33.12-1.67.19-10.69,2.75-12.11,5.01-2.91,4.66-5.15,13.18-4,19.37,2.06,10.95,5.4,20.09,15.43,24.66,7.67,3.51,15.1,3.75,23.93,4.36.44.03.82-.31.85-.75.01-.21-.06-.42-.2-.58-1.6-1.73-3.65-3.54-3.8-5.26-.03-.38.24-.72.62-.75.1,0,.21,0,.3.04,4.35,1.6,11.79,4.19,14.73,7.64.12.15.21.31.28.5l15.01,44.02c.52,1.54,1.72,2.77,3.25,3.34l8.59,3.21c.49.18,1.03-.06,1.21-.55.1-.26.08-.55-.06-.79-.63-1.14-.9-2.24-.79-3.31.02-.22.22-.39.44-.37.09,0,.17.05.24.11,2.05,1.89,5.17,2.58,9.34,2.05,6.07-.77,13.01-2.42,17.78-6.28,4.52-3.67,8.42-7.65,10.76-13.28.14-.35.11-.74-.08-1.06-.29-.49-.48-.95-.55-1.37-.07-.41-.02-.83.15-1.21l1.14-2.47c.27-.6.41-1.25.41-1.91,0-5.14-.13-13.54-.94-20.01-1.16-9.31-1.63-18.37-.73-27.5.31-3.17.08-5.64-.03-8.75-.06-1.52.13-2.61.58-3.28.07-.1.2-.13.31-.06.05.03.09.09.09.15.51,3.37.77,5.97.78,7.8.02,3.37.08,5.46.18,6.29.11.89.26,4.29.44,10.2.02.15.15.25.3.23.11-.01.2-.1.23-.2" vector-effect="non-scaling-stroke"/>
  <path class="cls-1" d="M203.99,217.78c-.35.69-.88,1.25-1.54,1.63l-7.7,4.44c-.87.51-1.3,1.54-1.04,2.52,1.67,6.29,4.26,12.9,7.76,19.81,3.11,6.15,7.38,11.47,11.39,16.65.43.55.49,1.3.17,1.92-1.51,2.89-2.94,6.12-4.27,9.67-3.31,8.85-6.39,17.52-9.23,26.03-.05.17.04.35.21.4.13.04.27,0,.34-.11l20.44-27.96c.22-.3.64-.36.94-.14.03.02.06.05.08.07,1.21,1.25,3.05,3.06,5.5,5.44.41.41.78,1.61,1.11,3.62.06.36.26.69.57.89.83.56,1.77.83,2.84.81,5-.09,10.32-.61,15.96-1.57,8.43-1.44,14.55-6.13,20.7-12.41.81-.83,1.78-1.49,2.86-1.94l1.36-.58c.66-.28,1.24-.7,1.7-1.25,1.68-1.99,3.75-3.7,6.22-5.13,3.33-1.92,4.02-2.84,6.1-6.23,4.65-7.59,4.72-16.51-.15-24.06-2.13-3.31-3.64-5.51-4.53-6.61-4.32-5.36-10.33-7.64-17-9.73-.57-.17-.88-.77-.71-1.34.04-.14.12-.27.21-.38l34.31-40.34c.16-.18.15-.45-.03-.61-.15-.14-.38-.15-.55-.02-6.29,4.42-13.2,9.56-20.75,15.41-7.65,5.93-14.93,12.24-21.84,18.91-.19.19-.5.19-.71.02-4.73-3.98-10.21-7.34-16.46-10.08-.31-.14-.67-.01-.83.28-1.99,3.67-4.98,6.63-8.97,8.9-.24.13-.53.04-.67-.19-.09-.15-.08-.34.02-.49l3.48-5.38c.27-.41.15-.95-.26-1.22-.15-.1-.32-.14-.49-.14-.06,0-.22.06-.48.17-11.82,5.27-23.57,11.6-35.26,18.99-.43.27-1.21.9-2.36,1.91-.14.12-.15.33-.03.47.09.11.25.14.38.08l12.07-5.09c.3-.12.64.02.76.32.06.15.06.32-.02.47l-1.6,3.17" vector-effect="non-scaling-stroke"/>
  <path class="cls-1" d="M402.99,261.13c4.03-5.17,7.75-10.36,11.16-15.56,2.96-4.49,4.84-8.98,5.2-14.69.37-5.79,1.32-11.21-2.03-14.22-1.09-.98-3.32-2.29-6.69-3.92-6.6-3.19-14.63-6.34-22.3-7.66-3.48-.6-6.57-2.41-9.28-5.43-.17-.18-.29-.41-.34-.65l-.6-2.72c-.14-.63-.76-1.04-1.41-.93-.97.17-1.92.55-2.86,1.16-8.21,5.31-15.93,10.82-23.16,16.55-1.04.82-2.22,1.43-3.49,1.81-4.46,1.33-8.56,3.4-12.3,6.21-.29.22-.45.57-.42.94l.22,2.76c.04.41-.16.81-.5,1.03-3.65,2.35-7.01,3.49-8.5,8.31-1.08,3.48-2.99,10.33-1.49,13.94,1.49,3.61,3.39,7.42,5.68,11.45.44.76,1.09,1.38,1.87,1.77l2.61,1.31c.41.2.77.5,1.05.86,3.27,3.9,3.03,8.13,9.74,8.92,1.29.16,2.64.63,4.04,1.42,5.49,3.09,8.83,4.91,10.04,5.48,6.18,2.9,13.06,3.58,19.3,4.11,2.27.19,4.43.08,6.5-.35.88-.18,1.5-.96,1.47-1.86-.04-1.43.15-2.55,1.56-3.36,6.23-3.53,11.7-8.15,16.43-13.85.08-.09.13-.2.15-.32.11-.53-.36-1.05-1.43-1.56-.31-.15-.44-.52-.29-.83.02-.04.04-.08.07-.12" vector-effect="non-scaling-stroke"/>
  <path class="cls-1" d="M308.34,281.33c.65-4.13-4.43-4.46-7.81-5.41-1.01-.29-2.1-.02-2.87.69-.75.71-1.54,1.83-2.36,3.37-2.38,4.48-3.68,9.08-6.04,13.37-1.31,2.39-2.32,5.04-3.05,7.97-.88,3.6-2.12,5.7-4.4,9.52-4.02,6.71-7.47,14.92-2.35,21.87.44.61,1.29.74,1.9.29.02-.02.05-.04.07-.05,1.78-1.5,4.1-2.31,4.83.95.11.49.51.85,1.01.9,5.37.53,12.73-4.75,16.1-8.24.54-.56,1.44-.59,2.01-.05,2.33,2.19,7.79,3.64,7.97-1.37,0-.19.16-.34.34-.33.06,0,.12.02.17.05,5.63,3.38,11.93,5.67,18.9,6.87.32.05.61-.16.66-.47.01-.06,0-.13,0-.2-.38-1.94-1.94-3.39-3.54-5.54-.07-.11-.04-.25.06-.32.07-.05.16-.05.24-.01l5.27,3.04c.79.45,1.8.19,2.25-.6,0,0,0,0,0,0,2.32-4.02.43-6.02-.69-9.76-.14-.45-.2-.92-.19-1.39.16-8.64-6.07-16.1-9.25-24.08-2.94-7.4-5.74-14.6-13.76-17.45-.81-.28-1.69.14-1.98.94-.05.13-.07.27-.08.4-.17,2.4-1.15,4.19-2.92,5.36-.15.1-.35.05-.44-.09-.04-.07-.06-.15-.05-.23" vector-effect="non-scaling-stroke"/>
</svg>