<?xml version="1.0" encoding="UTF-8" standalone="no"?>
<!DOCTYPE svg PUBLIC "-//W3C//DTD SVG 1.1//EN" "http://www.w3.org/Graphics/SVG/1.1/DTD/svg11.dtd">
<svg xmlns="http://www.w3.org/2000/svg" version="1.1" viewBox="0.00 0.00 730.00 728.00">
<g stroke-width="2.00" fill="none" stroke-linecap="butt">
<path stroke="#7c7c7c" vector-effect="non-scaling-stroke" d="
  M 625.98 336.00
  A 255.98 255.98 0.0 0 0 370.00 80.02
  A 255.98 255.98 0.0 0 0 114.02 336.00
  A 255.98 255.98 0.0 0 0 370.00 591.98
  A 255.98 255.98 0.0 0 0 625.98 336.00"
/>
<path stroke="#7c7c7c" vector-effect="non-scaling-stroke" d="
  M 370.00 122.67
  C 406.93 122.67 443.06 132.29 475.15 150.43
  Q 475.24 150.48 475.40 150.38
  A 0.08 0.07 -42.6 0 0 475.41 150.26
  C 465.88 141.62 475.37 127.25 486.79 132.65
  A 0.07 0.05 -31.7 0 0 486.84 132.65
  Q 486.86 132.64 486.87 132.64
  A 0.03 0.02 -31.7 0 0 486.89 132.59
  Q 433.40 101.85 371.29 101.39
  A 0.45 0.33 27.3 0 0 371.16 101.41
  L 370.61 101.55
  A 0.02 0.02 0.0 0 0 370.61 101.59
  C 378.16 102.00 382.87 109.96 379.37 116.71
  C 377.59 120.14 374.09 122.59 370.00 122.59
  C 365.91 122.59 362.40 120.14 360.63 116.71
  C 357.13 109.96 361.84 102.00 369.39 101.59
  A 0.02 0.02 0.0 0 0 369.39 101.55
  L 368.84 101.41
  A 0.45 0.33 -27.3 0 0 368.71 101.39
  Q 306.60 101.85 253.11 132.60
  A 0.03 0.02 31.7 0 0 253.13 132.65
  Q 253.14 132.65 253.16 132.66
  A 0.07 0.05 31.7 0 0 253.21 132.66
  C 264.63 127.26 274.12 141.63 264.59 150.27
  A 0.08 0.07 42.6 0 0 264.60 150.39
  Q 264.76 150.49 264.85 150.44
  C 296.94 132.29 333.07 122.67 370.00 122.67"
/>
<path stroke="#7c7c7c" vector-effect="non-scaling-stroke" d="
  M 204.08 170.09
  Q 183.19 191.00 167.17 217.76
  Q 167.11 217.87 167.11 218.00
  A 0.14 0.14 0.0 0 0 167.36 218.08
  C 175.03 207.92 189.97 216.10 185.85 227.78
  A 0.15 0.15 0.0 0 0 186.12 227.91
  Q 200.54 203.78 219.15 185.15
  Q 237.76 166.53 261.89 152.11
  A 0.15 0.15 0.0 0 0 261.76 151.84
  C 250.08 155.96 241.90 141.03 252.05 133.35
  A 0.14 0.14 0.0 0 0 251.97 133.10
  Q 251.84 133.10 251.73 133.16
  Q 224.98 149.19 204.08 170.09"
/>
<path stroke="#7c7c7c" vector-effect="non-scaling-stroke" d="
  M 535.91 170.07
  Q 515.00 149.17 488.23 133.13
  Q 488.12 133.08 487.99 133.08
  A 0.14 0.14 0.0 0 0 487.91 133.33
  C 498.07 141.00 489.88 155.95 478.20 151.82
  A 0.15 0.15 0.0 0 0 478.07 152.09
  Q 502.21 166.52 520.84 185.14
  Q 539.46 203.77 553.88 227.91
  A 0.15 0.15 0.0 0 0 554.16 227.78
  C 550.03 216.10 564.98 207.91 572.65 218.07
  A 0.14 0.14 0.0 0 0 572.90 217.99
  Q 572.90 217.86 572.84 217.75
  Q 556.81 190.98 535.91 170.07"
/>
<path stroke="#7c7c7c" vector-effect="non-scaling-stroke" d="
  M 561.89 336.00
  A 191.89 191.89 0.0 0 0 370.00 144.11
  A 191.89 191.89 0.0 0 0 178.11 336.00
  A 191.89 191.89 0.0 0 0 370.00 527.89
  A 191.89 191.89 0.0 0 0 561.89 336.00"
/>
<path stroke="#7c7c7c" vector-effect="non-scaling-stroke" d="
  M 156.71 334.69
  Q 157.30 278.99 184.43 230.80
  A 0.12 0.12 0.0 0 0 184.23 230.66
  C 179.01 236.47 170.46 235.79 166.70 229.02
  Q 164.24 224.60 166.73 218.88
  L 166.72 218.87
  A 0.02 0.01 -0.0 0 0 166.70 218.88
  Q 135.97 272.33 135.38 334.32
  A 0.11 0.11 0.0 0 0 135.60 334.35
  C 138.20 322.49 154.10 322.73 156.43 334.71
  A 0.14 0.14 0.0 0 0 156.71 334.69"
/>
<path stroke="#7c7c7c" vector-effect="non-scaling-stroke" d="
  M 604.66 334.23
  Q 604.05 272.42 573.41 219.03
  A 0.05 0.02 53.1 0 0 573.35 219.00
  Q 573.35 219.01 573.34 219.02
  A 0.09 0.09 0.0 0 0 573.34 219.10
  Q 575.85 225.33 572.75 229.77
  C 568.55 235.79 560.62 236.09 555.72 230.50
  A 0.15 0.14 10.5 0 0 555.48 230.66
  Q 582.90 279.37 583.29 335.30
  A 0.18 0.18 0.0 0 0 583.47 335.48
  A 0.17 0.17 0.0 0 0 583.64 335.32
  C 584.45 323.11 601.65 322.10 604.38 334.26
  A 0.14 0.14 0.0 0 0 604.66 334.23"
/>
<path stroke="#7c7c7c" vector-effect="non-scaling-stroke" d="
  M 604.60 338.00
  A 0.14 0.14 0.0 0 0 604.32 337.97
  C 601.60 350.09 584.45 349.09 583.64 336.92
  A 0.17 0.17 0.0 0 0 583.47 336.76
  A 0.18 0.18 0.0 0 0 583.30 336.94
  Q 582.91 392.69 555.58 441.24
  A 0.15 0.14 -10.5 0 0 555.82 441.40
  C 560.70 435.83 568.61 436.12 572.79 442.12
  Q 575.88 446.55 573.38 452.76
  A 0.09 0.09 0.0 0 0 573.38 452.84
  Q 573.39 452.85 573.39 452.86
  A 0.05 0.02 -53.1 0 0 573.45 452.83
  Q 603.99 399.61 604.60 338.00"
/>
<path stroke="#7c7c7c" vector-effect="non-scaling-stroke" d="
  M 166.54 452.38
  Q 166.47 452.58 166.53 452.79
  A 0.08 0.07 32.2 0 0 166.68 452.76
  Q 166.64 452.58 166.54 452.38"
/>
<path stroke="#7c7c7c" vector-effect="non-scaling-stroke" d="
  M 166.54 452.38
  Q 164.82 448.83 165.85 445.32
  C 168.27 437.08 178.52 434.73 184.19 441.41
  A 0.16 0.16 0.0 0 0 184.45 441.23
  Q 156.98 392.26 156.77 337.18
  Q 156.77 337.00 156.74 336.91
  A 0.12 0.12 0.0 0 0 156.51 336.93
  C 155.43 344.59 148.04 348.94 141.12 345.39
  Q 136.80 343.19 135.59 337.86
  A 0.10 0.10 0.0 0 0 135.40 337.88
  Q 136.03 399.35 166.25 452.44
  A 0.05 0.04 62.9 0 0 166.30 452.46
  Q 166.42 452.42 166.54 452.38"
/>
<path stroke="#7c7c7c" vector-effect="non-scaling-stroke" d="
  M 369.56 549.48
  A 0.21 0.20 88.5 0 0 369.36 549.28
  Q 313.35 548.94 264.76 521.53
  A 0.14 0.14 0.0 0 0 264.60 521.75
  C 274.90 530.96 262.97 546.20 251.76 538.42
  C 247.45 535.43 246.18 529.31 248.86 524.80
  Q 253.02 517.80 261.89 520.09
  A 0.09 0.08 66.8 0 0 261.95 519.93
  Q 214.23 491.49 186.12 444.06
  A 0.19 0.19 0.0 0 0 185.87 443.98
  L 185.86 443.98
  A 0.18 0.18 0.0 0 0 185.77 444.20
  C 190.14 455.89 174.77 464.10 167.31 453.89
  A 0.10 0.10 0.0 0 0 167.13 453.95
  Q 167.14 454.06 167.26 454.26
  C 232.60 565.73 375.28 603.72 487.41 539.15
  A 0.03 0.02 26.1 0 0 487.39 539.11
  L 487.35 539.11
  A 0.29 0.09 -32.5 0 0 487.17 539.16
  Q 481.31 541.85 476.85 539.15
  C 470.17 535.12 469.72 526.97 475.40 521.69
  A 0.09 0.09 0.0 0 0 475.30 521.55
  Q 426.53 548.94 370.51 549.31
  A 0.18 0.18 0.0 0 0 370.33 549.49
  L 370.33 549.50
  A 0.18 0.17 0.0 0 0 370.51 549.67
  C 376.91 549.60 381.27 555.61 380.36 561.65
  C 379.78 565.52 377.06 568.68 373.45 569.95
  C 365.14 572.89 357.01 564.65 360.17 556.33
  Q 362.53 550.14 369.50 549.56
  A 0.07 0.07 0.0 0 0 369.56 549.49
  L 369.56 549.48"
/>
<path stroke="#7c7c7c" vector-effect="non-scaling-stroke" d="
  M 535.94 501.90
  Q 556.88 480.96 572.93 454.15
  Q 572.99 454.04 572.99 453.91
  A 0.14 0.14 0.0 0 0 572.74 453.83
  C 565.05 464.01 550.09 455.81 554.22 444.10
  A 0.15 0.15 0.0 0 0 553.94 443.98
  Q 539.50 468.15 520.84 486.81
  Q 502.19 505.47 478.01 519.92
  A 0.15 0.15 0.0 0 0 478.14 520.19
  C 489.84 516.06 498.04 531.03 487.86 538.72
  A 0.14 0.14 0.0 0 0 487.94 538.97
  Q 488.07 538.97 488.18 538.91
  Q 515.00 522.85 535.94 501.90"
/>
<path stroke="#7c7c7c" vector-effect="non-scaling-stroke" d="
  M 327.34 262.11
  Q 315.80 268.77 306.92 278.67
  Q 304.63 281.23 302.28 283.98
  A 0.62 0.61 35.3 0 1 301.51 284.11
  Q 261.32 260.98 250.70 254.75
  Q 243.88 250.75 241.00 250.72
  C 237.49 250.69 233.51 252.55 231.51 256.03
  C 229.50 259.51 229.87 263.88 231.66 266.90
  Q 233.12 269.39 239.99 273.29
  Q 250.70 279.37 290.83 302.62
  A 0.62 0.61 24.7 0 1 291.10 303.35
  Q 289.89 306.76 288.82 310.02
  Q 284.69 322.66 284.69 335.99
  Q 284.69 349.32 288.82 361.96
  Q 289.89 365.22 291.10 368.63
  A 0.62 0.61 -24.7 0 1 290.83 369.36
  Q 250.70 392.61 239.99 398.69
  Q 233.12 402.59 231.66 405.08
  C 229.87 408.10 229.50 412.47 231.51 415.95
  C 233.51 419.42 237.49 421.29 241.00 421.26
  Q 243.88 421.23 250.70 417.23
  Q 261.32 411.00 301.51 387.87
  A 0.62 0.61 -35.3 0 1 302.28 388.00
  Q 304.63 390.75 306.92 393.31
  Q 315.80 403.21 327.34 409.88
  Q 338.89 416.54 351.90 419.28
  Q 355.26 419.98 358.82 420.64
  A 0.62 0.61 -84.7 0 1 359.32 421.24
  Q 359.38 467.62 359.29 479.93
  Q 359.24 487.83 360.66 490.34
  C 362.39 493.40 365.99 495.91 370.00 495.91
  C 374.01 495.91 377.61 493.40 379.34 490.34
  Q 380.76 487.83 380.70 479.93
  Q 380.62 467.62 380.68 421.24
  A 0.62 0.61 84.7 0 1 381.18 420.64
  Q 384.74 419.98 388.10 419.28
  Q 401.11 416.54 412.66 409.88
  Q 424.20 403.21 433.08 393.31
  Q 435.37 390.75 437.72 388.00
  A 0.62 0.61 35.3 0 1 438.49 387.87
  Q 478.68 411.00 489.30 417.23
  Q 496.12 421.23 499.00 421.26
  C 502.51 421.29 506.49 419.43 508.49 415.95
  C 510.50 412.47 510.13 408.10 508.34 405.08
  Q 506.88 402.60 500.01 398.69
  Q 489.30 392.61 449.17 369.37
  A 0.62 0.61 24.7 0 1 448.90 368.63
  Q 450.11 365.22 451.18 361.96
  Q 455.32 349.32 455.32 335.99
  Q 455.32 322.66 451.18 310.02
  Q 450.11 306.76 448.90 303.35
  A 0.62 0.61 -24.7 0 1 449.18 302.62
  Q 489.30 279.38 500.01 273.29
  Q 506.88 269.39 508.34 266.91
  C 510.13 263.88 510.50 259.51 508.49 256.03
  C 506.49 252.56 502.51 250.70 499.00 250.73
  Q 496.12 250.75 489.30 254.75
  Q 478.68 260.98 438.49 284.11
  A 0.62 0.61 -35.3 0 1 437.72 283.98
  Q 435.37 281.23 433.08 278.67
  Q 424.20 268.77 412.66 262.11
  Q 401.11 255.44 388.10 252.70
  Q 384.74 252.00 381.18 251.34
  A 0.62 0.61 -84.7 0 1 380.68 250.74
  Q 380.62 204.37 380.71 192.05
  Q 380.76 184.15 379.34 181.64
  C 377.61 178.58 374.02 176.07 370.00 176.07
  C 365.99 176.07 362.39 178.58 360.66 181.64
  Q 359.24 184.15 359.30 192.05
  Q 359.38 204.37 359.32 250.74
  A 0.62 0.61 84.7 0 1 358.82 251.34
  Q 355.26 252.00 351.90 252.70
  Q 338.89 255.44 327.34 262.11"
/>
<path stroke="#7c7c7c" vector-effect="non-scaling-stroke" d="
  M 433.93 336.00
  A 63.93 63.93 0.0 0 0 370.00 272.07
  A 63.93 63.93 0.0 0 0 306.07 336.00
  A 63.93 63.93 0.0 0 0 370.00 399.93
  A 63.93 63.93 0.0 0 0 433.93 336.00"
/>
<path stroke="#7c7c7c" vector-effect="non-scaling-stroke" d="
  M 380.51 336.00
  A 10.51 10.51 0.0 0 0 370.00 325.49
  A 10.51 10.51 0.0 0 0 359.49 336.00
  A 10.51 10.51 0.0 0 0 370.00 346.51
  A 10.51 10.51 0.0 0 0 380.51 336.00"
/>
</g>
<path fill="#f7f7f7" d="
  M 730.00 0.00
  L 730.00 728.00
  L 0.00 728.00
  L 0.00 0.00
  L 730.00 0.00
  Z
  M 625.98 336.00
  A 255.98 255.98 0.0 0 0 370.00 80.02
  A 255.98 255.98 0.0 0 0 114.02 336.00
  A 255.98 255.98 0.0 0 0 370.00 591.98
  A 255.98 255.98 0.0 0 0 625.98 336.00
  Z"
/>
<path fill="#000000" d="
  M 625.98 336.00
  A 255.98 255.98 0.0 0 1 370.00 591.98
  A 255.98 255.98 0.0 0 1 114.02 336.00
  A 255.98 255.98 0.0 0 1 370.00 80.02
  A 255.98 255.98 0.0 0 1 625.98 336.00
  Z
  M 370.00 122.67
  C 406.93 122.67 443.06 132.29 475.15 150.43
  Q 475.24 150.48 475.40 150.38
  A 0.08 0.07 -42.6 0 0 475.41 150.26
  C 465.88 141.62 475.37 127.25 486.79 132.65
  A 0.07 0.05 -31.7 0 0 486.84 132.65
  Q 486.86 132.64 486.87 132.64
  A 0.03 0.02 -31.7 0 0 486.89 132.59
  Q 433.40 101.85 371.29 101.39
  A 0.45 0.33 27.3 0 0 371.16 101.41
  L 370.61 101.55
  A 0.02 0.02 0.0 0 0 370.61 101.59
  C 378.16 102.00 382.87 109.96 379.37 116.71
  C 377.59 120.14 374.09 122.59 370.00 122.59
  C 365.91 122.59 362.40 120.14 360.63 116.71
  C 357.13 109.96 361.84 102.00 369.39 101.59
  A 0.02 0.02 0.0 0 0 369.39 101.55
  L 368.84 101.41
  A 0.45 0.33 -27.3 0 0 368.71 101.39
  Q 306.60 101.85 253.11 132.60
  A 0.03 0.02 31.7 0 0 253.13 132.65
  Q 253.14 132.65 253.16 132.66
  A 0.07 0.05 31.7 0 0 253.21 132.66
  C 264.63 127.26 274.12 141.63 264.59 150.27
  A 0.08 0.07 42.6 0 0 264.60 150.39
  Q 264.76 150.49 264.85 150.44
  C 296.94 132.29 333.07 122.67 370.00 122.67
  Z
  M 204.08 170.09
  Q 183.19 191.00 167.17 217.76
  Q 167.11 217.87 167.11 218.00
  A 0.14 0.14 0.0 0 0 167.36 218.08
  C 175.03 207.92 189.97 216.10 185.85 227.78
  A 0.15 0.15 0.0 0 0 186.12 227.91
  Q 200.54 203.78 219.15 185.15
  Q 237.76 166.53 261.89 152.11
  A 0.15 0.15 0.0 0 0 261.76 151.84
  C 250.08 155.96 241.90 141.03 252.05 133.35
  A 0.14 0.14 0.0 0 0 251.97 133.10
  Q 251.84 133.10 251.73 133.16
  Q 224.98 149.19 204.08 170.09
  Z
  M 535.91 170.07
  Q 515.00 149.17 488.23 133.13
  Q 488.12 133.08 487.99 133.08
  A 0.14 0.14 0.0 0 0 487.91 133.33
  C 498.07 141.00 489.88 155.95 478.20 151.82
  A 0.15 0.15 0.0 0 0 478.07 152.09
  Q 502.21 166.52 520.84 185.14
  Q 539.46 203.77 553.88 227.91
  A 0.15 0.15 0.0 0 0 554.16 227.78
  C 550.03 216.10 564.98 207.91 572.65 218.07
  A 0.14 0.14 0.0 0 0 572.90 217.99
  Q 572.90 217.86 572.84 217.75
  Q 556.81 190.98 535.91 170.07
  Z
  M 561.89 336.00
  A 191.89 191.89 0.0 0 0 370.00 144.11
  A 191.89 191.89 0.0 0 0 178.11 336.00
  A 191.89 191.89 0.0 0 0 370.00 527.89
  A 191.89 191.89 0.0 0 0 561.89 336.00
  Z
  M 156.71 334.69
  Q 157.30 278.99 184.43 230.80
  A 0.12 0.12 0.0 0 0 184.23 230.66
  C 179.01 236.47 170.46 235.79 166.70 229.02
  Q 164.24 224.60 166.73 218.88
  L 166.72 218.87
  A 0.02 0.01 -0.0 0 0 166.70 218.88
  Q 135.97 272.33 135.38 334.32
  A 0.11 0.11 0.0 0 0 135.60 334.35
  C 138.20 322.49 154.10 322.73 156.43 334.71
  A 0.14 0.14 0.0 0 0 156.71 334.69
  Z
  M 604.66 334.23
  Q 604.05 272.42 573.41 219.03
  A 0.05 0.02 53.1 0 0 573.35 219.00
  Q 573.35 219.01 573.34 219.02
  A 0.09 0.09 0.0 0 0 573.34 219.10
  Q 575.85 225.33 572.75 229.77
  C 568.55 235.79 560.62 236.09 555.72 230.50
  A 0.15 0.14 10.5 0 0 555.48 230.66
  Q 582.90 279.37 583.29 335.30
  A 0.18 0.18 0.0 0 0 583.47 335.48
  A 0.17 0.17 0.0 0 0 583.64 335.32
  C 584.45 323.11 601.65 322.10 604.38 334.26
  A 0.14 0.14 0.0 0 0 604.66 334.23
  Z
  M 604.60 338.00
  A 0.14 0.14 0.0 0 0 604.32 337.97
  C 601.60 350.09 584.45 349.09 583.64 336.92
  A 0.17 0.17 0.0 0 0 583.47 336.76
  A 0.18 0.18 0.0 0 0 583.30 336.94
  Q 582.91 392.69 555.58 441.24
  A 0.15 0.14 -10.5 0 0 555.82 441.40
  C 560.70 435.83 568.61 436.12 572.79 442.12
  Q 575.88 446.55 573.38 452.76
  A 0.09 0.09 0.0 0 0 573.38 452.84
  Q 573.39 452.85 573.39 452.86
  A 0.05 0.02 -53.1 0 0 573.45 452.83
  Q 603.99 399.61 604.60 338.00
  Z
  M 166.54 452.38
  Q 166.47 452.58 166.53 452.79
  A 0.08 0.07 32.2 0 0 166.68 452.76
  Q 166.64 452.58 166.54 452.38
  Q 164.82 448.83 165.85 445.32
  C 168.27 437.08 178.52 434.73 184.19 441.41
  A 0.16 0.16 0.0 0 0 184.45 441.23
  Q 156.98 392.26 156.77 337.18
  Q 156.77 337.00 156.74 336.91
  A 0.12 0.12 0.0 0 0 156.51 336.93
  C 155.43 344.59 148.04 348.94 141.12 345.39
  Q 136.80 343.19 135.59 337.86
  A 0.10 0.10 0.0 0 0 135.40 337.88
  Q 136.03 399.35 166.25 452.44
  A 0.05 0.04 62.9 0 0 166.30 452.46
  Q 166.42 452.42 166.54 452.38
  Z
  M 369.56 549.48
  A 0.21 0.20 88.5 0 0 369.36 549.28
  Q 313.35 548.94 264.76 521.53
  A 0.14 0.14 0.0 0 0 264.60 521.75
  C 274.90 530.96 262.97 546.20 251.76 538.42
  C 247.45 535.43 246.18 529.31 248.86 524.80
  Q 253.02 517.80 261.89 520.09
  A 0.09 0.08 66.8 0 0 261.95 519.93
  Q 214.23 491.49 186.12 444.06
  A 0.19 0.19 0.0 0 0 185.87 443.98
  L 185.86 443.98
  A 0.18 0.18 0.0 0 0 185.77 444.20
  C 190.14 455.89 174.77 464.10 167.31 453.89
  A 0.10 0.10 0.0 0 0 167.13 453.95
  Q 167.14 454.06 167.26 454.26
  C 232.60 565.73 375.28 603.72 487.41 539.15
  A 0.03 0.02 26.1 0 0 487.39 539.11
  L 487.35 539.11
  A 0.29 0.09 -32.5 0 0 487.17 539.16
  Q 481.31 541.85 476.85 539.15
  C 470.17 535.12 469.72 526.97 475.40 521.69
  A 0.09 0.09 0.0 0 0 475.30 521.55
  Q 426.53 548.94 370.51 549.31
  A 0.18 0.18 0.0 0 0 370.33 549.49
  L 370.33 549.50
  A 0.18 0.17 0.0 0 0 370.51 549.67
  C 376.91 549.60 381.27 555.61 380.36 561.65
  C 379.78 565.52 377.06 568.68 373.45 569.95
  C 365.14 572.89 357.01 564.65 360.17 556.33
  Q 362.53 550.14 369.50 549.56
  A 0.07 0.07 0.0 0 0 369.56 549.49
  L 369.56 549.48
  Z
  M 535.94 501.90
  Q 556.88 480.96 572.93 454.15
  Q 572.99 454.04 572.99 453.91
  A 0.14 0.14 0.0 0 0 572.74 453.83
  C 565.05 464.01 550.09 455.81 554.22 444.10
  A 0.15 0.15 0.0 0 0 553.94 443.98
  Q 539.50 468.15 520.84 486.81
  Q 502.19 505.47 478.01 519.92
  A 0.15 0.15 0.0 0 0 478.14 520.19
  C 489.84 516.06 498.04 531.03 487.86 538.72
  A 0.14 0.14 0.0 0 0 487.94 538.97
  Q 488.07 538.97 488.18 538.91
  Q 515.00 522.85 535.94 501.90
  Z"
/>
<path fill="#f7f7f7" d="
  M 370.00 122.59
  C 374.09 122.59 377.59 120.14 379.37 116.71
  C 382.87 109.96 378.16 102.00 370.61 101.59
  A 0.02 0.02 0.0 0 1 370.61 101.55
  L 371.16 101.41
  A 0.45 0.33 27.3 0 1 371.29 101.39
  Q 433.40 101.85 486.89 132.59
  A 0.03 0.02 -31.7 0 1 486.87 132.64
  Q 486.86 132.64 486.84 132.65
  A 0.07 0.05 -31.7 0 1 486.79 132.65
  C 475.37 127.25 465.88 141.62 475.41 150.26
  A 0.08 0.07 -42.6 0 1 475.40 150.38
  Q 475.24 150.48 475.15 150.43
  C 443.06 132.29 406.93 122.67 370.00 122.67
  C 333.07 122.67 296.94 132.29 264.85 150.44
  Q 264.76 150.49 264.60 150.39
  A 0.08 0.07 42.6 0 1 264.59 150.27
  C 274.12 141.63 264.63 127.26 253.21 132.66
  A 0.07 0.05 31.7 0 1 253.16 132.66
  Q 253.14 132.65 253.13 132.65
  A 0.03 0.02 31.7 0 1 253.11 132.60
  Q 306.60 101.85 368.71 101.39
  A 0.45 0.33 -27.3 0 1 368.84 101.41
  L 369.39 101.55
  A 0.02 0.02 0.0 0 1 369.39 101.59
  C 361.84 102.00 357.13 109.96 360.63 116.71
  C 362.40 120.14 365.91 122.59 370.00 122.59
  Z"
/>
<path fill="#f7f7f7" d="
  M 219.15 185.15
  Q 200.54 203.78 186.12 227.91
  A 0.15 0.15 0.0 0 1 185.85 227.78
  C 189.97 216.10 175.03 207.92 167.36 218.08
  A 0.14 0.14 0.0 0 1 167.11 218.00
  Q 167.11 217.87 167.17 217.76
  Q 183.19 191.00 204.08 170.09
  Q 224.98 149.19 251.73 133.16
  Q 251.84 133.10 251.97 133.10
  A 0.14 0.14 0.0 0 1 252.05 133.35
  C 241.90 141.03 250.08 155.96 261.76 151.84
  A 0.15 0.15 0.0 0 1 261.89 152.11
  Q 237.76 166.53 219.15 185.15
  Z"
/>
<path fill="#f7f7f7" d="
  M 535.91 170.07
  Q 556.81 190.98 572.84 217.75
  Q 572.90 217.86 572.90 217.99
  A 0.14 0.14 0.0 0 1 572.65 218.07
  C 564.98 207.91 550.03 216.10 554.16 227.78
  A 0.15 0.15 0.0 0 1 553.88 227.91
  Q 539.46 203.77 520.84 185.14
  Q 502.21 166.52 478.07 152.09
  A 0.15 0.15 0.0 0 1 478.20 151.82
  C 489.88 155.95 498.07 141.00 487.91 133.33
  A 0.14 0.14 0.0 0 1 487.99 133.08
  Q 488.12 133.08 488.23 133.13
  Q 515.00 149.17 535.91 170.07
  Z"
/>
<path fill="#f7f7f7" d="
  M 561.89 336.00
  A 191.89 191.89 0.0 0 1 370.00 527.89
  A 191.89 191.89 0.0 0 1 178.11 336.00
  A 191.89 191.89 0.0 0 1 370.00 144.11
  A 191.89 191.89 0.0 0 1 561.89 336.00
  Z
  M 327.34 262.11
  Q 315.80 268.77 306.92 278.67
  Q 304.63 281.23 302.28 283.98
  A 0.62 0.61 35.3 0 1 301.51 284.11
  Q 261.32 260.98 250.70 254.75
  Q 243.88 250.75 241.00 250.72
  C 237.49 250.69 233.51 252.55 231.51 256.03
  C 229.50 259.51 229.87 263.88 231.66 266.90
  Q 233.12 269.39 239.99 273.29
  Q 250.70 279.37 290.83 302.62
  A 0.62 0.61 24.7 0 1 291.10 303.35
  Q 289.89 306.76 288.82 310.02
  Q 284.69 322.66 284.69 335.99
  Q 284.69 349.32 288.82 361.96
  Q 289.89 365.22 291.10 368.63
  A 0.62 0.61 -24.7 0 1 290.83 369.36
  Q 250.70 392.61 239.99 398.69
  Q 233.12 402.59 231.66 405.08
  C 229.87 408.10 229.50 412.47 231.51 415.95
  C 233.51 419.42 237.49 421.29 241.00 421.26
  Q 243.88 421.23 250.70 417.23
  Q 261.32 411.00 301.51 387.87
  A 0.62 0.61 -35.3 0 1 302.28 388.00
  Q 304.63 390.75 306.92 393.31
  Q 315.80 403.21 327.34 409.88
  Q 338.89 416.54 351.90 419.28
  Q 355.26 419.98 358.82 420.64
  A 0.62 0.61 -84.7 0 1 359.32 421.24
  Q 359.38 467.62 359.29 479.93
  Q 359.24 487.83 360.66 490.34
  C 362.39 493.40 365.99 495.91 370.00 495.91
  C 374.01 495.91 377.61 493.40 379.34 490.34
  Q 380.76 487.83 380.70 479.93
  Q 380.62 467.62 380.68 421.24
  A 0.62 0.61 84.7 0 1 381.18 420.64
  Q 384.74 419.98 388.10 419.28
  Q 401.11 416.54 412.66 409.88
  Q 424.20 403.21 433.08 393.31
  Q 435.37 390.75 437.72 388.00
  A 0.62 0.61 35.3 0 1 438.49 387.87
  Q 478.68 411.00 489.30 417.23
  Q 496.12 421.23 499.00 421.26
  C 502.51 421.29 506.49 419.43 508.49 415.95
  C 510.50 412.47 510.13 408.10 508.34 405.08
  Q 506.88 402.60 500.01 398.69
  Q 489.30 392.61 449.17 369.37
  A 0.62 0.61 24.7 0 1 448.90 368.63
  Q 450.11 365.22 451.18 361.96
  Q 455.32 349.32 455.32 335.99
  Q 455.32 322.66 451.18 310.02
  Q 450.11 306.76 448.90 303.35
  A 0.62 0.61 -24.7 0 1 449.18 302.62
  Q 489.30 279.38 500.01 273.29
  Q 506.88 269.39 508.34 266.91
  C 510.13 263.88 510.50 259.51 508.49 256.03
  C 506.49 252.56 502.51 250.70 499.00 250.73
  Q 496.12 250.75 489.30 254.75
  Q 478.68 260.98 438.49 284.11
  A 0.62 0.61 -35.3 0 1 437.72 283.98
  Q 435.37 281.23 433.08 278.67
  Q 424.20 268.77 412.66 262.11
  Q 401.11 255.44 388.10 252.70
  Q 384.74 252.00 381.18 251.34
  A 0.62 0.61 -84.7 0 1 380.68 250.74
  Q 380.62 204.37 380.71 192.05
  Q 380.76 184.15 379.34 181.64
  C 377.61 178.58 374.02 176.07 370.00 176.07
  C 365.99 176.07 362.39 178.58 360.66 181.64
  Q 359.24 184.15 359.30 192.05
  Q 359.38 204.37 359.32 250.74
  A 0.62 0.61 84.7 0 1 358.82 251.34
  Q 355.26 252.00 351.90 252.70
  Q 338.89 255.44 327.34 262.11
  Z"
/>
<path fill="#000000" d="
  M 370.00 176.07
  C 374.02 176.07 377.61 178.58 379.34 181.64
  Q 380.76 184.15 380.71 192.05
  Q 380.62 204.37 380.68 250.74
  A 0.62 0.61 -84.7 0 0 381.18 251.34
  Q 384.74 252.00 388.10 252.70
  Q 401.11 255.44 412.66 262.11
  Q 424.20 268.77 433.08 278.67
  Q 435.37 281.23 437.72 283.98
  A 0.62 0.61 -35.3 0 0 438.49 284.11
  Q 478.68 260.98 489.30 254.75
  Q 496.12 250.75 499.00 250.73
  C 502.51 250.70 506.49 252.56 508.49 256.03
  C 510.50 259.51 510.13 263.88 508.34 266.91
  Q 506.88 269.39 500.01 273.29
  Q 489.30 279.38 449.18 302.62
  A 0.62 0.61 -24.7 0 0 448.90 303.35
  Q 450.11 306.76 451.18 310.02
  Q 455.32 322.66 455.32 335.99
  Q 455.32 349.32 451.18 361.96
  Q 450.11 365.22 448.90 368.63
  A 0.62 0.61 24.7 0 0 449.17 369.37
  Q 489.30 392.61 500.01 398.69
  Q 506.88 402.60 508.34 405.08
  C 510.13 408.10 510.50 412.47 508.49 415.95
  C 506.49 419.43 502.51 421.29 499.00 421.26
  Q 496.12 421.23 489.30 417.23
  Q 478.68 411.00 438.49 387.87
  A 0.62 0.61 35.3 0 0 437.72 388.00
  Q 435.37 390.75 433.08 393.31
  Q 424.20 403.21 412.66 409.88
  Q 401.11 416.54 388.10 419.28
  Q 384.74 419.98 381.18 420.64
  A 0.62 0.61 84.7 0 0 380.68 421.24
  Q 380.62 467.62 380.70 479.93
  Q 380.76 487.83 379.34 490.34
  C 377.61 493.40 374.01 495.91 370.00 495.91
  C 365.99 495.91 362.39 493.40 360.66 490.34
  Q 359.24 487.83 359.29 479.93
  Q 359.38 467.62 359.32 421.24
  A 0.62 0.61 -84.7 0 0 358.82 420.64
  Q 355.26 419.98 351.90 419.28
  Q 338.89 416.54 327.34 409.88
  Q 315.80 403.21 306.92 393.31
  Q 304.63 390.75 302.28 388.00
  A 0.62 0.61 -35.3 0 0 301.51 387.87
  Q 261.32 411.00 250.70 417.23
  Q 243.88 421.23 241.00 421.26
  C 237.49 421.29 233.51 419.42 231.51 415.95
  C 229.50 412.47 229.87 408.10 231.66 405.08
  Q 233.12 402.59 239.99 398.69
  Q 250.70 392.61 290.83 369.36
  A 0.62 0.61 -24.7 0 0 291.10 368.63
  Q 289.89 365.22 288.82 361.96
  Q 284.69 349.32 284.69 335.99
  Q 284.69 322.66 288.82 310.02
  Q 289.89 306.76 291.10 303.35
  A 0.62 0.61 24.7 0 0 290.83 302.62
  Q 250.70 279.37 239.99 273.29
  Q 233.12 269.39 231.66 266.90
  C 229.87 263.88 229.50 259.51 231.51 256.03
  C 233.51 252.55 237.49 250.69 241.00 250.72
  Q 243.88 250.75 250.70 254.75
  Q 261.32 260.98 301.51 284.11
  A 0.62 0.61 35.3 0 0 302.28 283.98
  Q 304.63 281.23 306.92 278.67
  Q 315.80 268.77 327.34 262.11
  Q 338.89 255.44 351.90 252.70
  Q 355.26 252.00 358.82 251.34
  A 0.62 0.61 84.7 0 0 359.32 250.74
  Q 359.38 204.37 359.30 192.05
  Q 359.24 184.15 360.66 181.64
  C 362.39 178.58 365.99 176.07 370.00 176.07
  Z
  M 433.93 336.00
  A 63.93 63.93 0.0 0 0 370.00 272.07
  A 63.93 63.93 0.0 0 0 306.07 336.00
  A 63.93 63.93 0.0 0 0 370.00 399.93
  A 63.93 63.93 0.0 0 0 433.93 336.00
  Z"
/>
<path fill="#f7f7f7" d="
  M 156.43 334.71
  C 154.10 322.73 138.20 322.49 135.60 334.35
  A 0.11 0.11 0.0 0 1 135.38 334.32
  Q 135.97 272.33 166.70 218.88
  A 0.02 0.01 -0.0 0 1 166.72 218.87
  L 166.73 218.88
  Q 164.24 224.60 166.70 229.02
  C 170.46 235.79 179.01 236.47 184.23 230.66
  A 0.12 0.12 0.0 0 1 184.43 230.80
  Q 157.30 278.99 156.71 334.69
  A 0.14 0.14 0.0 0 1 156.43 334.71
  Z"
/>
<path fill="#f7f7f7" d="
  M 604.38 334.26
  C 601.65 322.10 584.45 323.11 583.64 335.32
  A 0.17 0.17 0.0 0 1 583.47 335.48
  A 0.18 0.18 0.0 0 1 583.29 335.30
  Q 582.90 279.37 555.48 230.66
  A 0.15 0.14 10.5 0 1 555.72 230.50
  C 560.62 236.09 568.55 235.79 572.75 229.77
  Q 575.85 225.33 573.34 219.10
  A 0.09 0.09 0.0 0 1 573.34 219.02
  Q 573.35 219.01 573.35 219.00
  A 0.05 0.02 53.1 0 1 573.41 219.03
  Q 604.05 272.42 604.66 334.23
  A 0.14 0.14 0.0 0 1 604.38 334.26
  Z"
/>
<path fill="#f7f7f7" d="
  M 433.93 336.00
  A 63.93 63.93 0.0 0 1 370.00 399.93
  A 63.93 63.93 0.0 0 1 306.07 336.00
  A 63.93 63.93 0.0 0 1 370.00 272.07
  A 63.93 63.93 0.0 0 1 433.93 336.00
  Z
  M 380.51 336.00
  A 10.51 10.51 0.0 0 0 370.00 325.49
  A 10.51 10.51 0.0 0 0 359.49 336.00
  A 10.51 10.51 0.0 0 0 370.00 346.51
  A 10.51 10.51 0.0 0 0 380.51 336.00
  Z"
/>
<circle fill="#000000" cx="370.00" cy="336.00" r="10.51"/>
<path fill="#f7f7f7" d="
  M 604.60 338.00
  Q 603.99 399.61 573.45 452.83
  A 0.05 0.02 -53.1 0 1 573.39 452.86
  Q 573.39 452.85 573.38 452.84
  A 0.09 0.09 0.0 0 1 573.38 452.76
  Q 575.88 446.55 572.79 442.12
  C 568.61 436.12 560.70 435.83 555.82 441.40
  A 0.15 0.14 -10.5 0 1 555.58 441.24
  Q 582.91 392.69 583.30 336.94
  A 0.18 0.18 0.0 0 1 583.47 336.76
  A 0.17 0.17 0.0 0 1 583.64 336.92
  C 584.45 349.09 601.60 350.09 604.32 337.97
  A 0.14 0.14 0.0 0 1 604.60 338.00
  Z"
/>
<path fill="#f7f7f7" d="
  M 166.54 452.38
  Q 166.42 452.42 166.30 452.46
  A 0.05 0.04 62.9 0 1 166.25 452.44
  Q 136.03 399.35 135.40 337.88
  A 0.10 0.10 0.0 0 1 135.59 337.86
  Q 136.80 343.19 141.12 345.39
  C 148.04 348.94 155.43 344.59 156.51 336.93
  A 0.12 0.12 0.0 0 1 156.74 336.91
  Q 156.77 337.00 156.77 337.18
  Q 156.98 392.26 184.45 441.23
  A 0.16 0.16 0.0 0 1 184.19 441.41
  C 178.52 434.73 168.27 437.08 165.85 445.32
  Q 164.82 448.83 166.54 452.38
  Z"
/>
<path fill="#f7f7f7" d="
  M 369.50 549.56
  Q 362.53 550.14 360.17 556.33
  C 357.01 564.65 365.14 572.89 373.45 569.95
  C 377.06 568.68 379.78 565.52 380.36 561.65
  C 381.27 555.61 376.91 549.60 370.51 549.67
  A 0.18 0.17 0.0 0 1 370.33 549.50
  L 370.33 549.49
  A 0.18 0.18 0.0 0 1 370.51 549.31
  Q 426.53 548.94 475.30 521.55
  A 0.09 0.09 0.0 0 1 475.40 521.69
  C 469.72 526.97 470.17 535.12 476.85 539.15
  Q 481.31 541.85 487.17 539.16
  A 0.29 0.09 -32.5 0 1 487.35 539.11
  L 487.39 539.11
  A 0.03 0.02 26.1 0 1 487.41 539.15
  C 375.28 603.72 232.60 565.73 167.26 454.26
  Q 167.14 454.06 167.13 453.95
  A 0.10 0.10 0.0 0 1 167.31 453.89
  C 174.77 464.10 190.14 455.89 185.77 444.20
  A 0.18 0.18 0.0 0 1 185.86 443.98
  L 185.87 443.98
  A 0.19 0.19 0.0 0 1 186.12 444.06
  Q 214.23 491.49 261.95 519.93
  A 0.09 0.08 66.8 0 1 261.89 520.09
  Q 253.02 517.80 248.86 524.80
  C 246.18 529.31 247.45 535.43 251.76 538.42
  C 262.97 546.20 274.90 530.96 264.60 521.75
  A 0.14 0.14 0.0 0 1 264.76 521.53
  Q 313.35 548.94 369.36 549.28
  A 0.21 0.20 88.5 0 1 369.56 549.48
  L 369.56 549.49
  A 0.07 0.07 0.0 0 1 369.50 549.56
  Z"
/>
<path fill="#f7f7f7" d="
  M 535.94 501.90
  Q 515.00 522.85 488.18 538.91
  Q 488.07 538.97 487.94 538.97
  A 0.14 0.14 0.0 0 1 487.86 538.72
  C 498.04 531.03 489.84 516.06 478.14 520.19
  A 0.15 0.15 0.0 0 1 478.01 519.92
  Q 502.19 505.47 520.84 486.81
  Q 539.50 468.15 553.94 443.98
  A 0.15 0.15 0.0 0 1 554.22 444.10
  C 550.09 455.81 565.05 464.01 572.74 453.83
  A 0.14 0.14 0.0 0 1 572.99 453.91
  Q 572.99 454.04 572.93 454.15
  Q 556.88 480.96 535.94 501.90
  Z"
/>
<path fill="#f7f7f7" d="
  M 166.54 452.38
  Q 166.64 452.58 166.68 452.76
  A 0.08 0.07 32.2 0 1 166.53 452.79
  Q 166.47 452.58 166.54 452.38
  Z"
/>
</svg>
