<?xml version="1.0" encoding="UTF-8"?>
<svg id="Layer_1" data-name="Layer 1" xmlns="http://www.w3.org/2000/svg" viewBox="0 0 464.82 427.09">
  <defs>
    <style>
      .cls-1 {
        stroke: #7a7a7b;
        stroke-width: 2px;
      }

      .cls-1, .cls-2 {
        fill: none;
      }

      .cls-2 {
        stroke: #000;
        stroke-miterlimit: 10;
        stroke-width: 5px;
      }
    </style>
  </defs>
  <path class="cls-1" d="M286.71,351.91c-.01-.15-.97-2.48-2.88-6.97-1.37-3.22-2.31-5.57-2.83-7.04-2.77-7.83-5.98-17.41-9.63-28.74-5.22-16.23-8.99-32.72-11.32-49.45-2.11-15.2-2.43-36.42,8.69-48.61,3.27-3.59,6.86-6.17,10.75-7.73,13.71-5.5,26.91-6.27,42.68-7.88,9-.92,18.42-2.49,28.26-4.7,25.24-5.68,47.62-17.06,67.13-34.13,13.29-11.64,25.39-25.63,36.29-41.97,2.59-3.87,3.99-7.61.76-11.06-3.29-3.52-6.98-3.93-11.07-1.22-9.59,6.35-19.8,10.07-30.63,11.17-12.64,1.28-27.4-.42-39.32-2.71-29.41-5.63-57.47-12.8-85.59-4.2-7.13,2.18-13.99,5.05-20.56,8.62-.45.24-1.01.09-1.28-.34-8.4-13.75-19.28-24.82-32.65-33.22-13.04-8.19-25.57-12.7-42.12-19.44-5.18-2.1-12.17-5.61-16.25-7.92-18.2-10.33-31.76-24.36-42.81-41.66-3.26-5.09-4.56-8.59-8.97-9.97-3.44-1.08-7.7,1.59-9.05,4.93-.41,1-.53,2.77-.37,5.3,2,32.2,6.77,61.51,19.06,89.28,9.31,21.02,23.29,38.89,41.94,53.6,15.08,11.89,31.2,22.22,36.25,39.74.12.41.06.85-.14,1.21-28.25,50.18-38.38,108.9-28.21,165.68.06.32-.15.64-.47.71-21.28,4.47-42.94,8.98-64.97,13.54-27.63,5.72-52.3,9.67-77.47,10.83-11.57.53-19.77.53-24.61,0-3.64-.4-5.99-.45-7.05-.14-5.96,1.72-7.69,8.12-3.35,12.5.26.26.58.48.92.64,2.38,1.09,5.06,2.11,8.03,3.06,27.02,8.59,57.41,8.73,84.8,6.4,20.29-1.73,36.37-3.43,48.24-5.08,32.21-4.48,56.32-7.64,72.31-9.47,11.65-1.34,26.89-2.7,45.71-4.09,27.79-2.05,54.85-1.68,81.18,1.09,36.04,3.79,70.44,13.31,102.73,29.82,3.02,1.54,5.15,2.31,6.4,2.3,5.06-.03,8.53-5.73,6.49-10.14-.59-1.27-2.33-2.84-5.22-4.72-10.26-6.69-15.79-10.27-16.58-10.76-29.73-18.28-61.57-32.28-95.45-39.44-14.34-3.03-28.46-5.15-42.35-6.36-2.68-.23-5.15-.37-7.41-.4-4.94-.07-7.42-.12-7.45-.13-.32-.11-.54-.4-.56-.73" vector-effect="non-scaling-stroke"/>
  <path class="cls-2" d="M287.27,352.64s2.51.06,7.45.13c2.26.03,4.73.17,7.41.4,13.89,1.21,28.01,3.33,42.35,6.36,33.88,7.16,65.72,21.16,95.45,39.44.79.49,6.32,4.07,16.58,10.76,2.89,1.88,4.63,3.45,5.22,4.72,2.04,4.41-1.43,10.11-6.49,10.14-1.25,0-3.38-.76-6.4-2.3-32.29-16.51-66.69-26.03-102.73-29.82-26.33-2.77-53.39-3.14-81.18-1.09-18.82,1.39-34.06,2.75-45.71,4.09-15.99,1.83-40.1,4.99-72.31,9.47-11.87,1.65-27.95,3.35-48.24,5.08-27.39,2.33-57.78,2.19-84.8-6.4-2.97-.95-5.65-1.97-8.03-3.06-.34-.16-.66-.38-.92-.64-4.34-4.38-2.61-10.78,3.35-12.5,1.06-.31,3.41-.26,7.05.14,4.84.53,13.04.53,24.61,0,25.17-1.16,49.84-5.11,77.47-10.83,22.03-4.56,43.69-9.07,64.97-13.54.32-.07.53-.39.47-.71-10.17-56.78-.04-115.5,28.21-165.68.2-.36.26-.8.14-1.21-5.05-17.52-21.17-27.85-36.25-39.74-18.65-14.71-32.63-32.58-41.94-53.6-12.29-27.77-17.06-57.08-19.06-89.28-.16-2.53-.04-4.3.37-5.3,1.35-3.34,5.61-6.01,9.05-4.93,4.41,1.38,5.71,4.88,8.97,9.97,11.05,17.3,24.61,31.33,42.81,41.66,4.08,2.31,11.07,5.82,16.25,7.92,16.55,6.74,29.08,11.25,42.12,19.44,13.37,8.4,24.25,19.47,32.65,33.22.27.43.83.58,1.28.34,6.57-3.57,13.43-6.44,20.56-8.62,28.12-8.6,56.18-1.43,85.59,4.2,11.92,2.29,26.68,3.99,39.32,2.71,10.83-1.1,21.04-4.82,30.63-11.17,4.09-2.71,7.78-2.3,11.07,1.22,3.23,3.45,1.83,7.19-.76,11.06-10.9,16.34-23,30.33-36.29,41.97-19.51,17.07-41.89,28.45-67.13,34.13-9.84,2.21-19.26,3.78-28.26,4.7-15.77,1.61-28.97,2.38-42.68,7.88-3.89,1.56-7.48,4.14-10.75,7.73-11.12,12.19-10.8,33.41-8.69,48.61,2.33,16.73,6.1,33.22,11.32,49.45,3.65,11.33,6.86,20.91,9.63,28.74.52,1.47,1.46,3.82,2.83,7.04,1.91,4.49,2.87,6.82,2.88,6.97.02.33.24.62.56.73Z"/>
</svg>